<svg id="Layer_1" data-name="Layer 1" xmlns="http://www.w3.org/2000/svg" viewBox="0 0 297.89 64"><defs><style>.cls-1{fill:#f26727;}.cls-2{fill:#fff;}.cls-3{fill:#2d2926;}</style></defs><title>logo</title><g id="อนุโลม"><path class="cls-1" d="M30.67,13.75c0-.24.06-.47.1-.69A15.51,15.51,0,0,1,31.3,11a.57.57,0,0,0-.09-.56.7.7,0,0,1-.13-.64l.39-1.32s.06-.09.11-.17c.06.16.11.28.15.41.09.33.16.67.27,1a.66.66,0,0,1-.09.58,1.13,1.13,0,0,0-.2.67,9.84,9.84,0,0,0,0,1.63l.06.45a.89.89,0,0,0,.35.57,4.16,4.16,0,0,1,.9,1.21s0,.05,0,.11h-.32a1.24,1.24,0,0,0-1,.56c-.1.14-.08.21.06.31A6.3,6.3,0,0,1,33,16.9c-.21.07-.4.15-.6.2a1.74,1.74,0,0,0-.67.39.34.34,0,0,0,0,.51A8.93,8.93,0,0,1,33.49,20l.09.16a.17.17,0,0,1,0,.07s0,0-.06,0a2,2,0,0,0-.91.11l-.16.05a.26.26,0,0,0-.07.46c.27.24.55.46.8.71l1.4,1.34a6.6,6.6,0,0,0,1.34,1,.47.47,0,0,1-.4.34,1.23,1.23,0,0,1-.93-.2,2.22,2.22,0,0,0-.43-.23A6.9,6.9,0,0,0,33,23.31a2.12,2.12,0,0,0-.44-.06H32a1.39,1.39,0,0,0-.88.29c-.26.18-.53.35-.78.54a2.92,2.92,0,0,0-.44.42,5.15,5.15,0,0,0-1,1.61,1.43,1.43,0,0,0-.12.43.23.23,0,0,0,.18.24.62.62,0,0,1,.3.18c.27.29.55.58.85.85a2.91,2.91,0,0,0,1.54.87A2.57,2.57,0,0,0,33,28.56,4.27,4.27,0,0,0,33.9,28a5.86,5.86,0,0,0,.73-.67.24.24,0,0,0,0-.39,3.06,3.06,0,0,0-.29-.21l-.78-.53-.16.2c-.12.2-.23.43-.37.63a1.29,1.29,0,0,1-1.42.56,3.28,3.28,0,0,1-1.33-.67l-.75-.62a.91.91,0,0,1-.1-.1l.18-.12.41-.19a.51.51,0,0,0,.27-.25,4.11,4.11,0,0,1,.42-.69,2.79,2.79,0,0,1,.68-.6,2,2,0,0,1,.65-.28.71.71,0,0,1,.29,0,3.43,3.43,0,0,1,.46.11l.75.27.69.31,0,0c.39.31.85.51,1.23.83s.87.76,1.27,1.17c.25.26.47.55.73.85a1.75,1.75,0,0,1-.23,0,2.5,2.5,0,0,0-1,.09,1,1,0,0,0-.52.46,7.19,7.19,0,0,1-1.27,1.43,4.56,4.56,0,0,1-1.49.87,3.72,3.72,0,0,1-.74.14A4.12,4.12,0,0,1,30,30.13a6,6,0,0,1-1.11-.71c-.28-.23-.55-.47-.84-.69a1.3,1.3,0,0,0-.44-.22,2.33,2.33,0,0,0-1.23,0,4.79,4.79,0,0,0-.56.26l-.21.13a2.26,2.26,0,0,1,.07-.28c.22-.52.47-1,.74-1.53s.53-.95.82-1.41A12,12,0,0,1,28.51,24a8.9,8.9,0,0,1,.67-.7c.33-.3.68-.58,1-.86l.54-.43a.24.24,0,0,0,.09-.32,1.31,1.31,0,0,0-.91.14c-.28.13-.55.3-.83.46a3.31,3.31,0,0,1,.34-.74,5.13,5.13,0,0,1,.83-1.18,9.14,9.14,0,0,1,.81-.71c.17-.14.22-.3.06-.45a2.78,2.78,0,0,0-.82-.62,2.22,2.22,0,0,0-.59-.22s-.07,0-.11-.07a2.58,2.58,0,0,1,.44-.6,4.47,4.47,0,0,1,1-.84c.28-.17.29-.26.07-.5a3.76,3.76,0,0,0-.41-.38c-.14-.12-.3-.23-.47-.35.1-.14.19-.28.3-.41a3.62,3.62,0,0,1,.9-.8.23.23,0,0,0,0-.4.89.89,0,0,0-.56-.24Z" transform="translate(-12.57)"/><path class="cls-1" d="M14.15,34.2l.73-1.08.34-.51c.39-.57.77-1.14,1.15-1.72l1.35-2,.72-1.07.74-1.12c.19-.29.4-.57.59-.85s.33-.51.5-.77c.36-.54.72-1.08,1.07-1.62l1.22-1.83c.38-.57.78-1.13,1.16-1.7s.58-.88.87-1.32l.56-.81L26,16.43l1-1.41,1.31-2,.7-1A.35.35,0,0,1,29,12a1.71,1.71,0,0,1,.95-.88c.08.2.16.4.23.61a.31.31,0,0,1,0,.18c0,.1-.09.2-.13.3l-.39.83c-.22.51-.44,1-.67,1.54s-.46,1-.69,1.5-.32.78-.49,1.17-.36.76-.53,1.15L26.52,20c-.14.31-.3.61-.44.92s-.33.8-.5,1.19c-.41.9-.82,1.79-1.22,2.69-.27.59-.51,1.18-.77,1.77-.18.39-.37.76-.54,1.15-.25.55-.48,1.11-.73,1.66-.37.84-.75,1.68-1.13,2.52-.17.4-.34.8-.52,1.19-.26.56-.52,1.11-.77,1.67-.18.38-.34.77-.5,1.17a.69.69,0,0,1-.53.44c-.46.1-.9.26-1.35.39L16,37.19c-.18.05-.24,0-.33-.15l-.53-1c-.19-.35-.39-.69-.58-1Z" transform="translate(-12.57)"/><path class="cls-1" d="M16.65,22.56c0-.28.06-.53.09-.79s.13-.82.18-1.24a.44.44,0,0,1,.18-.31L19,18.63l1.36-1.14,1.09-.88c.42-.36.83-.73,1.25-1.08l.82-.67,1.17-1,.85-.7.37-.3,1.4-1.16c.37-.31.73-.64,1.1-.94a1.72,1.72,0,0,1,.38-.2l.34-.11c0,.17,0,.33-.05.49a.27.27,0,0,1-.06.12l-.63.71-1.18,1.32c-.16.18-.32.35-.47.53l-.95,1.08c-.19.22-.39.43-.59.65l-1.07,1.2c-.39.44-.8.88-1.19,1.33s-.63.74-1,1.1l-.65.72c-.19.21-.38.4-.56.61l-.87,1c-.27.31-.55.6-.81.91a.39.39,0,0,1-.23.13l-.73.09-1.31.16Z" transform="translate(-12.57)"/><path class="cls-1" d="M19.71,14.1l.32-.57.06-.1.51-1a.44.44,0,0,1,.27-.23l1.6-.56,1.76-.62.82-.28,2-.7,1.55-.53a.42.42,0,0,1,.22,0,1.4,1.4,0,0,1,.27.14,2.49,2.49,0,0,1-.59.62c-.33.2-.67.41-1,.6l-1.2.65c-.17.1-.33.21-.49.32l-.39.21-1.4.82-.91.49c-.22.12-.43.26-.64.39l-1,.56a.34.34,0,0,1-.22.05l-1.47-.27Z" transform="translate(-12.57)"/><path class="cls-1" d="M29.25,8.74a.87.87,0,0,1-.54.34c-.53.11-1.05.26-1.58.4l-2.54.72-.68.18a.51.51,0,0,1-.38-.08l-.78-.45-.86-.51.57-.4c.24-.16.49-.3.71-.47a.65.65,0,0,1,.48-.13l1.85,0L28,8.44h.38A1.32,1.32,0,0,1,29.25,8.74Z" transform="translate(-12.57)"/><path class="cls-1" d="M23,6.49l.27-.18.95-.47a.28.28,0,0,1,.22,0c.3.09.59.21.89.31l.69.21,2.3.78.59.22c.2.07.27.25.38.42a2.32,2.32,0,0,1-.81.15L26.55,7.8l-1.3-.08-.94,0a.45.45,0,0,1-.26-.09C23.69,7.23,23.35,6.86,23,6.49Z" transform="translate(-12.57)"/><path class="cls-1" d="M25.26,3.33l1,.19.19,0a.68.68,0,0,1,.47.23L29.17,6a1.66,1.66,0,0,0,.18.19,1.08,1.08,0,0,1,.36.85h-.15a2.32,2.32,0,0,1-1-.4c-.4-.3-.86-.55-1.29-.82s-1.08-.66-1.63-1a.39.39,0,0,1-.2-.3L25.39,4Z" transform="translate(-12.57)"/><path class="cls-1" d="M30.56,6.13H30.5c-.33,0-.51-.17-.68-.43-.41-.63-.83-1.26-1.25-1.88l-.68-1a.52.52,0,0,1-.1-.42c.05-.25.05-.52.08-.78a1.31,1.31,0,0,1,0-.15,1.56,1.56,0,0,1,.26.11c.3.16.6.32.88.49a.57.57,0,0,1,.21.25c.27.75.53,1.51.79,2.26.16.45.31.89.46,1.34A1.55,1.55,0,0,1,30.56,6.13Z" transform="translate(-12.57)"/><path class="cls-1" d="M31.26,5.9l-.12-.49L30.57,2.9c-.09-.35-.19-.7-.29-1a.38.38,0,0,1,.06-.33c.09-.16.19-.31.29-.46l.52-.85L31.3,0c.13.2.24.39.36.57s.4.62.61.93a.47.47,0,0,1,.06.4c-.22.84-.44,1.69-.65,2.53-.11.45-.21.91-.31,1.36a.61.61,0,0,1-.05.12Z" transform="translate(-12.57)"/><path class="cls-1" d="M48.47,34.2l-.72-1.08-.35-.51-1.15-1.72-1.34-2-.73-1.07c-.25-.37-.49-.75-.73-1.12l-.59-.85c-.17-.25-.34-.51-.5-.77l-1.08-1.62c-.4-.61-.8-1.22-1.21-1.83s-.78-1.13-1.16-1.7S38.33,19,38,18.57l-.56-.81c-.29-.44-.56-.89-.85-1.33L35.69,15l-1.32-2c-.22-.34-.46-.67-.69-1a.35.35,0,0,1,0-.08,1.78,1.78,0,0,0-1-.88c-.08.2-.16.4-.23.61a.3.3,0,0,0,0,.18c0,.1.09.2.14.3.13.28.26.55.38.83.23.51.45,1,.68,1.54s.46,1,.68,1.5l.5,1.17c.17.38.36.76.53,1.15s.47,1.09.72,1.63c.14.31.3.61.43.92s.33.8.51,1.19c.4.9.82,1.79,1.22,2.69.27.59.51,1.18.77,1.77.17.39.37.76.54,1.15.25.55.48,1.11.72,1.66.38.84.76,1.68,1.13,2.52.18.4.35.8.53,1.19.25.56.52,1.11.77,1.67.17.38.33.77.49,1.17a.69.69,0,0,0,.53.44c.46.1.91.26,1.36.39l1.49.45c.17.05.24,0,.33-.15l.53-1c.18-.35.38-.69.57-1S48.32,34.49,48.47,34.2Z" transform="translate(-12.57)"/><path class="cls-1" d="M46,22.56c0-.28-.06-.53-.1-.79s-.12-.82-.18-1.24a.42.42,0,0,0-.17-.31l-1.88-1.59-1.36-1.14-1.09-.88-1.26-1.08-.82-.67-1.16-1-.86-.7-.37-.3L35.34,11.7c-.37-.31-.73-.64-1.11-.94a1.52,1.52,0,0,0-.38-.2l-.34-.11.06.49a.2.2,0,0,0,.06.12l.63.71,1.18,1.32c.15.18.31.35.47.53l1,1.08.58.65c.36.39.71.8,1.07,1.2s.81.88,1.2,1.33.63.74.95,1.1.43.48.65.72.38.4.56.61l.87,1c.26.31.54.6.8.91a.38.38,0,0,0,.24.13l.72.09,1.32.16Z" transform="translate(-12.57)"/><path class="cls-1" d="M42.92,14.1l-.32-.57-.06-.1-.51-1a.44.44,0,0,0-.27-.23l-1.6-.56-1.76-.62-.83-.28-2-.7L34,9.55a.45.45,0,0,0-.23,0,2.38,2.38,0,0,0-.27.14,2.91,2.91,0,0,0,.59.62c.34.2.68.41,1,.6l1.19.65.5.32.39.21,1.4.82.91.49c.22.12.42.26.64.39l1,.56a.34.34,0,0,0,.22.05c.49-.08,1-.18,1.46-.27Z" transform="translate(-12.57)"/><path class="cls-1" d="M33.38,8.74a.87.87,0,0,0,.54.34c.53.11,1,.26,1.57.4L38,10.2l.69.18a.51.51,0,0,0,.38-.08l.78-.45.86-.51c-.21-.14-.39-.28-.58-.4s-.49-.3-.71-.47A.65.65,0,0,0,39,8.34l-1.84,0-2.51.06h-.38A1.3,1.3,0,0,0,33.38,8.74Z" transform="translate(-12.57)"/><path class="cls-1" d="M39.64,6.49a2,2,0,0,0-.26-.18l-1-.47a.31.31,0,0,0-.23,0c-.29.09-.59.21-.88.31s-.47.13-.7.21l-2.29.78-.6.22c-.19.07-.27.25-.38.42a2.37,2.37,0,0,0,.82.15l1.91-.11,1.3-.08.94,0a.45.45,0,0,0,.26-.09Z" transform="translate(-12.57)"/><path class="cls-1" d="M37.37,3.33l-1,.19-.18,0a.73.73,0,0,0-.48.23C35,4.53,34.2,5.27,33.46,6a1.14,1.14,0,0,1-.19.19,1.07,1.07,0,0,0-.35.85h.15a2.28,2.28,0,0,0,1-.4c.41-.3.86-.55,1.3-.82s1.08-.66,1.63-1a.39.39,0,0,0,.2-.3L37.24,4C37.27,3.81,37.32,3.6,37.37,3.33Z" transform="translate(-12.57)"/><path class="cls-1" d="M32.07,6.13h0c.34,0,.52-.17.69-.43.4-.63.83-1.26,1.25-1.88.22-.34.45-.68.68-1a.52.52,0,0,0,.1-.42,6.65,6.65,0,0,1-.08-.78l0-.15a1.69,1.69,0,0,0-.27.11l-.88.49a.55.55,0,0,0-.2.25c-.27.75-.53,1.51-.79,2.26-.16.45-.31.89-.46,1.34A1.55,1.55,0,0,0,32.07,6.13Z" transform="translate(-12.57)"/></g><path class="cls-1" d="M34,48.8a5.31,5.31,0,0,0,1.61-7.06V40.66l-1.41-1.4v.82a5,5,0,0,0-2.87-.94V49.6a6.2,6.2,0,0,0,2.24-.54V46h.27V44.27L33.62,44v-.78l.42.42Z" transform="translate(-12.57)"/><path class="cls-1" d="M30.94,39.14V49.6A4.74,4.74,0,0,1,27.52,48a3.2,3.2,0,0,1-.79-3.64,1.41,1.41,0,0,0-.56.46S25.92,41,28.78,40c0,0,.14,0-.08.33a1.19,1.19,0,0,0-.22.58V45s.05.87.39,1v-6.3A4.61,4.61,0,0,1,30.94,39.14Z" transform="translate(-12.57)"/><path class="cls-1" d="M26.08,40a6,6,0,0,1-2.41-.11,3.07,3.07,0,0,0-2.73.8,4.8,4.8,0,0,0-.62.85,4.39,4.39,0,0,0-.51,2.37,1.2,1.2,0,0,1,.5-.52.66.66,0,0,1,.4-.09l.15,0a.73.73,0,0,0,.55-.07s.06.44-.58.53S20,45.07,20,45.07a5.09,5.09,0,0,0,1,3.69,4.17,4.17,0,0,1,1.7-2.86c1.53-1,1.7-1.93,1.7-1.93s.26-1-.38-1.32a.52.52,0,0,0-.79.31s0,.19-.34.21c0,0-.17-.56.15-.77a1.78,1.78,0,0,1,1.28-.32l.62,0a7,7,0,0,0-.4,2.3,6.08,6.08,0,0,0,0,.61,6.11,6.11,0,0,1-1.81,1.65,3.06,3.06,0,0,0-1.36,2.5,4.33,4.33,0,0,0,.16,1,4.46,4.46,0,0,0,1.32,2,1.28,1.28,0,0,1,0-.73.72.72,0,0,1,.22-.35l.14-.07a.72.72,0,0,0,.34-.44s.34.27,0,.79.29,1.52.29,1.52a5.08,5.08,0,0,0,3.33,1.89,4.17,4.17,0,0,1-.83-3.22A3.57,3.57,0,0,0,26.12,49s-.55-.91-1.2-.66a.51.51,0,0,0-.34.77s.11.17-.09.39c0,0-.52-.28-.44-.65a1.79,1.79,0,0,1,.68-1.13l.41-.47h0a6.76,6.76,0,0,0,1.77,2.3A6.17,6.17,0,0,1,26.82,52a3.06,3.06,0,0,0,.81,2.73,4.36,4.36,0,0,0,.84.62,4.43,4.43,0,0,0,2.37.51,1.27,1.27,0,0,1-.52-.5.68.68,0,0,1-.09-.41.58.58,0,0,1,.05-.14.73.73,0,0,0-.07-.55s.43-.06.53.58,1.28.87,1.28.87a5.09,5.09,0,0,0,3.69-1A4.21,4.21,0,0,1,32.84,53c-1-1.53-1.93-1.7-1.93-1.7s-1-.26-1.31.38a.52.52,0,0,0,.3.79s.2,0,.22.34c0,0-.57.17-.78-.15A1.83,1.83,0,0,1,29,51.4l0-.63v0a6.68,6.68,0,0,0,2.33.41l.54,0A6.05,6.05,0,0,1,33.55,53,3.05,3.05,0,0,0,36,54.32a4.26,4.26,0,0,0,1-.16,4.35,4.35,0,0,0,2-1.32,1.25,1.25,0,0,1-.72,0,.68.68,0,0,1-.35-.22A.61.61,0,0,1,38,52.5a.75.75,0,0,0-.44-.34s.26-.35.78,0,1.53-.29,1.53-.29a5.08,5.08,0,0,0,1.89-3.33,4.21,4.21,0,0,1-3.23.83,3.59,3.59,0,0,0-2.57.16s-.91.55-.66,1.2a.52.52,0,0,0,.78.34s.16-.11.39.09c0,0-.28.52-.65.44A1.78,1.78,0,0,1,34.66,51l-.47-.41v0a7,7,0,0,0,2.33-1.77,6,6,0,0,1,2.45.11,3.08,3.08,0,0,0,2.74-.81,3.81,3.81,0,0,0,.61-.85,4.39,4.39,0,0,0,.51-2.37,1.22,1.22,0,0,1-.49.53.8.8,0,0,1-.41.09.53.53,0,0,1-.15-.05.73.73,0,0,0-.55.07s0-.43.58-.53.88-1.28.88-1.28a5.08,5.08,0,0,0-1-3.69A4.22,4.22,0,0,1,40,42.85c-1.53,1-1.7,1.93-1.7,1.93s-.26,1,.37,1.31a.53.53,0,0,0,.8-.3s0-.2.33-.22c0,0,.18.57-.15.77a1.75,1.75,0,0,1-1.28.33l-.63,0h0a6.68,6.68,0,0,0,.42-2.37c0-.19,0-.38,0-.57a6.27,6.27,0,0,1,1.79-1.63,3.09,3.09,0,0,0,1.37-2.5,4.3,4.3,0,0,0-1.48-3.07,1.19,1.19,0,0,1,0,.72.72.72,0,0,1-.22.35.56.56,0,0,1-.13.07.72.72,0,0,0-.34.44s-.35-.26,0-.78-.29-1.53-.29-1.53A5.07,5.07,0,0,0,35.53,34a4.21,4.21,0,0,1,.83,3.23,3.59,3.59,0,0,0,.16,2.57s.54.91,1.19.66a.53.53,0,0,0,.35-.78.33.33,0,0,1,.08-.39s.53.28.44.65A1.76,1.76,0,0,1,37.91,41l-.4.45a6.9,6.9,0,0,0-1.82-2.36,6.28,6.28,0,0,1,.12-2.4A3.07,3.07,0,0,0,35,34a4.34,4.34,0,0,0-.85-.61,4.46,4.46,0,0,0-2.37-.52,1.27,1.27,0,0,1,.52.5.71.71,0,0,1,.09.41,1.55,1.55,0,0,1,0,.15.68.68,0,0,0,.07.55s-.44.05-.53-.59S30.61,33,30.61,33a5,5,0,0,0-3.68,1,4.2,4.2,0,0,1,2.86,1.69c1,1.53,1.93,1.7,1.93,1.7s1,.26,1.31-.37a.52.52,0,0,0-.3-.8s-.19,0-.21-.33c0,0,.56-.18.77.15a1.81,1.81,0,0,1,.32,1.28l0,.59a6.92,6.92,0,0,0-2.33-.41q-.32,0-.63,0a6.29,6.29,0,0,1-1.6-1.77,3.06,3.06,0,0,0-2.5-1.37,3.93,3.93,0,0,0-1,.17,4.46,4.46,0,0,0-2,1.31,1.19,1.19,0,0,1,.72,0,.64.64,0,0,1,.36.22s0,.09.07.13a.69.69,0,0,0,.44.34s-.27.35-.79,0-1.52.29-1.52.29a5,5,0,0,0-1.89,3.32,4.17,4.17,0,0,1,3.22-.83,3.59,3.59,0,0,0,2.57-.16s.91-.54.66-1.19a.52.52,0,0,0-.77-.35.33.33,0,0,1-.39-.08s.27-.53.65-.45a1.84,1.84,0,0,1,1.13.68l.45.4A7,7,0,0,0,26.08,40Zm5.24-1.92a6.27,6.27,0,1,1-6.27,6.27A6.27,6.27,0,0,1,31.32,38.07Z" transform="translate(-12.57)"/><path class="cls-2" d="M17.12,44.86s0,0,0,.07S17.12,44.88,17.12,44.86Z" transform="translate(-12.57)"/><path class="cls-2" d="M17.13,45v0Z" transform="translate(-12.57)"/><path class="cls-2" d="M17.07,44.69l.05.15A.88.88,0,0,0,17.07,44.69Z" transform="translate(-12.57)"/><path class="cls-2" d="M17,45.72a1,1,0,0,1,.07-.3.93.93,0,0,0,.07-.38v-.11s0,0,0-.07v0l-.05-.15h0a.52.52,0,0,0-.5-.31,1.13,1.13,0,0,1,0,.26,2,2,0,0,1-.06.23c-.06.2-.15.31-.26.33l-1.91,0a.37.37,0,0,0-.28.16.56.56,0,0,0-.1.37.61.61,0,0,0,.11.35.33.33,0,0,0,.26.14.31.31,0,0,0,.26-.15.6.6,0,0,0,.1-.35c0-.06,0-.1,0-.12l1.55,0c.27,0,.45-.29.55-.86.08,0,.12.14.12.29a1,1,0,0,1-.07.38,1.18,1.18,0,0,0-.07.35q0,.27.33.39l.05-.3C17,45.81,17,45.77,17,45.72Zm-2.56.19a.15.15,0,0,1-.11.07.13.13,0,0,1-.12-.07.25.25,0,0,1,0-.15.27.27,0,0,1,0-.16s.07-.07.12-.07a.15.15,0,0,1,.12.07.25.25,0,0,1,.05.15A.3.3,0,0,1,14.43,45.91Z" transform="translate(-12.57)"/><path class="cls-2" d="M15.55,47.71c0-.23,0-.51,0-.85q.17,0,.21.3c0,.07,0,.18,0,.33a1.88,1.88,0,0,0,0,.34.42.42,0,0,0,.35.38l0-.32a.11.11,0,0,1-.12-.11,2.93,2.93,0,0,1,0-.34,2.35,2.35,0,0,0,0-.38.73.73,0,0,0-.23-.48.58.58,0,0,0-.45-.13c0,.23,0,.5,0,.79s0,.44-.09.45l-.41.06a.46.46,0,0,0,0-.1.63.63,0,0,0-.15-.34.33.33,0,0,0-.28-.11.36.36,0,0,0-.24.18.74.74,0,0,0-.06.37.57.57,0,0,0,.16.34.33.33,0,0,0,.27.11l.75-.11C15.44,48.07,15.52,48,15.55,47.71Zm-.93.13a.16.16,0,0,1-.1.08.17.17,0,0,1-.13-.05.25.25,0,0,1-.06-.15.29.29,0,0,1,0-.16.15.15,0,0,1,.11-.08.13.13,0,0,1,.12.05.26.26,0,0,1,.07.15A.22.22,0,0,1,14.62,47.84Z" transform="translate(-12.57)"/><path class="cls-2" d="M16.6,50.05a.61.61,0,0,0,0-.4.53.53,0,0,0-.19-.29.34.34,0,0,0-.3-.07.32.32,0,0,0-.2.21.52.52,0,0,0,0,.35.49.49,0,0,0,0,.12l-.8.23.51-1.15-.27-.18-.63,1.45.11.39,1.51-.44A.36.36,0,0,0,16.6,50.05ZM16.31,50a.16.16,0,0,1-.13,0,.34.34,0,0,1-.09-.14.22.22,0,0,1,0-.16.13.13,0,0,1,.1-.1.17.17,0,0,1,.13,0,.31.31,0,0,1,.08.3A.18.18,0,0,1,16.31,50Z" transform="translate(-12.57)"/><path class="cls-2" d="M16,51.77l1.14-.49L17,50.91l-1.44.62a.32.32,0,0,0-.2.25.57.57,0,0,0,0,.38.6.6,0,0,0,.24.28.31.31,0,0,0,.29,0,.32.32,0,0,0,.19-.24.66.66,0,0,0,0-.36A.64.64,0,0,0,16,51.77Zm-.11.35a.16.16,0,0,1-.08.1.17.17,0,0,1-.14,0,.27.27,0,0,1-.1-.13.23.23,0,0,1,0-.16.15.15,0,0,1,.08-.11.15.15,0,0,1,.13,0,.25.25,0,0,1,.11.12A.33.33,0,0,1,15.9,52.12Z" transform="translate(-12.57)"/><path class="cls-2" d="M17.61,53.37c-.07-.22-.16-.49-.28-.81.11,0,.21,0,.3.2a2.06,2.06,0,0,1,.13.31,2.06,2.06,0,0,0,.13.31.43.43,0,0,0,.47.23l-.11-.31a.11.11,0,0,1-.15,0,1.56,1.56,0,0,1-.13-.32,1.51,1.51,0,0,0-.15-.35.71.71,0,0,0-.39-.36.58.58,0,0,0-.46,0c.09.22.19.47.28.74s.13.43.09.46l-.36.2-.05-.09a.59.59,0,0,0-.27-.25.3.3,0,0,0-.29,0,.34.34,0,0,0-.16.25.65.65,0,0,0,.09.37.53.53,0,0,0,.26.25.32.32,0,0,0,.3,0l.65-.37C17.64,53.75,17.67,53.6,17.61,53.37Zm-.82.46a.16.16,0,0,1-.07.12.15.15,0,0,1-.13,0,.25.25,0,0,1-.12-.11.24.24,0,0,1,0-.16.14.14,0,0,1,.06-.12.17.17,0,0,1,.14,0,.25.25,0,0,1,.12.11A.24.24,0,0,1,16.79,53.83Z" transform="translate(-12.57)"/><path class="cls-2" d="M18.58,53.44l.05,0,.73-.5-.22-.32-.28.18A1.27,1.27,0,0,0,18.6,52c-.32-.48-.68-.62-1.06-.42.13.16.25.33.37.5A6.59,6.59,0,0,1,18.58,53.44Zm-.39-1.55a1,1,0,0,1,.28.3.75.75,0,0,1,.16.42.42.42,0,0,1-.05.32,4.92,4.92,0,0,0-.46-.84,1.14,1.14,0,0,0-.21-.27A.34.34,0,0,1,18.19,51.89Z" transform="translate(-12.57)"/><path class="cls-2" d="M19.73,55.37l-1.12.92c-.13.11-.32,0-.56-.27s-.28-.48-.15-.59l.17-.14a.19.19,0,0,1,.16,0,.18.18,0,0,1,.16.09l.3.35.18-.15-.29-.35a.23.23,0,0,1,0-.3.44.44,0,0,0,.1.15.46.46,0,0,0,.28.19.27.27,0,0,0,.35-.3.6.6,0,0,0-.15-.31.61.61,0,0,0-.38-.25.42.42,0,0,0-.37.1.47.47,0,0,0-.15.51.33.33,0,0,0-.42,0l-.18.14c-.27.22-.2.58.21,1.07s.74.63,1,.41L20,55.68Zm-.95-.7a.11.11,0,0,1,.12,0,.26.26,0,0,1,.13.08.24.24,0,0,1,.06.15A.09.09,0,0,1,19,55a.12.12,0,0,1-.12,0,.22.22,0,0,1-.13-.09.22.22,0,0,1-.06-.14A.17.17,0,0,1,18.78,54.67Z" transform="translate(-12.57)"/><path class="cls-2" d="M21.25,58.14a.29.29,0,0,1-.22.12,1.41,1.41,0,0,1-.47-.14,3.23,3.23,0,0,0-.47-.17l.79-.93a.32.32,0,0,0,.07-.31.51.51,0,0,0-.21-.32.58.58,0,0,0-.33-.15.34.34,0,0,0-.28.1.38.38,0,0,0-.06.3.59.59,0,0,0,.2.31l.09.06-.8,1,.31.26a1.18,1.18,0,0,1,.3,0l.3.1a.34.34,0,0,0,0,.28.56.56,0,0,0,.19.28.61.61,0,0,0,.33.14.28.28,0,0,0,.27-.1.34.34,0,0,0,0-.41.29.29,0,0,0,.28-.12l.65-.77-.31-.26Zm-.94-1.49a.15.15,0,0,1,0-.13.13.13,0,0,1,.12,0,.2.2,0,0,1,.15.06.24.24,0,0,1,.09.14.13.13,0,0,1-.15.18.34.34,0,0,1-.15-.07A.22.22,0,0,1,20.31,56.65ZM21,58.78a.17.17,0,0,1-.13,0,.34.34,0,0,1-.15-.07.38.38,0,0,1-.09-.13.17.17,0,0,1,0-.14.13.13,0,0,1,.12,0,.2.2,0,0,1,.15.06.24.24,0,0,1,.09.14A.14.14,0,0,1,21,58.78Z" transform="translate(-12.57)"/><path class="cls-2" d="M24.83,58.34l-1.11,2s-.1.07-.22,0a1.33,1.33,0,0,1-.35-.13,1.14,1.14,0,0,1-.3-.23c-.08-.09-.11-.16-.08-.22l.56-1a.34.34,0,0,0,0-.31.56.56,0,0,0-.27-.28.59.59,0,0,0-.36-.08.31.31,0,0,0-.25.46.62.62,0,0,0,.25.26l.11,0-.4.7c-.15.27,0,.57.6.87s.91.33,1.06,0l1.1-2Zm-2,.32a.23.23,0,0,1-.11-.11.17.17,0,0,1,0-.14.14.14,0,0,1,.11-.07.29.29,0,0,1,.16,0,.28.28,0,0,1,.12.12.15.15,0,0,1,0,.13.16.16,0,0,1-.12.07A.34.34,0,0,1,22.81,58.66Z" transform="translate(-12.57)"/><path class="cls-2" d="M26.19,59.69a1.06,1.06,0,0,0-.65,0,.55.55,0,0,0-.39.35l.37.13a.31.31,0,0,1,.22-.21.53.53,0,0,1,.37,0,.64.64,0,0,1,.29.19.28.28,0,0,1,.05.25L26,61.7l.38.13.46-1.33a.45.45,0,0,0-.1-.48A1.31,1.31,0,0,0,26.19,59.69Z" transform="translate(-12.57)"/><path class="cls-2" d="M28.65,60.33a.6.6,0,0,0-.35.05.33.33,0,0,0-.19.23.34.34,0,0,0,.09.28.65.65,0,0,0,.32.16h.13l-.16.82-.8-1-.28.16,1,1.22.39.07.29-1.55a.34.34,0,0,0-.09-.3A.68.68,0,0,0,28.65,60.33Zm.16.4a.15.15,0,0,1-.09.1.22.22,0,0,1-.16,0,.26.26,0,0,1-.15-.07.17.17,0,0,1,0-.13.15.15,0,0,1,.09-.1.21.21,0,0,1,.16,0,.22.22,0,0,1,.14.08A.15.15,0,0,1,28.81,60.73Z" transform="translate(-12.57)"/><path class="cls-2" d="M32,60.43h-.45a.25.25,0,0,1-.16.23,1.37,1.37,0,0,0-.49-.09,1.32,1.32,0,0,0-.76.18.6.6,0,0,0-.33.53,1.17,1.17,0,0,0,.09.42,1.39,1.39,0,0,1,.1.5v.31h.41a2.1,2.1,0,0,1,.21-.92.59.59,0,0,0,.29.1.54.54,0,0,0,.31-.09.25.25,0,0,0,.13-.22.23.23,0,0,0-.12-.22.47.47,0,0,0-.3-.1.57.57,0,0,0-.4.16.89.89,0,0,0-.21.34,1,1,0,0,1,0,.14.58.58,0,0,0,0,.1v-.12a.89.89,0,0,0,0-.22c0-.08,0-.14,0-.18a.41.41,0,0,1,.18-.33.71.71,0,0,1,.47-.14,1,1,0,0,1,.44.11.34.34,0,0,1,.19.3l0,1.31h.41l0-1.3a.52.52,0,0,0-.19-.43A.61.61,0,0,0,32,60.43Zm-1.23.83a.2.2,0,0,1,.14,0,.24.24,0,0,1,.14.05.1.1,0,0,1,.05.11.12.12,0,0,1-.06.1.21.21,0,0,1-.14,0,.22.22,0,0,1-.14-.05.11.11,0,0,1-.05-.1A.14.14,0,0,1,30.79,61.26Z" transform="translate(-12.57)"/><path class="cls-2" d="M31.68,59.78a1.29,1.29,0,0,0-.81-.17c-.58,0-.88.28-.9.71.2,0,.41-.06.61-.07a6.53,6.53,0,0,1,1.49.09A.93.93,0,0,0,31.68,59.78Zm-1,.27-.35.05a.38.38,0,0,1,.21-.2.93.93,0,0,1,.39-.1.83.83,0,0,1,.45.08.45.45,0,0,1,.25.2A5,5,0,0,0,30.68,60.05Z" transform="translate(-12.57)"/><path class="cls-2" d="M34.48,60.39a1.53,1.53,0,0,0-.71,0,1.55,1.55,0,0,0-.7.26.58.58,0,0,0-.27.51l.39-.07a.36.36,0,0,1,.19-.29,1,1,0,0,1,.42-.16,1.13,1.13,0,0,1,.41,0c.16,0,.25.09.27.19l0,.21a.9.9,0,0,0-.63-.06,1.26,1.26,0,0,0-.6.24.48.48,0,0,0-.21.48l.07.44a.33.33,0,0,0,.19.23.6.6,0,0,0,.38,0,.69.69,0,0,0,.34-.17.29.29,0,0,0,.11-.28.33.33,0,0,0-.19-.23.65.65,0,0,0-.37,0l-.12,0,0-.12a.26.26,0,0,1,.14-.25.7.7,0,0,1,.33-.13,1.23,1.23,0,0,1,.38,0c.15,0,.24.09.25.19l.14.82.4-.07-.23-1.36A.49.49,0,0,0,34.48,60.39ZM33.5,62a.22.22,0,0,1,.14-.08.27.27,0,0,1,.16,0,.16.16,0,0,1,.09.11.16.16,0,0,1,0,.12.28.28,0,0,1-.15.08.22.22,0,0,1-.16,0,.13.13,0,0,1-.08-.1A.12.12,0,0,1,33.5,62Z" transform="translate(-12.57)"/><path class="cls-2" d="M36.82,59.7a1.29,1.29,0,0,0-.63.07,1.06,1.06,0,0,0-.54.37.6.6,0,0,0-.09.52l.37-.13a.32.32,0,0,1,0-.3.62.62,0,0,1,.3-.22.73.73,0,0,1,.35,0,.27.27,0,0,1,.19.17l.45,1.33.38-.13L37.19,60A.45.45,0,0,0,36.82,59.7Z" transform="translate(-12.57)"/><path class="cls-2" d="M39.24,58.37a.49.49,0,0,0-.29.49l.1.93c0,.19,0,.35.07.5a2.77,2.77,0,0,0-.18-.48l-.35-.63a.34.34,0,0,0-.26-.18.6.6,0,0,0-.38.08.62.62,0,0,0-.25.26.35.35,0,0,0,0,.3.34.34,0,0,0,.26.16.53.53,0,0,0,.36-.08l.09-.06.6,1.09.4-.22-.11-1.81a.11.11,0,0,1,.06-.12c.06,0,.11,0,.16.09l.75,1.36.36-.19-.75-1.36C39.74,58.26,39.53,58.22,39.24,58.37Zm-.92,1.06a.25.25,0,0,1-.11.12.23.23,0,0,1-.16,0,.14.14,0,0,1-.11-.07s0-.08,0-.13a.25.25,0,0,1,.11-.12.23.23,0,0,1,.16,0,.12.12,0,0,1,.11.07A.1.1,0,0,1,38.32,59.43Z" transform="translate(-12.57)"/><path class="cls-2" d="M42.17,56.92a.49.49,0,0,0-.56-.14,1.73,1.73,0,0,0-.63.36c-.48.4-.64.74-.48,1l.3-.25c-.07-.14.05-.34.37-.61a1.38,1.38,0,0,1,.36-.21.28.28,0,0,1,.31.06l.59.71c.11.14,0,.31-.25.54s-.46.27-.57.14l-.09-.11.08-.06a.57.57,0,0,0,.2-.3.29.29,0,0,0,0-.29.29.29,0,0,0-.27-.11.67.67,0,0,0-.34.14.58.58,0,0,0-.21.33.38.38,0,0,0,.08.31l.31.37a.38.38,0,0,0,.46.1,1.42,1.42,0,0,0,.56-.32,1.51,1.51,0,0,0,.42-.48.4.4,0,0,0,0-.48Zm-.7,1.31a.2.2,0,0,1-.15.06.13.13,0,0,1-.12,0,.12.12,0,0,1,0-.13.2.2,0,0,1,.09-.13.26.26,0,0,1,.15-.07.17.17,0,0,1,.12.05.12.12,0,0,1,0,.13A.22.22,0,0,1,41.47,58.23Z" transform="translate(-12.57)"/><path class="cls-2" d="M43.27,55a.62.62,0,0,0-.33.22.55.55,0,0,0-.14.32.34.34,0,0,0,.1.28.32.32,0,0,0,.29.07.57.57,0,0,0,.3-.2.54.54,0,0,0,.07-.09l.62.55-1.24.19v.32l1.57-.24.26-.3-1.17-1A.36.36,0,0,0,43.27,55Zm.07.56a.24.24,0,0,1-.14.09.14.14,0,0,1-.13,0,.13.13,0,0,1,0-.12.26.26,0,0,1,.07-.15.24.24,0,0,1,.14-.09.14.14,0,0,1,.13,0,.13.13,0,0,1,0,.12A.2.2,0,0,1,43.34,55.58Z" transform="translate(-12.57)"/><path class="cls-2" d="M44.93,52.85a.63.63,0,0,0-.17-.46l-.24.39a.24.24,0,0,1,.11.25,1.65,1.65,0,0,0-.33.37,1.33,1.33,0,0,0-.23.75.6.6,0,0,0,.28.56,1.2,1.2,0,0,0,.41.14,1.3,1.3,0,0,1,.48.17l.26.16.21-.34a2.31,2.31,0,0,1-.67-.65.52.52,0,0,0,.23-.21.47.47,0,0,0,.08-.3.25.25,0,0,0-.11-.23.27.27,0,0,0-.26,0,.49.49,0,0,0-.24.21.57.57,0,0,0-.07.43.78.78,0,0,0,.19.34l.1.11.08.07-.11-.07-.2-.09-.16-.07a.43.43,0,0,1-.19-.33.66.66,0,0,1,.12-.47.89.89,0,0,1,.32-.32.34.34,0,0,1,.35,0l1.11.7.22-.34-1.11-.7A.56.56,0,0,0,44.93,52.85ZM45,54a.14.14,0,0,1-.11,0,.11.11,0,0,1-.06-.11.19.19,0,0,1,0-.14.22.22,0,0,1,.12-.09.13.13,0,0,1,.12,0,.17.17,0,0,1,.06.11.3.3,0,0,1-.05.14A.21.21,0,0,1,45,54Z" transform="translate(-12.57)"/><path class="cls-2" d="M43.62,54.1a5.79,5.79,0,0,1,.25-.57,6.12,6.12,0,0,1,.84-1.23.87.87,0,0,0-.48,0,.33.33,0,0,0,0-.22.21.21,0,0,0-.12-.14.24.24,0,0,0-.23,0,.45.45,0,0,0-.2.21.48.48,0,0,0-.05.26.29.29,0,0,0,.11.19,1.58,1.58,0,0,0-.26.38Q43.08,53.74,43.62,54.1Zm.19-1.9a.18.18,0,0,1,.09-.1.11.11,0,0,1,.11,0,.08.08,0,0,1,.06.09.2.2,0,0,1,0,.13.22.22,0,0,1-.09.1.14.14,0,0,1-.11,0,.13.13,0,0,1-.07-.1A.19.19,0,0,1,43.81,52.2Zm-.27,1.19a1.08,1.08,0,0,1,.12-.39,1,1,0,0,1,.3-.35.42.42,0,0,1,.31-.1,4.77,4.77,0,0,0-.52.8,3.16,3.16,0,0,0-.14.32A.47.47,0,0,1,43.54,53.39Z" transform="translate(-12.57)"/><path class="cls-2" d="M46,50.26a1.27,1.27,0,0,0-.45.62,1.31,1.31,0,0,0-.09.71.6.6,0,0,0,.35.47.7.7,0,0,1,.2-.35.36.36,0,0,0,.19.37l.86.33.14-.37-.83-.33c-.13-.05-.19-.19-.2-.44a.63.63,0,0,0-.36.33.71.71,0,0,1,0-.64.74.74,0,0,1,.27-.36.36.36,0,0,1,.35,0l1.19.46.15-.37-1.19-.47A.57.57,0,0,0,46,50.26Z" transform="translate(-12.57)"/><path class="cls-2" d="M48.13,47.15l-.42-.07a1.15,1.15,0,0,0-.2-.43l-.2.19a.58.58,0,0,1,.15.19l-.79-.15-.07.4.95.18a2,2,0,0,1,0,.34.23.23,0,0,0-.19-.18.28.28,0,0,0-.24.08A.47.47,0,0,0,47,48a.54.54,0,0,0,0,.34.31.31,0,0,0,.21.16c.26,0,.44-.19.53-.71a1.12,1.12,0,0,0,0-.27l.28,0c.07,0,.11.07.14.18a1.19,1.19,0,0,1,0,.45,1.08,1.08,0,0,1-.14.42c-.07.09-.13.13-.19.12l-1.11-.21a.32.32,0,0,0-.3.1.53.53,0,0,0-.17.34.49.49,0,0,0,0,.36.3.3,0,0,0,.22.19.3.3,0,0,0,.28-.09.59.59,0,0,0,.18-.33A.49.49,0,0,1,47,49l.79.15c.31.06.52-.24.65-.9S48.44,47.21,48.13,47.15Zm-.72.93a.27.27,0,0,1-.07.13.13.13,0,0,1-.12,0,.11.11,0,0,1-.09-.07.24.24,0,0,1,0-.15.33.33,0,0,1,.07-.13.13.13,0,0,1,.12,0,.13.13,0,0,1,.09.07A.24.24,0,0,1,47.41,48.08Zm-.64,1a.28.28,0,0,1-.08.15.12.12,0,0,1-.12,0,.15.15,0,0,1-.11-.08.32.32,0,0,1,0-.17.39.39,0,0,1,.08-.14.13.13,0,0,1,.13,0,.15.15,0,0,1,.1.08A.3.3,0,0,1,46.77,49Z" transform="translate(-12.57)"/><path class="cls-2" d="M46.82,44.76a1.28,1.28,0,0,0-.14.61,1,1,0,0,0,.16.63.6.6,0,0,0,.45.27v-.39a.37.37,0,0,1-.27-.15.56.56,0,0,1-.1-.35A.55.55,0,0,1,47,45a.26.26,0,0,1,.22-.12l1.4,0v-.4l-1.41,0A.45.45,0,0,0,46.82,44.76Z" transform="translate(-12.57)"/><path class="cls-1" d="M50.06,44.18h0a19.19,19.19,0,0,0-.4-3.19c-.16-.73-.39-.92-1.18-1a.3.3,0,0,1-.17-.08c-.35-.61-.83-.69-1.5-1.08l-.13-.07a.48.48,0,0,0-.11.08,5.1,5.1,0,0,0-.77.64,2.21,2.21,0,0,0-.34.43,1.75,1.75,0,0,0-.17.4l-.37.1a1.06,1.06,0,0,0-.76,1.36,16.16,16.16,0,0,1,.38,2.48h0c0,.32,0,.65,0,1a13.25,13.25,0,0,1-26.5,0c0-.15,0-.29,0-.43h0a15.67,15.67,0,0,1,.42-3,1.06,1.06,0,0,0-.77-1.36l-.37-.11a2.52,2.52,0,0,0-.16-.4,2.28,2.28,0,0,0-.35-.43,5.1,5.1,0,0,0-.77-.64L16,38.75l-.13.07c-.67.39-1.16.48-1.51,1.08,0,.05-.11.08-.17.09-.79.06-1,.26-1.18,1a19.31,19.31,0,0,0-.4,3.2h0c0,.35,0,.7,0,1.06a18.76,18.76,0,0,0,37.52,0C50.09,44.88,50.08,44.53,50.06,44.18ZM43.47,53a1.58,1.58,0,0,1,.26-.38.29.29,0,0,1-.11-.19.48.48,0,0,1,.05-.26.45.45,0,0,1,.2-.21.24.24,0,0,1,.23,0,.21.21,0,0,1,.12.14.33.33,0,0,1,0,.22.87.87,0,0,1,.48,0,6.12,6.12,0,0,0-.84,1.23,5.79,5.79,0,0,0-.25.57Q43.08,53.74,43.47,53ZM18.6,52a1.27,1.27,0,0,1,.26.72l.28-.18.22.32-.73.5-.05,0a6.59,6.59,0,0,0-.67-1.33c-.12-.17-.24-.34-.37-.5C17.92,51.41,18.28,51.55,18.6,52Zm-4.54-5.92a.61.61,0,0,1-.11-.35.56.56,0,0,1,.1-.37.37.37,0,0,1,.28-.16l1.91,0c.11,0,.2-.13.26-.33a2,2,0,0,0,.06-.23,1.13,1.13,0,0,0,0-.26.52.52,0,0,1,.5.31h0a.88.88,0,0,1,.05.15v0s0,0,0,.07V45a.93.93,0,0,1-.07.38,1,1,0,0,0-.07.3c0,.05.05.09.14.14l-.05.3q-.33-.12-.33-.39a1.18,1.18,0,0,1,.07-.35,1,1,0,0,0,.07-.38c0-.15,0-.25-.12-.29-.1.57-.28.85-.55.86l-1.55,0s0,.06,0,.12a.6.6,0,0,1-.1.35.31.31,0,0,1-.26.15A.33.33,0,0,1,14.06,46.11Zm.22,2a.57.57,0,0,1-.16-.34.74.74,0,0,1,.06-.37.36.36,0,0,1,.24-.18.33.33,0,0,1,.28.11.63.63,0,0,1,.15.34.46.46,0,0,1,0,.1l.41-.06q.08,0,.09-.45c0-.29,0-.56,0-.79a.58.58,0,0,1,.45.13.73.73,0,0,1,.23.48,2.35,2.35,0,0,1,0,.38,2.93,2.93,0,0,0,0,.34.11.11,0,0,0,.12.11l0,.32a.42.42,0,0,1-.35-.38,1.88,1.88,0,0,1,0-.34c0-.15,0-.26,0-.33s-.1-.29-.21-.3c0,.34,0,.62,0,.85s-.11.36-.25.38l-.75.11A.33.33,0,0,1,14.28,48.09Zm.47,2.23.63-1.45.27.18-.51,1.15.8-.23a.49.49,0,0,1,0-.12.52.52,0,0,1,0-.35.32.32,0,0,1,.2-.21.34.34,0,0,1,.3.07.53.53,0,0,1,.19.29.61.61,0,0,1,0,.4.36.36,0,0,1-.23.22l-1.51.44Zm1.36,1.91a.32.32,0,0,1-.19.24.31.31,0,0,1-.29,0,.6.6,0,0,1-.24-.28.57.57,0,0,1,0-.38.32.32,0,0,1,.2-.25L17,50.91l.16.37L16,51.77a.64.64,0,0,1,.06.1A.66.66,0,0,1,16.11,52.23Zm.45,2a.53.53,0,0,1-.26-.25.65.65,0,0,1-.09-.37.34.34,0,0,1,.16-.25.3.3,0,0,1,.29,0,.59.59,0,0,1,.27.25l.05.09.36-.2s0-.18-.09-.46-.19-.52-.28-.74a.58.58,0,0,1,.46,0,.71.71,0,0,1,.39.36,1.51,1.51,0,0,1,.15.35,1.56,1.56,0,0,0,.13.32.11.11,0,0,0,.15,0l.11.31a.43.43,0,0,1-.47-.23,2.06,2.06,0,0,1-.13-.31,2.06,2.06,0,0,0-.13-.31c-.09-.16-.19-.23-.3-.2.12.32.21.59.28.81s0,.38-.1.45l-.65.37A.32.32,0,0,1,16.56,54.19Zm1.3,2c-.41-.49-.48-.85-.21-1.07l.18-.14a.33.33,0,0,1,.42,0,.47.47,0,0,1,.15-.51.42.42,0,0,1,.37-.1.61.61,0,0,1,.38.25.6.6,0,0,1,.15.31.27.27,0,0,1-.35.3.46.46,0,0,1-.28-.19.44.44,0,0,1-.1-.15.23.23,0,0,0,0,.3l.29.35-.18.15-.3-.35a.18.18,0,0,0-.16-.09.19.19,0,0,0-.16,0l-.17.14c-.13.11-.08.3.15.59s.43.38.56.27l1.12-.92.25.31-1.11.91C18.6,56.81,18.26,56.68,17.86,56.18Zm3.68,2.25a.29.29,0,0,1-.28.12.34.34,0,0,1,0,.41.28.28,0,0,1-.27.1.61.61,0,0,1-.33-.14.56.56,0,0,1-.19-.28.34.34,0,0,1,0-.28l-.3-.1a1.18,1.18,0,0,0-.3,0L19.56,58l.8-1L20.27,57a.59.59,0,0,1-.2-.31.38.38,0,0,1,.06-.3.34.34,0,0,1,.28-.1.58.58,0,0,1,.33.15.51.51,0,0,1,.21.32.32.32,0,0,1-.07.31l-.79.93a3.23,3.23,0,0,1,.47.17,1.41,1.41,0,0,0,.47.14.29.29,0,0,0,.22-.12l.63-.74.31.26Zm1.48,2c-.55-.3-.75-.6-.6-.87l.4-.7-.11,0a.62.62,0,0,1-.25-.26.31.31,0,0,1,.25-.46.59.59,0,0,1,.36.08.56.56,0,0,1,.27.28.34.34,0,0,1,0,.31l-.56,1c0,.06,0,.13.08.22a1.14,1.14,0,0,0,.3.23,1.33,1.33,0,0,0,.35.13c.12,0,.19,0,.22,0l1.11-2,.35.2-1.1,2C23.93,60.79,23.57,60.77,23,60.46Zm3.81,0-.46,1.33L26,61.7l.46-1.33a.28.28,0,0,0-.05-.25.64.64,0,0,0-.29-.19.53.53,0,0,0-.37,0,.31.31,0,0,0-.22.21L25.15,60a.55.55,0,0,1,.39-.35,1.06,1.06,0,0,1,.65,0,1.31,1.31,0,0,1,.54.33A.45.45,0,0,1,26.83,60.5Zm2.27.31-.29,1.55-.39-.07-1-1.22.28-.16.8,1,.16-.82h-.13a.65.65,0,0,1-.32-.16.34.34,0,0,1-.09-.28.33.33,0,0,1,.19-.23.6.6,0,0,1,.35-.05.68.68,0,0,1,.36.18A.34.34,0,0,1,29.1,60.81Zm2.81.43,0,1.3h-.41l0-1.31a.34.34,0,0,0-.19-.3,1,1,0,0,0-.44-.11.71.71,0,0,0-.47.14.41.41,0,0,0-.18.33s0,.1,0,.18a.89.89,0,0,1,0,.22v.12a.58.58,0,0,1,0-.1,1,1,0,0,0,0-.14.89.89,0,0,1,.21-.34.57.57,0,0,1,.4-.16.47.47,0,0,1,.3.1.23.23,0,0,1,.12.22.25.25,0,0,1-.13.22.54.54,0,0,1-.31.09.59.59,0,0,1-.29-.1,2.1,2.1,0,0,0-.21.92H30v-.31a1.39,1.39,0,0,0-.1-.5,1.17,1.17,0,0,1-.09-.42.6.6,0,0,1,.33-.53,1.32,1.32,0,0,1,.76-.18,1.37,1.37,0,0,1,.49.09.25.25,0,0,0,.16-.23H32a.61.61,0,0,1-.3.38A.52.52,0,0,1,31.91,61.24Zm-1.33-1c-.2,0-.41,0-.61.07,0-.43.32-.67.9-.71a1.29,1.29,0,0,1,.81.17.93.93,0,0,1,.39.56A6.53,6.53,0,0,0,30.58,60.25Zm4.13,2-.14-.82c0-.1-.1-.16-.25-.19a1.23,1.23,0,0,0-.38,0,.7.7,0,0,0-.33.13.26.26,0,0,0-.14.25l0,.12.12,0a.65.65,0,0,1,.37,0,.33.33,0,0,1,.19.23.29.29,0,0,1-.11.28.69.69,0,0,1-.34.17.6.6,0,0,1-.38,0,.33.33,0,0,1-.19-.23l-.07-.44a.48.48,0,0,1,.21-.48,1.26,1.26,0,0,1,.6-.24.9.9,0,0,1,.63.06l0-.21c0-.1-.11-.17-.27-.19a1.13,1.13,0,0,0-.41,0,1,1,0,0,0-.42.16.36.36,0,0,0-.19.29l-.39.07a.58.58,0,0,1,.27-.51,1.55,1.55,0,0,1,.7-.26,1.53,1.53,0,0,1,.71,0,.49.49,0,0,1,.4.38l.23,1.36Zm2.55-.72-.45-1.33a.27.27,0,0,0-.19-.17.73.73,0,0,0-.35,0,.62.62,0,0,0-.3.22.32.32,0,0,0,0,.3l-.37.13a.6.6,0,0,1,.09-.52,1.06,1.06,0,0,1,.54-.37,1.29,1.29,0,0,1,.63-.07.45.45,0,0,1,.37.32l.45,1.33Zm3-1.43-.75-1.36c0-.09-.1-.12-.16-.09a.11.11,0,0,0-.06.12l.11,1.81-.4.22-.6-1.09-.09.06a.53.53,0,0,1-.36.08.34.34,0,0,1-.26-.16.35.35,0,0,1,0-.3.62.62,0,0,1,.25-.26.6.6,0,0,1,.38-.08.34.34,0,0,1,.26.18l.35.63a2.77,2.77,0,0,1,.18.48c0-.15,0-.31-.07-.5l-.1-.93a.49.49,0,0,1,.29-.49c.29-.15.5-.11.63.13l.75,1.36Zm2.5-1.92a1.51,1.51,0,0,1-.42.48,1.42,1.42,0,0,1-.56.32.38.38,0,0,1-.46-.1L41,58.46a.38.38,0,0,1-.08-.31.58.58,0,0,1,.21-.33.67.67,0,0,1,.34-.14.29.29,0,0,1,.27.11.29.29,0,0,1,0,.29.57.57,0,0,1-.2.3l-.08.06.09.11c.11.13.3.08.57-.14s.36-.4.25-.54l-.59-.71a.28.28,0,0,0-.31-.06,1.38,1.38,0,0,0-.36.21c-.32.27-.44.47-.37.61l-.3.25c-.16-.29,0-.63.48-1a1.73,1.73,0,0,1,.63-.36.49.49,0,0,1,.56.14l.6.73A.4.4,0,0,1,42.76,58.13Zm1.74-1.69-1.57.24v-.32l1.24-.19-.62-.55a.54.54,0,0,1-.07.09.57.57,0,0,1-.3.2.32.32,0,0,1-.29-.07.34.34,0,0,1-.1-.28.55.55,0,0,1,.14-.32.62.62,0,0,1,.33-.22.36.36,0,0,1,.32.08l1.17,1Zm1.78-2.5-1.11-.7a.34.34,0,0,0-.35,0,.89.89,0,0,0-.32.32.66.66,0,0,0-.12.47.43.43,0,0,0,.19.33l.16.07.2.09.11.07L45,54.53l-.1-.11a.78.78,0,0,1-.19-.34.57.57,0,0,1,.07-.43.49.49,0,0,1,.24-.21.27.27,0,0,1,.26,0,.25.25,0,0,1,.11.23.47.47,0,0,1-.08.3.52.52,0,0,1-.23.21,2.31,2.31,0,0,0,.67.65l-.21.34L45.24,55a1.3,1.3,0,0,0-.48-.17,1.2,1.2,0,0,1-.41-.14.6.6,0,0,1-.28-.56,1.33,1.33,0,0,1,.23-.75,1.65,1.65,0,0,1,.33-.37.24.24,0,0,0-.11-.25l.24-.39a.63.63,0,0,1,.17.46.56.56,0,0,1,.46,0l1.11.7ZM47.64,51l-1.19-.46a.36.36,0,0,0-.35,0,.74.74,0,0,0-.27.36.71.71,0,0,0,0,.64.63.63,0,0,1,.36-.33c0,.25.07.39.2.44l.83.33-.14.37-.86-.33a.36.36,0,0,1-.19-.37.7.7,0,0,0-.2.35.6.6,0,0,1-.35-.47,1.31,1.31,0,0,1,.09-.71,1.27,1.27,0,0,1,.45-.62.57.57,0,0,1,.56-.07l1.19.47Zm.78-2.81c-.13.66-.34,1-.65.9L47,49a.49.49,0,0,0,0,.11.59.59,0,0,1-.18.33.3.3,0,0,1-.28.09.3.3,0,0,1-.22-.19.49.49,0,0,1,0-.36.53.53,0,0,1,.17-.34.32.32,0,0,1,.3-.1l1.11.21c.06,0,.12,0,.19-.12a1.08,1.08,0,0,0,.14-.42,1.19,1.19,0,0,0,0-.45c0-.11-.07-.17-.14-.18l-.28,0a1.12,1.12,0,0,1,0,.27c-.09.52-.27.75-.53.71a.31.31,0,0,1-.21-.16A.54.54,0,0,1,47,48a.47.47,0,0,1,.14-.28.28.28,0,0,1,.24-.08.23.23,0,0,1,.19.18,2,2,0,0,0,0-.34l-.95-.18.07-.4.79.15a.58.58,0,0,0-.15-.19l.2-.19a1.15,1.15,0,0,1,.2.43l.42.07C48.44,47.21,48.54,47.57,48.42,48.22Zm.22-3.28-1.4,0A.26.26,0,0,0,47,45a.55.55,0,0,0-.09.34.56.56,0,0,0,.1.35.37.37,0,0,0,.27.15v.39a.6.6,0,0,1-.45-.27,1,1,0,0,1-.16-.63,1.28,1.28,0,0,1,.14-.61.45.45,0,0,1,.42-.24l1.41,0Z" transform="translate(-12.57)"/><path class="cls-1" d="M33.45,62.07a.13.13,0,0,0,.08.1.22.22,0,0,0,.16,0,.28.28,0,0,0,.15-.08.16.16,0,0,0,0-.12.16.16,0,0,0-.09-.11.27.27,0,0,0-.16,0,.22.22,0,0,0-.14.08A.12.12,0,0,0,33.45,62.07Z" transform="translate(-12.57)"/><path class="cls-1" d="M23,58.7a.16.16,0,0,0,.12-.07.15.15,0,0,0,0-.13.28.28,0,0,0-.12-.12.29.29,0,0,0-.16,0,.14.14,0,0,0-.11.07.17.17,0,0,0,0,.14.23.23,0,0,0,.11.11A.34.34,0,0,0,23,58.7Z" transform="translate(-12.57)"/><path class="cls-1" d="M20.4,56.79a.34.34,0,0,0,.15.07.13.13,0,0,0,.15-.18.24.24,0,0,0-.09-.14.2.2,0,0,0-.15-.06.13.13,0,0,0-.12,0,.15.15,0,0,0,0,.13A.22.22,0,0,0,20.4,56.79Z" transform="translate(-12.57)"/><path class="cls-1" d="M21,58.51a.2.2,0,0,0-.15-.06.13.13,0,0,0-.12,0,.17.17,0,0,0,0,.14.38.38,0,0,0,.09.13.34.34,0,0,0,.15.07.17.17,0,0,0,.13,0,.14.14,0,0,0,0-.13A.24.24,0,0,0,21,58.51Z" transform="translate(-12.57)"/><path class="cls-1" d="M31.38,59.88a.83.83,0,0,0-.45-.08.93.93,0,0,0-.39.1.38.38,0,0,0-.21.2l.35-.05a5,5,0,0,1,.95,0A.45.45,0,0,0,31.38,59.88Z" transform="translate(-12.57)"/><path class="cls-1" d="M30.78,61.47a.22.22,0,0,0,.14.05.21.21,0,0,0,.14,0,.12.12,0,0,0,.06-.1.1.1,0,0,0-.05-.11.24.24,0,0,0-.14-.05.2.2,0,0,0-.14,0,.14.14,0,0,0-.06.11A.11.11,0,0,0,30.78,61.47Z" transform="translate(-12.57)"/><path class="cls-1" d="M28.62,60.53a.21.21,0,0,0-.16,0,.15.15,0,0,0-.09.1.17.17,0,0,0,0,.13.26.26,0,0,0,.15.07.22.22,0,0,0,.16,0,.15.15,0,0,0,.09-.1.15.15,0,0,0,0-.12A.22.22,0,0,0,28.62,60.53Z" transform="translate(-12.57)"/><path class="cls-1" d="M18.92,55A.12.12,0,0,0,19,55a.09.09,0,0,0,.05-.11.24.24,0,0,0-.06-.15.26.26,0,0,0-.13-.08.11.11,0,0,0-.12,0,.17.17,0,0,0-.05.12.22.22,0,0,0,.06.14A.22.22,0,0,0,18.92,55Z" transform="translate(-12.57)"/><path class="cls-1" d="M43.75,53.35a4.77,4.77,0,0,1,.52-.8.42.42,0,0,0-.31.1,1,1,0,0,0-.3.35,1.08,1.08,0,0,0-.12.39.47.47,0,0,0,.07.28A3.16,3.16,0,0,1,43.75,53.35Z" transform="translate(-12.57)"/><path class="cls-1" d="M14.43,45.91a.3.3,0,0,0,.05-.16.25.25,0,0,0-.05-.15.15.15,0,0,0-.12-.07c-.05,0-.08,0-.12.07a.27.27,0,0,0,0,.16.25.25,0,0,0,0,.15.13.13,0,0,0,.12.07A.15.15,0,0,0,14.43,45.91Z" transform="translate(-12.57)"/><path class="cls-1" d="M18.58,52.93a.42.42,0,0,0,.05-.32.75.75,0,0,0-.16-.42,1,1,0,0,0-.28-.3.34.34,0,0,0-.28-.07,1.14,1.14,0,0,1,.21.27A4.92,4.92,0,0,1,18.58,52.93Z" transform="translate(-12.57)"/><path class="cls-1" d="M43.85,52.43a.14.14,0,0,0,.11,0,.22.22,0,0,0,.09-.1.2.2,0,0,0,0-.13A.08.08,0,0,0,44,52.1a.11.11,0,0,0-.11,0,.18.18,0,0,0-.09.1.19.19,0,0,0,0,.13A.13.13,0,0,0,43.85,52.43Z" transform="translate(-12.57)"/><path class="cls-1" d="M16.4,49.71a.22.22,0,0,0-.08-.14.17.17,0,0,0-.13,0,.13.13,0,0,0-.1.1.22.22,0,0,0,0,.16.34.34,0,0,0,.09.14.16.16,0,0,0,.13,0,.18.18,0,0,0,.09-.1A.22.22,0,0,0,16.4,49.71Z" transform="translate(-12.57)"/><path class="cls-1" d="M15.77,51.83a.15.15,0,0,0-.13,0,.15.15,0,0,0-.08.11.23.23,0,0,0,0,.16.27.27,0,0,0,.1.13.17.17,0,0,0,.14,0,.16.16,0,0,0,.08-.1.33.33,0,0,0,0-.17A.25.25,0,0,0,15.77,51.83Z" transform="translate(-12.57)"/><path class="cls-1" d="M16.64,53.56a.17.17,0,0,0-.14,0,.14.14,0,0,0-.06.12.24.24,0,0,0,0,.16.25.25,0,0,0,.12.11.15.15,0,0,0,.13,0,.16.16,0,0,0,.07-.12.24.24,0,0,0,0-.16A.25.25,0,0,0,16.64,53.56Z" transform="translate(-12.57)"/><path class="cls-1" d="M14.58,47.53a.13.13,0,0,0-.12-.05.15.15,0,0,0-.11.08.29.29,0,0,0,0,.16.25.25,0,0,0,.06.15.17.17,0,0,0,.13.05.16.16,0,0,0,.1-.08.22.22,0,0,0,0-.16A.26.26,0,0,0,14.58,47.53Z" transform="translate(-12.57)"/><path class="cls-1" d="M41.54,58a.17.17,0,0,0-.12-.05.26.26,0,0,0-.15.07.2.2,0,0,0-.09.13.12.12,0,0,0,0,.13.13.13,0,0,0,.12,0,.2.2,0,0,0,.15-.06.22.22,0,0,0,.09-.14A.12.12,0,0,0,41.54,58Z" transform="translate(-12.57)"/><path class="cls-1" d="M38.21,59.23a.23.23,0,0,0-.16,0,.25.25,0,0,0-.11.12s0,.09,0,.13a.14.14,0,0,0,.11.07.23.23,0,0,0,.16,0,.25.25,0,0,0,.11-.12.1.1,0,0,0,0-.13A.12.12,0,0,0,38.21,59.23Z" transform="translate(-12.57)"/><path class="cls-1" d="M47.3,47.86a.13.13,0,0,0-.12,0,.33.33,0,0,0-.07.13.24.24,0,0,0,0,.15.11.11,0,0,0,.09.07.13.13,0,0,0,.12,0,.27.27,0,0,0,.07-.13.24.24,0,0,0,0-.15A.13.13,0,0,0,47.3,47.86Z" transform="translate(-12.57)"/><path class="cls-1" d="M43.23,55.28a.24.24,0,0,0-.14.09.26.26,0,0,0-.07.15.13.13,0,0,0,0,.12.14.14,0,0,0,.13,0,.24.24,0,0,0,.14-.09.2.2,0,0,0,.06-.15.13.13,0,0,0,0-.12A.14.14,0,0,0,43.23,55.28Z" transform="translate(-12.57)"/><path class="cls-1" d="M46.65,48.8a.13.13,0,0,0-.13,0,.39.39,0,0,0-.08.14.32.32,0,0,0,0,.17.15.15,0,0,0,.11.08.12.12,0,0,0,.12,0,.28.28,0,0,0,.08-.15.3.3,0,0,0,0-.16A.15.15,0,0,0,46.65,48.8Z" transform="translate(-12.57)"/><path class="cls-1" d="M45.12,53.9a.3.3,0,0,0,.05-.14.17.17,0,0,0-.06-.11.13.13,0,0,0-.12,0,.22.22,0,0,0-.12.09.19.19,0,0,0,0,.14.11.11,0,0,0,.06.11A.14.14,0,0,0,45,54,.21.21,0,0,0,45.12,53.9Z" transform="translate(-12.57)"/><path class="cls-1" d="M64.09,19.59a1,1,0,0,1-.39.91,2,2,0,0,1-1.09.26,5.9,5.9,0,0,1-1.32-.13c-.39-.09-.83-.21-1.34-.36a14.43,14.43,0,0,0-1.44-.38,6.57,6.57,0,0,0-1.31-.12,3.73,3.73,0,0,0-2.09.5,2.67,2.67,0,0,0-1.06,1.5,13.93,13.93,0,0,1,6.66,1.62l.15.41a1.62,1.62,0,0,0-.4.68,4.26,4.26,0,0,0-.12,1.17V37a3.9,3.9,0,0,1-.23,1.48,2.24,2.24,0,0,1,2.21,2.31,2.33,2.33,0,0,1-.75,1.77,2.69,2.69,0,0,1-1.9.7,2.55,2.55,0,0,1-1.84-.69,2.47,2.47,0,0,1-.71-1.86,2.75,2.75,0,0,1,.12-.84,6.39,6.39,0,0,1,.43-1,4.74,4.74,0,0,0,.42-1.17,7.62,7.62,0,0,0,.12-1.55V25.75a4.19,4.19,0,0,1,.09-.93,1.71,1.71,0,0,1,.38-.73,20.81,20.81,0,0,0-6.53-.89L52,22.79a5.49,5.49,0,0,1,1.53-3.47,4.89,4.89,0,0,1,3.41-1.11,8.16,8.16,0,0,1,1.53.13q.63.14,1.56.42c.49.15.92.28,1.3.36a5.72,5.72,0,0,0,1.3.13,4,4,0,0,0,1.3-.21A.88.88,0,0,1,64.09,19.59ZM60.59,40A1.16,1.16,0,0,0,59,40a1.32,1.32,0,0,0,0,1.72,1.18,1.18,0,0,0,1.64,0,1.29,1.29,0,0,0,0-1.72Z" transform="translate(-12.57)"/><path class="cls-1" d="M65.65,31.19a13.31,13.31,0,0,1,6,1.61l.15.41a1.68,1.68,0,0,0-.4.68,4.26,4.26,0,0,0-.12,1.17V40.7a2.46,2.46,0,0,1-.74,1.87,2.55,2.55,0,0,1-1.88.73,2.61,2.61,0,0,1-1.84-.69,2.4,2.4,0,0,1-.06-3.41,2.23,2.23,0,0,1,1.66-.68,2,2,0,0,1,.78.15,3.79,3.79,0,0,1-.05-.7V35.16a4.19,4.19,0,0,1,.09-.93,1.77,1.77,0,0,1,.38-.73,18.66,18.66,0,0,0-5.93-.88l-.15-.42a4.39,4.39,0,0,1,1.31-2.85,3.58,3.58,0,0,1,2.4-.87,4.29,4.29,0,0,1,1.07.13,10.67,10.67,0,0,1,1.09.39,7.06,7.06,0,0,0,1,.39,3.68,3.68,0,0,0,1,.13,4,4,0,0,0,1.3-.21.88.88,0,0,1,.16.55,1,1,0,0,1-.39.91,2,2,0,0,1-1.09.26,3.87,3.87,0,0,1-1.07-.13,10.67,10.67,0,0,1-1.09-.39c-.4-.16-.73-.27-1-.35a2.66,2.66,0,0,0-.82-.12A1.85,1.85,0,0,0,65.65,31.19Zm3.78,10.53a1.29,1.29,0,0,0,0-1.72,1.16,1.16,0,0,0-1.64,0,1.32,1.32,0,0,0,0,1.72,1.18,1.18,0,0,0,1.64,0Z" transform="translate(-12.57)"/><path class="cls-1" d="M83.05,29.31a2.51,2.51,0,0,1,.75,1.88v7.69a9.23,9.23,0,0,1-.45,3.3,1.75,1.75,0,0,1-1.82,1.12,4,4,0,0,1-.85-.13,3.51,3.51,0,0,0-.68-.1c-.81-2.06-2-4.5-3.39-7.31a37.13,37.13,0,0,0-3.81-6.21,1,1,0,0,1,.44-.61,1.25,1.25,0,0,1,.7-.22.81.81,0,0,1,.48.15,4.18,4.18,0,0,1,.59.6,32.29,32.29,0,0,1,3,4.89c1.17,2.2,2.27,4.57,3.33,7.12a11.46,11.46,0,0,0,.31-3.07V33.92a3.1,3.1,0,0,1,.06-.71,1.78,1.78,0,0,1-.78.16,2.24,2.24,0,0,1-1.67-.68A2.28,2.28,0,0,1,78.6,31a2.23,2.23,0,0,1,.74-1.72,2.79,2.79,0,0,1,3.71,0Zm-2.72,2.58a1.08,1.08,0,0,0,.81.34,1.1,1.1,0,0,0,.82-.34,1.29,1.29,0,0,0,0-1.72,1.1,1.1,0,0,0-.82-.34,1.08,1.08,0,0,0-.81.34,1.29,1.29,0,0,0,0,1.72Z" transform="translate(-12.57)"/><path class="cls-1" d="M92.63,39.2a2.4,2.4,0,0,1-.06,3.41,2.79,2.79,0,0,1-3.72,0,2.5,2.5,0,0,1-.74-1.87V30.22a1.68,1.68,0,0,1,.38-1.15,1.31,1.31,0,0,1,1.05-.43,2.32,2.32,0,0,1,.7.1V38a3.07,3.07,0,0,1,0,.7,2,2,0,0,1,.78-.15A2.22,2.22,0,0,1,92.63,39.2Zm-1,2.52a1.29,1.29,0,0,0,0-1.72,1.1,1.1,0,0,0-.82-.34,1.12,1.12,0,0,0-.82.34,1.32,1.32,0,0,0,0,1.72,1.11,1.11,0,0,0,.82.33A1.09,1.09,0,0,0,91.58,41.72Z" transform="translate(-12.57)"/><path class="cls-1" d="M96.59,31.19a13.31,13.31,0,0,1,6,1.61l.15.41a1.68,1.68,0,0,0-.4.68,4.26,4.26,0,0,0-.12,1.17V40.7a2.46,2.46,0,0,1-.74,1.87,2.55,2.55,0,0,1-1.88.73,2.61,2.61,0,0,1-1.84-.69,2.4,2.4,0,0,1-.06-3.41,2.22,2.22,0,0,1,1.66-.68,2,2,0,0,1,.78.15,3.79,3.79,0,0,1-.05-.7V35.16a4.19,4.19,0,0,1,.09-.93,1.77,1.77,0,0,1,.38-.73,18.7,18.7,0,0,0-5.93-.88l-.15-.42a4.39,4.39,0,0,1,1.31-2.85,3.58,3.58,0,0,1,2.4-.87,4.29,4.29,0,0,1,1.07.13,10.67,10.67,0,0,1,1.09.39,7.06,7.06,0,0,0,1,.39,3.68,3.68,0,0,0,1,.13,4.07,4.07,0,0,0,1.3-.21.88.88,0,0,1,.16.55,1,1,0,0,1-.39.91,2,2,0,0,1-1.1.26,3.85,3.85,0,0,1-1.06-.13,10.67,10.67,0,0,1-1.09-.39c-.4-.16-.73-.27-1-.35a2.66,2.66,0,0,0-.82-.12A1.85,1.85,0,0,0,96.59,31.19Zm3.78,10.53a1.29,1.29,0,0,0,0-1.72,1.16,1.16,0,0,0-1.64,0,1.32,1.32,0,0,0,0,1.72,1.18,1.18,0,0,0,1.64,0Z" transform="translate(-12.57)"/><path class="cls-1" d="M102.88,27l-10.77-1.8a4.29,4.29,0,0,1,.65-2.39,4.1,4.1,0,0,1,1.73-1.49,5.47,5.47,0,0,1,2.36-.51,5.61,5.61,0,0,1,3.12.91V21a1.47,1.47,0,0,1,.32-1,1.16,1.16,0,0,1,.9-.36,1.89,1.89,0,0,1,.6.1v3.77A6.08,6.08,0,0,1,102.88,27Zm-1.82-1.56a4,4,0,0,0-1.6-2.2,4.58,4.58,0,0,0-2.74-.87,2.77,2.77,0,0,0-1.81.53,2.45,2.45,0,0,0-.82,1.39Z" transform="translate(-12.57)"/><path class="cls-1" d="M117,40.81a4.48,4.48,0,0,0,.67,1.56l-.16.46c-.54,0-1.6.09-3.2.26a34.43,34.43,0,0,1-3.66.32,5.15,5.15,0,0,1-3.53-1A3.47,3.47,0,0,1,106,39.74a4,4,0,0,1,.6-2.22,3.88,3.88,0,0,1,1.67-1.42V36a3.57,3.57,0,0,1-2.42-3.57,3.86,3.86,0,0,1,1-2.76,3.19,3.19,0,0,1,2.44-1,2.92,2.92,0,0,1,2,.69,2.25,2.25,0,0,1,.8,1.78,2.3,2.3,0,0,1-.64,1.65,2.21,2.21,0,0,1-1.65.66,2,2,0,0,1-1.77-.91l0,.05a3,3,0,0,0,.58,1.73,2.05,2.05,0,0,0,1.73.69,3,3,0,0,0,1.95-.67,1.08,1.08,0,0,1,.44.88,1,1,0,0,1-.46.88,6.76,6.76,0,0,1-1.56.6c-1.62.47-2.42,1.41-2.42,2.81s.93,2.21,2.78,2.21c.24,0,.58,0,1,0l1-.08c.64-.07,1.31-.12,2-.16a11.31,11.31,0,0,1-.31-3V30.28a1.71,1.71,0,0,1,.38-1.16,1.31,1.31,0,0,1,1-.43,2.63,2.63,0,0,1,.7.1v9.62A13.1,13.1,0,0,0,117,40.81ZM108.6,30.22a1.17,1.17,0,0,0-.34.86,1.2,1.2,0,1,0,2.39,0,1.22,1.22,0,0,0-2.05-.86Z" transform="translate(-12.57)"/><path class="cls-1" d="M131.88,39.2a2.44,2.44,0,0,1,.48,1.5,2.4,2.4,0,0,1-.79,1.87,3.17,3.17,0,0,1-4,0,2.47,2.47,0,0,1-.8-1.86l-.21.15a32.26,32.26,0,0,1-2.84,1.93,3.38,3.38,0,0,1-1.63.44c-.14,0-.35,0-.63,0a4.07,4.07,0,0,0-.67-.05l-.16-.47a4.27,4.27,0,0,0,.66-1.59,12.62,12.62,0,0,0,.17-2.42V34.9a3.88,3.88,0,0,1,.24-1.48,2.24,2.24,0,0,1-2.21-2.31,2.33,2.33,0,0,1,.75-1.77,2.67,2.67,0,0,1,1.9-.7A2.59,2.59,0,0,1,124.55,32a10.53,10.53,0,0,1-.43,1,4.79,4.79,0,0,0-.43,1.17,7.67,7.67,0,0,0-.12,1.56v2.83a15.06,15.06,0,0,1-.18,2.57,25.88,25.88,0,0,0,2.16-1.43q1.31-.9,1.89-1.23a3.68,3.68,0,0,1,1.23-.43V30.28a1.71,1.71,0,0,1,.38-1.16,1.31,1.31,0,0,1,1-.43,2.69,2.69,0,0,1,.7.1v8.06a4,4,0,0,1-.21,1.41A2.62,2.62,0,0,1,131.88,39.2ZM121.2,31.94a1.15,1.15,0,0,0,1.63,0,1.17,1.17,0,0,0,.33-.86,1.2,1.2,0,0,0-.33-.86,1.17,1.17,0,0,0-1.63,0,1.2,1.2,0,0,0-.33.86A1.17,1.17,0,0,0,121.2,31.94Zm9.29,9.74a1.36,1.36,0,0,0,.36-1,1.34,1.34,0,0,0-.36-1,1.34,1.34,0,0,0-1.87,0,1.34,1.34,0,0,0-.37,1,1.37,1.37,0,0,0,.37,1,1.37,1.37,0,0,0,1.87,0Z" transform="translate(-12.57)"/><path class="cls-1" d="M145.67,23.54V38.93a4,4,0,0,1-1.39,3.33,6,6,0,0,1-3.94,1.15,15.55,15.55,0,0,1-2.78-.32,15,15,0,0,0-2.34-.26l-.15-.46a4.45,4.45,0,0,0,.66-1.56,13.1,13.1,0,0,0,.17-2.4V34.9a4.1,4.1,0,0,1,.23-1.48,2.24,2.24,0,0,1-2.21-2.31,2.3,2.3,0,0,1,.76-1.77,2.65,2.65,0,0,1,1.89-.7,2.39,2.39,0,0,1,2.55,2.57A2.28,2.28,0,0,1,139,32a10.81,10.81,0,0,1-.42,1,4.41,4.41,0,0,0-.43,1.17,7.67,7.67,0,0,0-.12,1.56v2.67a12.08,12.08,0,0,1-.29,3l1,.14a11.14,11.14,0,0,0,1.61.15,3.49,3.49,0,0,0,2.38-.7,2.6,2.6,0,0,0,.79-2.06V25a1.68,1.68,0,0,1,.38-1.15,1.31,1.31,0,0,1,1.05-.43A2.32,2.32,0,0,1,145.67,23.54Zm-10,8.4a1.16,1.16,0,0,0,1.64,0,1.16,1.16,0,0,0,.32-.86,1.19,1.19,0,0,0-.32-.86,1.18,1.18,0,0,0-1.64,0,1.19,1.19,0,0,0-.32.86A1.16,1.16,0,0,0,135.65,31.94Z" transform="translate(-12.57)"/><path class="cls-1" d="M157.69,31.65a1.32,1.32,0,0,0-.4.67,5.66,5.66,0,0,0-.1,1.18v8.16a1.64,1.64,0,0,1-.38,1.16,1.31,1.31,0,0,1-1.05.43,2.32,2.32,0,0,1-.7-.1V33.6a4.1,4.1,0,0,1,.09-.94,1.56,1.56,0,0,1,.33-.67,4.08,4.08,0,0,1-.55-.28l-1.56-1a3.47,3.47,0,0,0-.7-.35,1.9,1.9,0,0,0-.58-.09,2.41,2.41,0,0,0-1.41.47,9.41,9.41,0,0,0-1.7,1.77,1,1,0,0,1-.65-1,2,2,0,0,1,.66-1.37A5.91,5.91,0,0,1,150.57,29a3.65,3.65,0,0,1,1.63-.48,1.85,1.85,0,0,1,.74.17,9.39,9.39,0,0,1,1.05.59l2.16,1.37a4.41,4.41,0,0,0,1.38.63Z" transform="translate(-12.57)"/><path class="cls-1" d="M168.75,29.31a2.54,2.54,0,0,1,.74,1.88v7.69a9.51,9.51,0,0,1-.44,3.3,1.76,1.76,0,0,1-1.82,1.12,4,4,0,0,1-.86-.13,3.41,3.41,0,0,0-.68-.1q-1.22-3.09-3.39-7.31a37.13,37.13,0,0,0-3.81-6.21,1,1,0,0,1,.44-.61,1.26,1.26,0,0,1,.71-.22.85.85,0,0,1,.48.15,4.23,4.23,0,0,1,.58.6,32.19,32.19,0,0,1,3,4.89q1.74,3.3,3.32,7.12a11.39,11.39,0,0,0,.32-3.07V33.92a3.22,3.22,0,0,1,0-.71,1.78,1.78,0,0,1-.78.16,2.22,2.22,0,0,1-1.66-.68,2.4,2.4,0,0,1,.06-3.41,2.81,2.81,0,0,1,3.72,0ZM166,31.89a1.16,1.16,0,0,0,1.64,0,1.32,1.32,0,0,0,0-1.72,1.16,1.16,0,0,0-1.64,0,1.29,1.29,0,0,0,0,1.72Z" transform="translate(-12.57)"/><path class="cls-1" d="M186.54,26.79a2.86,2.86,0,0,1-.28,1.3A5.73,5.73,0,0,1,183,30.54l.38.23a5.62,5.62,0,0,0,.84.47,2.36,2.36,0,0,0,.67.18l.16.42a1.23,1.23,0,0,0-.38.65,5.77,5.77,0,0,0-.09,1.19v8a1.64,1.64,0,0,1-.38,1.16,1.31,1.31,0,0,1-1.05.43,2.32,2.32,0,0,1-.7-.1V33.79a2.78,2.78,0,0,1,.29-1.46,5.76,5.76,0,0,1-1.23-.65l-1.06-.7a5.38,5.38,0,0,0-1-.57,2.8,2.8,0,0,0-1-.16,3.25,3.25,0,0,0-2.48,1,4.15,4.15,0,0,0-.95,3,20.92,20.92,0,0,0,.31,2.78,10.52,10.52,0,0,1,1.26-3.73,2.62,2.62,0,0,1,2.31-1.41,2.73,2.73,0,0,1,1.8.56,1.92,1.92,0,0,1,.69,1.59,2.16,2.16,0,0,1-2.29,2.27,2.71,2.71,0,0,1-1.14-.24,2,2,0,0,1-.83-.67,16.24,16.24,0,0,0-.6,2.74,19.09,19.09,0,0,0-.23,2.74v.73a1.8,1.8,0,0,1-.41,1.22,1.41,1.41,0,0,1-1.13.47,2.87,2.87,0,0,1-.75-.1v-2a9.78,9.78,0,0,0-.15-1.76c-.09-.54-.23-1.18-.42-1.91s-.31-1.21-.41-1.71a8.82,8.82,0,0,1-.14-1.54,6.15,6.15,0,0,1,.74-3.07,5,5,0,0,1,2-2,5.92,5.92,0,0,1,2.83-.68,4.28,4.28,0,0,1,1.36.2,7,7,0,0,1,1.32.63l.1.06a9.38,9.38,0,0,0,5.1-2.73Zm-8.3,6.55a1.09,1.09,0,0,0-.3.78,1.06,1.06,0,0,0,.3.78,1,1,0,0,0,.74.32,1,1,0,0,0,.74-.32,1.06,1.06,0,0,0,.3-.78,1.09,1.09,0,0,0-.3-.78A1,1,0,0,0,179,33,1,1,0,0,0,178.24,33.34Z" transform="translate(-12.57)"/><path class="cls-1" d="M174.27,25.23a4.29,4.29,0,0,1,.65-2.39,4.1,4.1,0,0,1,1.73-1.49,5.45,5.45,0,0,1,2.35-.51,5.56,5.56,0,0,1,3.07.88,6.46,6.46,0,0,1,2.17,2.3,6.08,6.08,0,0,1,.8,3Zm7.35-2a4.58,4.58,0,0,0-2.74-.87,2.75,2.75,0,0,0-1.81.53,2.39,2.39,0,0,0-.82,1.39l7,1.15A4.1,4.1,0,0,0,181.62,23.27Z" transform="translate(-12.57)"/><path class="cls-1" d="M199.6,32.17a1.27,1.27,0,0,0-.38.65,5.82,5.82,0,0,0-.09,1.2v7.41c0,1.25-.72,1.87-2.16,1.87q-1-2.88-2.46-6.42c-1-2.36-1.72-3.54-2.17-3.54-.21,0-.44.3-.69.88a13,13,0,0,0-.67,2.14,14.9,14.9,0,0,0-.38,2.34,1.72,1.72,0,0,1,.78-.18,2.38,2.38,0,0,1,1.73.65,2.23,2.23,0,0,1,.66,1.66,2.3,2.3,0,0,1-.75,1.78,2.77,2.77,0,0,1-2,.69,2.4,2.4,0,0,1-1.82-.7,3,3,0,0,1-.68-2.13,17.32,17.32,0,0,1,.46-3.59,14.62,14.62,0,0,1,1.28-3.72c.56-1,1.21-1.58,1.95-1.58s1.61.65,2.44,2a27.26,27.26,0,0,1,2.3,4.77V34.12a5,5,0,0,1,.06-.85,1.74,1.74,0,0,1,.25-.63,8.17,8.17,0,0,1-1.25-.67l-1.64-1a8.47,8.47,0,0,0-1-.56,2,2,0,0,0-.75-.14q-1.8,0-4.29,2.76a1,1,0,0,1-.65-.94,2.38,2.38,0,0,1,.83-1.57,7.3,7.3,0,0,1,2-1.43,5.15,5.15,0,0,1,2.2-.59,2.64,2.64,0,0,1,1,.18,9,9,0,0,1,1.2.63l3,1.79.85.46a3.2,3.2,0,0,0,.66.22ZM192,40a1.15,1.15,0,0,0-1.63,0,1.29,1.29,0,0,0,0,1.72,1.17,1.17,0,0,0,1.63,0A1.29,1.29,0,0,0,192,40Z" transform="translate(-12.57)"/><path class="cls-1" d="M211.3,31.65a1.37,1.37,0,0,0-.39.67,4.94,4.94,0,0,0-.11,1.18v8.16a1.68,1.68,0,0,1-.37,1.16,1.34,1.34,0,0,1-1.06.43,2.37,2.37,0,0,1-.7-.1V33.6a4.1,4.1,0,0,1,.09-.94,1.56,1.56,0,0,1,.33-.67,4.08,4.08,0,0,1-.55-.28l-1.56-1a3.47,3.47,0,0,0-.7-.35,1.88,1.88,0,0,0-.57-.09,2.42,2.42,0,0,0-1.42.47,9.41,9.41,0,0,0-1.7,1.77,1,1,0,0,1-.65-1,2,2,0,0,1,.66-1.37A5.81,5.81,0,0,1,204.19,29a3.58,3.58,0,0,1,1.62-.48,1.85,1.85,0,0,1,.74.17,9.39,9.39,0,0,1,1,.59l2.16,1.37a4.41,4.41,0,0,0,1.38.63Z" transform="translate(-12.57)"/><path class="cls-1" d="M225.58,29.55a4.26,4.26,0,0,1,.8,2.78v9.33a1.69,1.69,0,0,1-.38,1.16,1.31,1.31,0,0,1-1.05.43,2.28,2.28,0,0,1-.7-.1V31.91a2.05,2.05,0,0,0-.28-1.15.89.89,0,0,0-.79-.41,1.16,1.16,0,0,0-1,.55,4.72,4.72,0,0,0-.65,1.66l-2.14,9.1a1.74,1.74,0,0,1-1,1.3,4.7,4.7,0,0,1-1.93.34,3,3,0,0,1-1-.13V34.9a4.1,4.1,0,0,1,.23-1.48,2.25,2.25,0,0,1-2.21-2.31,2.34,2.34,0,0,1,.76-1.77,2.66,2.66,0,0,1,1.9-.7,2.54,2.54,0,0,1,1.83.69,2.46,2.46,0,0,1,.72,1.86,2.75,2.75,0,0,1-.12.84,6.39,6.39,0,0,1-.43,1,4.79,4.79,0,0,0-.43,1.17,7.67,7.67,0,0,0-.12,1.56v5.12l2-8.53A6.16,6.16,0,0,1,221,29.54a3,3,0,0,1,2.31-.95A2.74,2.74,0,0,1,225.58,29.55ZM217,31.94a1.17,1.17,0,0,0,.33-.86,1.2,1.2,0,0,0-.33-.86,1.18,1.18,0,0,0-1.64,0,1.24,1.24,0,0,0-.32.86,1.2,1.2,0,0,0,.32.86,1.16,1.16,0,0,0,1.64,0Z" transform="translate(-12.57)"/><path class="cls-1" d="M241.09,32.17a1.25,1.25,0,0,0-.37.65,5.82,5.82,0,0,0-.09,1.2v5.67a3.15,3.15,0,0,1-1.41,2.7,6.27,6.27,0,0,1-3.77,1,6.15,6.15,0,0,1-3.74-1,3.17,3.17,0,0,1-1.38-2.7v-4.5a2.53,2.53,0,0,1,.8-1.92,2.77,2.77,0,0,1,2-.76,2.65,2.65,0,0,1,1.87.69,2.23,2.23,0,0,1,.76,1.73,2.19,2.19,0,0,1-.74,1.7,2.74,2.74,0,0,1-1.92.67,3.79,3.79,0,0,1-.8-.11c.05.47.08,1.23.08,2.29a2,2,0,0,0,.78,1.64,3.71,3.71,0,0,0,2.26.57,3.92,3.92,0,0,0,2.3-.57,1.89,1.89,0,0,0,.79-1.64V34.12a4,4,0,0,1,.07-.85,1.72,1.72,0,0,1,.24-.63,8.19,8.19,0,0,1-1.24-.67l-1.64-1a8.47,8.47,0,0,0-1-.56,2,2,0,0,0-.75-.14q-1.8,0-4.29,2.76a1,1,0,0,1-.65-.94,2.34,2.34,0,0,1,.83-1.57,7,7,0,0,1,2-1.43,5.15,5.15,0,0,1,2.2-.59,2.64,2.64,0,0,1,1,.18,8.42,8.42,0,0,1,1.19.63l3,1.79c.36.21.64.36.84.46a3.1,3.1,0,0,0,.67.22Zm-8.82,1.93a1.27,1.27,0,0,0,0,1.71,1.15,1.15,0,0,0,1.63,0,1.27,1.27,0,0,0,0-1.71,1.15,1.15,0,0,0-1.63,0Z" transform="translate(-12.57)"/><path class="cls-1" d="M252.05,29.31a2.54,2.54,0,0,1,.74,1.88v7.69a9.51,9.51,0,0,1-.44,3.3,1.76,1.76,0,0,1-1.82,1.12,4,4,0,0,1-.86-.13,3.44,3.44,0,0,0-.67-.1q-1.23-3.09-3.4-7.31a35.84,35.84,0,0,0-3.81-6.21,1,1,0,0,1,.45-.61,1.23,1.23,0,0,1,.7-.22.85.85,0,0,1,.48.15,3.74,3.74,0,0,1,.58.6,32.19,32.19,0,0,1,3,4.89q1.74,3.3,3.33,7.12a11.46,11.46,0,0,0,.31-3.07V33.92a4,4,0,0,1,.05-.71,1.73,1.73,0,0,1-.78.16,2.22,2.22,0,0,1-1.66-.68,2.29,2.29,0,0,1-.68-1.69,2.26,2.26,0,0,1,.74-1.72,2.61,2.61,0,0,1,1.84-.69A2.58,2.58,0,0,1,252.05,29.31Zm-2.73,2.58a1.16,1.16,0,0,0,1.64,0,1.32,1.32,0,0,0,0-1.72,1.16,1.16,0,0,0-1.64,0,1.32,1.32,0,0,0,0,1.72Z" transform="translate(-12.57)"/><path class="cls-1" d="M269.85,26.79a2.86,2.86,0,0,1-.29,1.3,5.73,5.73,0,0,1-3.22,2.45l.39.23a5.15,5.15,0,0,0,.83.47,2.43,2.43,0,0,0,.68.18l.15.42a1.3,1.3,0,0,0-.38.65,5.77,5.77,0,0,0-.09,1.19v8a1.68,1.68,0,0,1-.37,1.16,1.34,1.34,0,0,1-1.06.43,2.37,2.37,0,0,1-.7-.1V33.79a2.88,2.88,0,0,1,.29-1.46,5.52,5.52,0,0,1-1.22-.65l-1.07-.7a5.1,5.1,0,0,0-1-.57,2.78,2.78,0,0,0-1-.16,3.27,3.27,0,0,0-2.49,1,4.15,4.15,0,0,0-.95,3,19.73,19.73,0,0,0,.32,2.78,10.52,10.52,0,0,1,1.26-3.73,2.61,2.61,0,0,1,2.3-1.41,2.71,2.71,0,0,1,1.8.56,1.92,1.92,0,0,1,.69,1.59,2.21,2.21,0,0,1-.62,1.63,2.25,2.25,0,0,1-1.66.64,2.72,2.72,0,0,1-1.15-.24,2,2,0,0,1-.83-.67,17.29,17.29,0,0,0-.6,2.74,20.65,20.65,0,0,0-.23,2.74v.73a1.8,1.8,0,0,1-.41,1.22,1.4,1.4,0,0,1-1.13.47,2.87,2.87,0,0,1-.75-.1v-2a10.82,10.82,0,0,0-.14-1.76c-.1-.54-.24-1.18-.43-1.91s-.31-1.21-.41-1.71a8.82,8.82,0,0,1-.14-1.54,6.15,6.15,0,0,1,.74-3.07,5,5,0,0,1,2-2,6,6,0,0,1,2.83-.68,4.35,4.35,0,0,1,1.37.2,7,7,0,0,1,1.31.63l.1.06a9.38,9.38,0,0,0,5.1-2.73Zm-8.31,6.55a1.09,1.09,0,0,0-.3.78,1.06,1.06,0,0,0,.3.78,1,1,0,0,0,.74.32,1,1,0,0,0,.74-.32,1.06,1.06,0,0,0,.3-.78,1.09,1.09,0,0,0-.3-.78,1,1,0,0,0-.74-.31A1,1,0,0,0,261.54,33.34Z" transform="translate(-12.57)"/><path class="cls-1" d="M267.9,22.19a2.1,2.1,0,0,1-1.17.68,5.93,5.93,0,0,1,1.19,1.93,6.09,6.09,0,0,1,.42,2.23l-10.76-1.8a4.21,4.21,0,0,1,.65-2.39A4,4,0,0,1,260,21.35a5.39,5.39,0,0,1,2.35-.51,5.6,5.6,0,0,1,1.77.28V21a1.89,1.89,0,0,1,.59-1.42,2.38,2.38,0,0,1,3.07,0,1.95,1.95,0,0,1,.16,2.64Zm-1.38,3.28a4,4,0,0,0-1.6-2.2,4.56,4.56,0,0,0-2.74-.87,2.79,2.79,0,0,0-1.81.53,2.45,2.45,0,0,0-.82,1.39Zm-.95-5.18a1,1,0,0,0-.25.68,1,1,0,0,0,.25.66.89.89,0,0,0,1.28,0,1,1,0,0,0,.24-.66,1,1,0,0,0-.24-.68.92.92,0,0,0-1.28,0Z" transform="translate(-12.57)"/><path class="cls-1" d="M283.47,32.17a1.25,1.25,0,0,0-.37.65A5.06,5.06,0,0,0,283,34v7.64a1.68,1.68,0,0,1-.37,1.16,1.32,1.32,0,0,1-1.06.43,2.37,2.37,0,0,1-.7-.1v-9a2.87,2.87,0,0,1,.29-1.45,5.28,5.28,0,0,1-1.22-.63l-1.82-1.17a3.66,3.66,0,0,0-2-.62,3.41,3.41,0,0,0-1.85.53,4.17,4.17,0,0,0-1.35,1.47,4.44,4.44,0,0,1,1.28.89,2.6,2.6,0,0,1,1.37-.34,3.12,3.12,0,0,1,1.54.39v.15a3,3,0,0,0-1.78,1.17,4.74,4.74,0,0,0-.51,2.47v4.68a1.69,1.69,0,0,1-.38,1.16,1.31,1.31,0,0,1-1,.43,2.32,2.32,0,0,1-.7-.1V37a6.6,6.6,0,0,1,.47-2.7,5.21,5.21,0,0,0-1.08-.94,5.29,5.29,0,0,0-1.37-.62v-.13a8.9,8.9,0,0,1,2.39-3,5.06,5.06,0,0,1,3.15-1.12,4.25,4.25,0,0,1,2.21.57l3.33,2c.36.21.64.36.84.46a3.1,3.1,0,0,0,.67.22Z" transform="translate(-12.57)"/><path class="cls-1" d="M299.32,34.89a4.8,4.8,0,0,1-1.5,1.78v2.26a4,4,0,0,1-1.43,3.35,6.5,6.5,0,0,1-4.1,1.13,15.67,15.67,0,0,1-2.86-.32,15.22,15.22,0,0,0-2.32-.26l-.15-.46a4.45,4.45,0,0,0,.66-1.56,13.1,13.1,0,0,0,.17-2.4V34.9a4.1,4.1,0,0,1,.23-1.48,2.24,2.24,0,0,1-2.21-2.31,2.3,2.3,0,0,1,.76-1.77,2.65,2.65,0,0,1,1.89-.7A2.39,2.39,0,0,1,291,31.21a2.28,2.28,0,0,1-.12.78,10.81,10.81,0,0,1-.42,1,4.41,4.41,0,0,0-.43,1.17,7.67,7.67,0,0,0-.12,1.56v2.67a8.5,8.5,0,0,1-.44,3l1.12.14a12.36,12.36,0,0,0,1.71.15q3.38,0,3.38-2.76V37.71a7,7,0,0,1-1.84.24,4.24,4.24,0,0,1-2.4-.59,1.83,1.83,0,0,1-.85-1.6,2,2,0,0,1,.63-1.53,2.29,2.29,0,0,1,1.63-.6,2.19,2.19,0,0,1,1.54.56,1.75,1.75,0,0,1,.62,1.34,1.45,1.45,0,0,1-.19.78,4.74,4.74,0,0,0,.86-.18V30.28a1.71,1.71,0,0,1,.38-1.16,1.31,1.31,0,0,1,1.05-.43,2.69,2.69,0,0,1,.7.1V34.9a6,6,0,0,0,1.36-4.31h.2a3.2,3.2,0,0,1,.47,1.84A5.56,5.56,0,0,1,299.32,34.89Zm-11.78-2.95a1.16,1.16,0,0,0,1.64,0,1.16,1.16,0,0,0,.32-.86,1.19,1.19,0,0,0-.32-.86,1.18,1.18,0,0,0-1.64,0,1.19,1.19,0,0,0-.32.86A1.16,1.16,0,0,0,287.54,31.94Zm5.93,4.46a.88.88,0,0,0,.25-.64.86.86,0,0,0-.25-.63.82.82,0,0,0-.61-.25.79.79,0,0,0-.61.25.82.82,0,0,0-.25.63.84.84,0,0,0,.25.64.83.83,0,0,0,.61.25A.86.86,0,0,0,293.47,36.4Z" transform="translate(-12.57)"/><path class="cls-1" d="M310.46,31.65a1.37,1.37,0,0,0-.39.67,5,5,0,0,0-.1,1.18v8.16a1.69,1.69,0,0,1-.38,1.16,1.31,1.31,0,0,1-1,.43,2.39,2.39,0,0,1-.71-.1V33.6a4.1,4.1,0,0,1,.09-.94,1.69,1.69,0,0,1,.33-.67,5.77,5.77,0,0,1-.55-.28l-1.56-1a3.23,3.23,0,0,0-.7-.35,1.88,1.88,0,0,0-.57-.09,2.44,2.44,0,0,0-1.42.47,9.41,9.41,0,0,0-1.7,1.77,1,1,0,0,1-.65-1,2,2,0,0,1,.66-1.37A5.81,5.81,0,0,1,303.35,29a3.61,3.61,0,0,1,1.62-.48,1.81,1.81,0,0,1,.74.17,8.54,8.54,0,0,1,1.06.59l2.16,1.37a4.28,4.28,0,0,0,1.37.63Z" transform="translate(-12.57)"/><path class="cls-3" d="M62.62,49a3.12,3.12,0,0,1,1.15,2.52,3.31,3.31,0,0,1-.5,1.82,3.18,3.18,0,0,1-1.41,1.19,5.06,5.06,0,0,1-2.13.42h-1.4v3.6a1.14,1.14,0,0,1-.25.76.88.88,0,0,1-.7.28,1.51,1.51,0,0,1-.46-.07V51.31a16.41,16.41,0,0,0-.07-1.66,3.86,3.86,0,0,0-.28-1l.12-.33a27.61,27.61,0,0,1,2.79-.16A4.84,4.84,0,0,1,62.62,49Zm-1,4.22a2.11,2.11,0,0,0,.68-1.7,2.13,2.13,0,0,0-.67-1.68,3,3,0,0,0-2-.59c-.44,0-1,0-1.58.08a2.88,2.88,0,0,1,.21.84c0,.31,0,.67,0,1.1v2.53H59.7A2.91,2.91,0,0,0,61.65,53.26Z" transform="translate(-12.57)"/><path class="cls-3" d="M63.35,59.53l4-11.2h.9l3.5,9.84a2,2,0,0,1,.13.61.73.73,0,0,1-.28.63,1.13,1.13,0,0,1-.74.22L69.7,56.41H65.86L65,58.86a1,1,0,0,1-1,.8A1.32,1.32,0,0,1,63.35,59.53Zm5.95-4.3-1.52-4.85-1.52,4.85Z" transform="translate(-12.57)"/><path class="cls-3" d="M73.56,59.58v-10a1.57,1.57,0,0,1,.29-1,1.06,1.06,0,0,1,.86-.36,1.32,1.32,0,0,1,.59.12l4.88,9.13V49.24a1.13,1.13,0,0,1,.24-.75.84.84,0,0,1,.67-.29,1.28,1.28,0,0,1,.47.08v10a1.56,1.56,0,0,1-.3,1,1.06,1.06,0,0,1-.85.35,1.5,1.5,0,0,1-.6-.11l-4.88-9.14v8.21a1.13,1.13,0,0,1-.24.75.83.83,0,0,1-.67.29A1.34,1.34,0,0,1,73.56,59.58Z" transform="translate(-12.57)"/><path class="cls-3" d="M85.92,59a4.63,4.63,0,0,1-1.74-2,7.58,7.58,0,0,1-.61-3.14,6.18,6.18,0,0,1,1.33-4.19,4.94,4.94,0,0,1,3.92-1.52,6.74,6.74,0,0,1,1.93.25,3.34,3.34,0,0,1,1.34.72,1.35,1.35,0,0,1,.49,1,.76.76,0,0,1-.59.81,3.49,3.49,0,0,0-1.3-1.2,4.06,4.06,0,0,0-1.92-.43A3.34,3.34,0,0,0,86,50.48a5.21,5.21,0,0,0-1,3.34A5.67,5.67,0,0,0,86,57.27a3.09,3.09,0,0,0,2.64,1.27,2.81,2.81,0,0,0,2.3-1,4.29,4.29,0,0,0,.82-2.82H88.81a1,1,0,0,1-.08-.4.78.78,0,0,1,.24-.61,1.07,1.07,0,0,1,.67-.2h2.81a.65.65,0,0,1,.52.16,1.15,1.15,0,0,1,.12.64,6.13,6.13,0,0,1-1.16,4,4.1,4.1,0,0,1-3.35,1.4A4.83,4.83,0,0,1,85.92,59Z" transform="translate(-12.57)"/><path class="cls-3" d="M96.3,59.44a3.39,3.39,0,0,1-1.37-.76,1.44,1.44,0,0,1-.49-1,.76.76,0,0,1,.59-.8,3.68,3.68,0,0,0,3.28,1.71,2.91,2.91,0,0,0,1.79-.48,1.9,1.9,0,0,0,.35-2.43,2.24,2.24,0,0,0-.82-.64,15.85,15.85,0,0,0-1.54-.61,11,11,0,0,1-1.79-.77,3.06,3.06,0,0,1-1.08-1,2.87,2.87,0,0,1-.4-1.56,2.67,2.67,0,0,1,.92-2.19,4.12,4.12,0,0,1,2.65-.75,5.46,5.46,0,0,1,2.45.49,1.5,1.5,0,0,1,1,1.35.76.76,0,0,1-.59.81,3,3,0,0,0-1.18-1.11,3.71,3.71,0,0,0-1.72-.36c-1.47,0-2.21.55-2.21,1.63a1.59,1.59,0,0,0,.3,1,2.33,2.33,0,0,0,.76.62,12.72,12.72,0,0,0,1.31.56,18.17,18.17,0,0,1,2,.86,2.94,2.94,0,0,1,1.12,1,2.83,2.83,0,0,1,.43,1.63A2.73,2.73,0,0,1,101,59a4.72,4.72,0,0,1-2.75.74A6.31,6.31,0,0,1,96.3,59.44Z" transform="translate(-12.57)"/><path class="cls-3" d="M104,59.56V49.28a1.17,1.17,0,0,1,.24-.76.85.85,0,0,1,.69-.28,2,2,0,0,1,.48.06V58.59a1.14,1.14,0,0,1-.25.76.88.88,0,0,1-.7.28A1.51,1.51,0,0,1,104,59.56Z" transform="translate(-12.57)"/><path class="cls-3" d="M114.31,58.73a.7.7,0,0,1-.25.59,1,1,0,0,1-.66.21h-5.52l-.13-.33a3.1,3.1,0,0,0,.29-1,14.27,14.27,0,0,0,.06-1.53V49.28a1.17,1.17,0,0,1,.24-.76.85.85,0,0,1,.69-.28,2,2,0,0,1,.48.06v8.4a7.74,7.74,0,0,1,0,.89,4.5,4.5,0,0,1-.15.73h4.93A1.31,1.31,0,0,1,114.31,58.73Z" transform="translate(-12.57)"/><path class="cls-3" d="M115.08,59.53l4-11.2h.9l3.5,9.84a2,2,0,0,1,.13.61.73.73,0,0,1-.28.63,1.14,1.14,0,0,1-.74.22l-1.14-3.22h-3.84l-.86,2.45a1,1,0,0,1-1,.8A1.32,1.32,0,0,1,115.08,59.53Zm6-4.3-1.52-4.85L118,55.23Z" transform="translate(-12.57)"/><path class="cls-3" d="M130.25,48.75a.75.75,0,0,1-.25.59,1,1,0,0,1-.67.21h-2.12v9a1.14,1.14,0,0,1-.25.76.88.88,0,0,1-.7.28,1.51,1.51,0,0,1-.46-.07v-10h-3a1.42,1.42,0,0,1-.06-.42.72.72,0,0,1,.25-.59,1,1,0,0,1,.66-.21h6.51A1.42,1.42,0,0,1,130.25,48.75Z" transform="translate(-12.57)"/><path class="cls-3" d="M140,48.3V58.59a1.14,1.14,0,0,1-.25.76.88.88,0,0,1-.7.28,1.51,1.51,0,0,1-.46-.07v-5h-5.31v4a1.14,1.14,0,0,1-.25.76.88.88,0,0,1-.7.28,1.51,1.51,0,0,1-.46-.07V49.28a1.17,1.17,0,0,1,.24-.76.85.85,0,0,1,.69-.28,2,2,0,0,1,.48.06v5.06h5.31V49.28a1.17,1.17,0,0,1,.24-.76.85.85,0,0,1,.69-.28A2,2,0,0,1,140,48.3Z" transform="translate(-12.57)"/><path class="cls-3" d="M144.45,59a4.79,4.79,0,0,1-1.8-2,7.82,7.82,0,0,1,0-6.15,4.79,4.79,0,0,1,1.8-2,5.7,5.7,0,0,1,5.51,0,4.64,4.64,0,0,1,1.82,2,7.71,7.71,0,0,1,0,6.15A4.64,4.64,0,0,1,150,59a5.7,5.7,0,0,1-5.51,0Zm4.73-1a3.64,3.64,0,0,0,1.31-1.61,6.78,6.78,0,0,0,0-4.91,3.7,3.7,0,0,0-1.31-1.61,3.5,3.5,0,0,0-2-.56,3.44,3.44,0,0,0-2,.57,3.62,3.62,0,0,0-1.29,1.62,6.11,6.11,0,0,0-.45,2.44,6.18,6.18,0,0,0,.45,2.44A3.65,3.65,0,0,0,145.23,58a3.44,3.44,0,0,0,2,.57A3.5,3.5,0,0,0,149.18,58Z" transform="translate(-12.57)"/><path class="cls-3" d="M154.44,59.58v-10a1.57,1.57,0,0,1,.29-1,1.06,1.06,0,0,1,.86-.36,1.32,1.32,0,0,1,.59.12l4.88,9.13V49.24a1.13,1.13,0,0,1,.24-.75.84.84,0,0,1,.67-.29,1.28,1.28,0,0,1,.47.08v10a1.56,1.56,0,0,1-.3,1,1.06,1.06,0,0,1-.85.35,1.5,1.5,0,0,1-.6-.11l-4.88-9.14v8.21a1.13,1.13,0,0,1-.24.75.83.83,0,0,1-.67.29A1.34,1.34,0,0,1,154.44,59.58Z" transform="translate(-12.57)"/><path class="cls-3" d="M166.8,59a4.63,4.63,0,0,1-1.74-2,7.58,7.58,0,0,1-.61-3.14,6.18,6.18,0,0,1,1.33-4.19,4.94,4.94,0,0,1,3.92-1.52,6.74,6.74,0,0,1,1.93.25,3.34,3.34,0,0,1,1.34.72,1.35,1.35,0,0,1,.49,1,.76.76,0,0,1-.59.81,3.49,3.49,0,0,0-1.3-1.2,4.06,4.06,0,0,0-1.92-.43,3.34,3.34,0,0,0-2.77,1.19,5.21,5.21,0,0,0-.95,3.34,5.67,5.67,0,0,0,.94,3.45,3.09,3.09,0,0,0,2.64,1.27,2.81,2.81,0,0,0,2.3-1,4.29,4.29,0,0,0,.82-2.82h-2.94a1,1,0,0,1-.08-.4.78.78,0,0,1,.24-.61,1.07,1.07,0,0,1,.67-.2h2.81a.65.65,0,0,1,.52.16,1.15,1.15,0,0,1,.12.64,6.13,6.13,0,0,1-1.16,4,4.1,4.1,0,0,1-3.35,1.4A4.83,4.83,0,0,1,166.8,59Z" transform="translate(-12.57)"/><path class="cls-3" d="M177.18,59.44a3.39,3.39,0,0,1-1.37-.76,1.44,1.44,0,0,1-.49-1,.75.75,0,0,1,.59-.8,3.68,3.68,0,0,0,3.28,1.71,2.93,2.93,0,0,0,1.79-.48,1.9,1.9,0,0,0,.35-2.43,2.24,2.24,0,0,0-.82-.64,15.22,15.22,0,0,0-1.55-.61,11.19,11.19,0,0,1-1.78-.77,3.06,3.06,0,0,1-1.08-1,2.78,2.78,0,0,1-.4-1.56,2.67,2.67,0,0,1,.92-2.19,4.1,4.1,0,0,1,2.65-.75,5.46,5.46,0,0,1,2.45.49,1.5,1.5,0,0,1,1,1.35.76.76,0,0,1-.59.81,3,3,0,0,0-1.18-1.11,3.71,3.71,0,0,0-1.72-.36c-1.47,0-2.21.55-2.21,1.63a1.59,1.59,0,0,0,.3,1,2.33,2.33,0,0,0,.76.62,12.72,12.72,0,0,0,1.31.56,18.17,18.17,0,0,1,2,.86,3,3,0,0,1,1.12,1,2.83,2.83,0,0,1,.42,1.63A2.71,2.71,0,0,1,181.88,59a4.66,4.66,0,0,1-2.74.74A6.31,6.31,0,0,1,177.18,59.44Z" transform="translate(-12.57)"/><path class="cls-3" d="M186.63,59.19a3.53,3.53,0,0,1-1.36-1.54,5.34,5.34,0,0,1-.48-2.34v-6.1a1.13,1.13,0,0,1,.24-.75.85.85,0,0,1,.69-.29,1.59,1.59,0,0,1,.48.07v6.81a4.27,4.27,0,0,0,.65,2.56,2.34,2.34,0,0,0,3.69,0,4.34,4.34,0,0,0,.65-2.56V49.21a1.13,1.13,0,0,1,.24-.75.85.85,0,0,1,.69-.29,1.59,1.59,0,0,1,.48.07v7.07a5.34,5.34,0,0,1-.48,2.34,3.59,3.59,0,0,1-1.36,1.54,4.29,4.29,0,0,1-4.13,0Z" transform="translate(-12.57)"/><path class="cls-3" d="M202.18,59a1.05,1.05,0,0,0,.42.36v.18a2.57,2.57,0,0,1-.85.14,1.43,1.43,0,0,1-.68-.17,1.46,1.46,0,0,1-.52-.47l-3.17-4.77-.91,1.07v3.27a1.08,1.08,0,0,1-.25.75.85.85,0,0,1-.68.29,1.59,1.59,0,0,1-.48-.07V49.28a1.17,1.17,0,0,1,.24-.76.85.85,0,0,1,.69-.28,2,2,0,0,1,.48.06v5.17l3.95-4.82a1.26,1.26,0,0,1,.41-.34,1.28,1.28,0,0,1,.57-.11.81.81,0,0,1,.77.34l-3.91,4.64,3.27,4.88A11.11,11.11,0,0,0,202.18,59Z" transform="translate(-12.57)"/><path class="cls-3" d="M204.56,59.44a3.39,3.39,0,0,1-1.37-.76,1.45,1.45,0,0,1-.5-1,.76.76,0,0,1,.6-.8,3.67,3.67,0,0,0,3.28,1.71,3,3,0,0,0,1.79-.48,1.68,1.68,0,0,0,.64-1.42,1.58,1.58,0,0,0-.3-1,2.24,2.24,0,0,0-.82-.64,14.86,14.86,0,0,0-1.54-.61,10.8,10.8,0,0,1-1.78-.77,2.9,2.9,0,0,1-1.08-1,2.78,2.78,0,0,1-.4-1.56,2.64,2.64,0,0,1,.92-2.19,4.07,4.07,0,0,1,2.64-.75,5.43,5.43,0,0,1,2.45.49,1.5,1.5,0,0,1,1,1.35.75.75,0,0,1-.59.81,3.09,3.09,0,0,0-1.17-1.11,3.74,3.74,0,0,0-1.72-.36c-1.47,0-2.21.55-2.21,1.63a1.65,1.65,0,0,0,.29,1,2.37,2.37,0,0,0,.77.62,11,11,0,0,0,1.31.56,20,20,0,0,1,2,.86,3.1,3.1,0,0,1,1.12,1,2.83,2.83,0,0,1,.42,1.63A2.73,2.73,0,0,1,209.26,59a4.69,4.69,0,0,1-2.74.74A6.27,6.27,0,0,1,204.56,59.44Z" transform="translate(-12.57)"/><path class="cls-3" d="M210.76,59.53l4-11.2h.9l3.5,9.84a2,2,0,0,1,.13.61.73.73,0,0,1-.28.63,1.16,1.16,0,0,1-.74.22l-1.14-3.22h-3.84l-.86,2.45a1,1,0,0,1-1,.8A1.32,1.32,0,0,1,210.76,59.53Zm6-4.3-1.52-4.85-1.52,4.85Z" transform="translate(-12.57)"/><path class="cls-3" d="M226.19,59.44a3.39,3.39,0,0,1-1.37-.76,1.44,1.44,0,0,1-.49-1,.75.75,0,0,1,.59-.8,3.67,3.67,0,0,0,3.28,1.71,3,3,0,0,0,1.79-.48,1.65,1.65,0,0,0,.64-1.42,1.58,1.58,0,0,0-.3-1,2.2,2.2,0,0,0-.81-.64,15.22,15.22,0,0,0-1.55-.61,11.19,11.19,0,0,1-1.78-.77,3.06,3.06,0,0,1-1.08-1,2.78,2.78,0,0,1-.4-1.56,2.67,2.67,0,0,1,.92-2.19,4.1,4.1,0,0,1,2.65-.75,5.41,5.41,0,0,1,2.44.49,1.5,1.5,0,0,1,1,1.35.76.76,0,0,1-.59.81A3.19,3.19,0,0,0,230,49.65a3.74,3.74,0,0,0-1.72-.36c-1.47,0-2.21.55-2.21,1.63a1.59,1.59,0,0,0,.3,1,2.23,2.23,0,0,0,.76.62,11.82,11.82,0,0,0,1.31.56,19,19,0,0,1,2,.86,3,3,0,0,1,1.12,1,2.83,2.83,0,0,1,.42,1.63A2.73,2.73,0,0,1,230.89,59a4.69,4.69,0,0,1-2.74.74A6.27,6.27,0,0,1,226.19,59.44Z" transform="translate(-12.57)"/><path class="cls-3" d="M235.63,59a4.49,4.49,0,0,1-1.71-2.05,7.5,7.5,0,0,1-.57-3,7.58,7.58,0,0,1,.57-3,4.54,4.54,0,0,1,1.71-2,5.09,5.09,0,0,1,2.81-.73,6.49,6.49,0,0,1,1.86.25,3.58,3.58,0,0,1,1.38.7,1.37,1.37,0,0,1,.52,1,.76.76,0,0,1-.59.81,3.82,3.82,0,0,0-1.36-1.19,3.93,3.93,0,0,0-1.84-.44,3.06,3.06,0,0,0-2.68,1.3,6.53,6.53,0,0,0,0,6.65,3.06,3.06,0,0,0,2.68,1.3,3.93,3.93,0,0,0,1.84-.44,3.73,3.73,0,0,0,1.36-1.19.77.77,0,0,1,.59.81,1.37,1.37,0,0,1-.52,1.05,3.59,3.59,0,0,1-1.38.71,6.86,6.86,0,0,1-1.86.24A5.09,5.09,0,0,1,235.63,59Z" transform="translate(-12.57)"/><path class="cls-3" d="M252.34,48.3V58.59a1.09,1.09,0,0,1-.25.76.85.85,0,0,1-.69.28,1.58,1.58,0,0,1-.47-.07v-5h-5.31v4a1.09,1.09,0,0,1-.25.76.85.85,0,0,1-.69.28,1.58,1.58,0,0,1-.47-.07V49.28a1.17,1.17,0,0,1,.24-.76.85.85,0,0,1,.69-.28,2,2,0,0,1,.48.06v5.06h5.31V49.28a1.17,1.17,0,0,1,.24-.76.85.85,0,0,1,.69-.28A2,2,0,0,1,252.34,48.3Z" transform="translate(-12.57)"/><path class="cls-3" d="M256.79,59a4.66,4.66,0,0,1-1.8-2,7.82,7.82,0,0,1,0-6.15,4.66,4.66,0,0,1,1.8-2,5.68,5.68,0,0,1,5.5,0,4.73,4.73,0,0,1,1.83,2,7.71,7.71,0,0,1,0,6.15,4.73,4.73,0,0,1-1.83,2,5.68,5.68,0,0,1-5.5,0Zm4.73-1a3.62,3.62,0,0,0,1.3-1.61,6.65,6.65,0,0,0,0-4.91,3.68,3.68,0,0,0-1.3-1.61,3.51,3.51,0,0,0-2-.56,3.41,3.41,0,0,0-2,.57,3.56,3.56,0,0,0-1.29,1.62,6.11,6.11,0,0,0-.45,2.44,6.18,6.18,0,0,0,.45,2.44A3.58,3.58,0,0,0,257.57,58a3.41,3.41,0,0,0,2,.57A3.51,3.51,0,0,0,261.52,58Z" transform="translate(-12.57)"/><path class="cls-3" d="M268.66,59a4.66,4.66,0,0,1-1.8-2,7.82,7.82,0,0,1,0-6.15,4.66,4.66,0,0,1,1.8-2,5.24,5.24,0,0,1,2.75-.71,5.3,5.3,0,0,1,2.76.71,4.77,4.77,0,0,1,1.82,2A7.71,7.71,0,0,1,276,57a4.77,4.77,0,0,1-1.82,2,5.2,5.2,0,0,1-2.76.71A5.14,5.14,0,0,1,268.66,59Zm4.73-1a3.62,3.62,0,0,0,1.3-1.61,6.65,6.65,0,0,0,0-4.91,3.68,3.68,0,0,0-1.3-1.61,3.51,3.51,0,0,0-2-.56,3.43,3.43,0,0,0-2,.57,3.62,3.62,0,0,0-1.29,1.62,6.11,6.11,0,0,0-.45,2.44,6.18,6.18,0,0,0,.45,2.44A3.65,3.65,0,0,0,269.44,58a3.43,3.43,0,0,0,2,.57A3.51,3.51,0,0,0,273.39,58Z" transform="translate(-12.57)"/><path class="cls-3" d="M284.92,58.73a.73.73,0,0,1-.25.59,1,1,0,0,1-.67.21h-5.51l-.13-.33a3.38,3.38,0,0,0,.29-1,14.27,14.27,0,0,0,.06-1.53V49.28a1.17,1.17,0,0,1,.24-.76.85.85,0,0,1,.69-.28,2,2,0,0,1,.48.06v8.4c0,.34,0,.64,0,.89a3.66,3.66,0,0,1-.16.73h4.93A1.07,1.07,0,0,1,284.92,58.73Z" transform="translate(-12.57)"/></svg>