<svg id="Layer_1" data-name="Layer 1" xmlns="http://www.w3.org/2000/svg" viewBox="0 0 340.82 64"><defs><style>.cls-1{fill:#f26727;}.cls-2{fill:#fff;}.cls-3{fill:#2d2926;}</style></defs><title>logo</title><g id="อนุโลม"><path class="cls-1" d="M30.67,13.75c0-.24.06-.47.1-.69A15.51,15.51,0,0,1,31.3,11a.57.57,0,0,0-.09-.56.7.7,0,0,1-.13-.64l.39-1.32s.06-.09.11-.17c.06.16.11.28.15.41.09.33.16.67.27,1a.66.66,0,0,1-.09.58,1.13,1.13,0,0,0-.2.67,9.84,9.84,0,0,0,0,1.63l.06.45a.89.89,0,0,0,.35.57,4.16,4.16,0,0,1,.9,1.21s0,.05,0,.11h-.32a1.24,1.24,0,0,0-1,.56c-.1.14-.08.21.06.31A6.3,6.3,0,0,1,33,16.9c-.21.07-.4.15-.6.2a1.74,1.74,0,0,0-.67.39.34.34,0,0,0,0,.51A8.93,8.93,0,0,1,33.49,20l.09.16a.17.17,0,0,1,0,.07s0,0-.06,0a2,2,0,0,0-.91.11l-.16.05a.26.26,0,0,0-.07.46c.27.24.55.46.8.71l1.4,1.34a6.6,6.6,0,0,0,1.34,1,.47.47,0,0,1-.4.34,1.23,1.23,0,0,1-.93-.2,2.22,2.22,0,0,0-.43-.23A6.9,6.9,0,0,0,33,23.31a2.12,2.12,0,0,0-.44-.06H32a1.39,1.39,0,0,0-.88.29c-.26.18-.53.35-.78.54a2.92,2.92,0,0,0-.44.42,5.15,5.15,0,0,0-1,1.61,1.43,1.43,0,0,0-.12.43.23.23,0,0,0,.18.24.62.62,0,0,1,.3.18c.27.29.55.58.85.85a2.91,2.91,0,0,0,1.54.87A2.57,2.57,0,0,0,33,28.56,4.27,4.27,0,0,0,33.9,28a5.86,5.86,0,0,0,.73-.67.24.24,0,0,0,0-.39,3.06,3.06,0,0,0-.29-.21l-.78-.53-.16.2c-.12.2-.23.43-.37.63a1.29,1.29,0,0,1-1.42.56,3.28,3.28,0,0,1-1.33-.67l-.75-.62a.91.91,0,0,1-.1-.1l.18-.12.41-.19a.51.51,0,0,0,.27-.25,4.11,4.11,0,0,1,.42-.69,2.79,2.79,0,0,1,.68-.6,2,2,0,0,1,.65-.28.71.71,0,0,1,.29,0,3.43,3.43,0,0,1,.46.11l.75.27.69.31,0,0c.39.31.85.51,1.23.83s.87.76,1.27,1.17c.25.26.47.55.73.85a1.75,1.75,0,0,1-.23,0,2.5,2.5,0,0,0-1,.09,1,1,0,0,0-.52.46,7.19,7.19,0,0,1-1.27,1.43,4.56,4.56,0,0,1-1.49.87,3.72,3.72,0,0,1-.74.14A4.12,4.12,0,0,1,30,30.13a6,6,0,0,1-1.11-.71c-.28-.23-.55-.47-.84-.69a1.3,1.3,0,0,0-.44-.22,2.33,2.33,0,0,0-1.23,0,4.79,4.79,0,0,0-.56.26l-.21.13a2.26,2.26,0,0,1,.07-.28c.22-.52.47-1,.74-1.53s.53-.95.82-1.41A12,12,0,0,1,28.51,24a8.9,8.9,0,0,1,.67-.7c.33-.3.68-.58,1-.86l.54-.43a.24.24,0,0,0,.09-.32,1.31,1.31,0,0,0-.91.14c-.28.13-.55.3-.83.46a3.31,3.31,0,0,1,.34-.74,5.13,5.13,0,0,1,.83-1.18,9.14,9.14,0,0,1,.81-.71c.17-.14.22-.3.06-.45a2.78,2.78,0,0,0-.82-.62,2.22,2.22,0,0,0-.59-.22s-.07,0-.11-.07a2.58,2.58,0,0,1,.44-.6,4.47,4.47,0,0,1,1-.84c.28-.17.29-.26.07-.5a3.76,3.76,0,0,0-.41-.38c-.14-.12-.3-.23-.47-.35.1-.14.19-.28.3-.41a3.62,3.62,0,0,1,.9-.8.23.23,0,0,0,0-.4.89.89,0,0,0-.56-.24Z" transform="translate(-12.57)"/><path class="cls-1" d="M14.15,34.2l.73-1.08.34-.51c.39-.57.77-1.14,1.15-1.72l1.35-2,.72-1.07.74-1.12c.19-.29.4-.57.59-.85s.33-.51.5-.77c.36-.54.72-1.08,1.07-1.62l1.22-1.83c.38-.57.78-1.13,1.16-1.7s.58-.88.87-1.32l.56-.81L26,16.43l1-1.41,1.31-2,.7-1A.35.35,0,0,1,29,12a1.71,1.71,0,0,1,.95-.88c.08.2.16.4.23.61a.31.31,0,0,1,0,.18c0,.1-.09.2-.13.3l-.39.83c-.22.51-.44,1-.67,1.54s-.46,1-.69,1.5-.32.78-.49,1.17-.36.76-.53,1.15L26.52,20c-.14.31-.3.61-.44.92s-.33.8-.5,1.19c-.41.9-.82,1.79-1.22,2.69-.27.59-.51,1.18-.77,1.77-.18.39-.37.76-.54,1.15-.25.55-.48,1.11-.73,1.66-.37.84-.75,1.68-1.13,2.52-.17.4-.34.8-.52,1.19-.26.56-.52,1.11-.77,1.67-.18.38-.34.77-.5,1.17a.69.69,0,0,1-.53.44c-.46.1-.9.26-1.35.39L16,37.19c-.18.05-.24,0-.33-.15l-.53-1c-.19-.35-.39-.69-.58-1Z" transform="translate(-12.57)"/><path class="cls-1" d="M16.65,22.56c0-.28.06-.53.09-.79s.13-.82.18-1.24a.44.44,0,0,1,.18-.31L19,18.63l1.36-1.14,1.09-.88c.42-.36.83-.73,1.25-1.08l.82-.67,1.17-1,.85-.7.37-.3,1.4-1.16c.37-.31.73-.64,1.1-.94a1.72,1.72,0,0,1,.38-.2l.34-.11c0,.17,0,.33-.05.49a.27.27,0,0,1-.06.12l-.63.71-1.18,1.32c-.16.18-.32.35-.47.53l-.95,1.08c-.19.22-.39.43-.59.65l-1.07,1.2c-.39.44-.8.88-1.19,1.33s-.63.74-1,1.1l-.65.72c-.19.21-.38.4-.56.61l-.87,1c-.27.31-.55.6-.81.91a.39.39,0,0,1-.23.13l-.73.09-1.31.16Z" transform="translate(-12.57)"/><path class="cls-1" d="M19.71,14.1l.32-.57.06-.1.51-1a.44.44,0,0,1,.27-.23l1.6-.56,1.76-.62.82-.28,2-.7,1.55-.53a.42.42,0,0,1,.22,0,1.4,1.4,0,0,1,.27.14,2.49,2.49,0,0,1-.59.62c-.33.2-.67.41-1,.6l-1.2.65c-.17.1-.33.21-.49.32l-.39.21-1.4.82-.91.49c-.22.12-.43.26-.64.39l-1,.56a.34.34,0,0,1-.22.05l-1.47-.27Z" transform="translate(-12.57)"/><path class="cls-1" d="M29.25,8.74a.87.87,0,0,1-.54.34c-.53.11-1.05.26-1.58.4l-2.54.72-.68.18a.51.51,0,0,1-.38-.08l-.78-.45-.86-.51.57-.4c.24-.16.49-.3.71-.47a.65.65,0,0,1,.48-.13l1.85,0L28,8.44h.38A1.32,1.32,0,0,1,29.25,8.74Z" transform="translate(-12.57)"/><path class="cls-1" d="M23,6.49l.27-.18.95-.47a.28.28,0,0,1,.22,0c.3.09.59.21.89.31l.69.21,2.3.78.59.22c.2.07.27.25.38.42a2.32,2.32,0,0,1-.81.15L26.55,7.8l-1.3-.08-.94,0a.45.45,0,0,1-.26-.09C23.69,7.23,23.35,6.86,23,6.49Z" transform="translate(-12.57)"/><path class="cls-1" d="M25.26,3.33l1,.19.19,0a.68.68,0,0,1,.47.23L29.17,6a1.66,1.66,0,0,0,.18.19,1.08,1.08,0,0,1,.36.85h-.15a2.32,2.32,0,0,1-1-.4c-.4-.3-.86-.55-1.29-.82s-1.08-.66-1.63-1a.39.39,0,0,1-.2-.3L25.39,4Z" transform="translate(-12.57)"/><path class="cls-1" d="M30.56,6.13H30.5c-.33,0-.51-.17-.68-.43-.41-.63-.83-1.26-1.25-1.88l-.68-1a.52.52,0,0,1-.1-.42c.05-.25.05-.52.08-.78a1.31,1.31,0,0,1,0-.15,1.56,1.56,0,0,1,.26.11c.3.16.6.32.88.49a.57.57,0,0,1,.21.25c.27.75.53,1.51.79,2.26.16.45.31.89.46,1.34A1.55,1.55,0,0,1,30.56,6.13Z" transform="translate(-12.57)"/><path class="cls-1" d="M31.26,5.9l-.12-.49L30.57,2.9c-.09-.35-.19-.7-.29-1a.38.38,0,0,1,.06-.33c.09-.16.19-.31.29-.46l.52-.85L31.3,0c.13.2.24.39.36.57s.4.62.61.93a.47.47,0,0,1,.06.4c-.22.84-.44,1.69-.65,2.53-.11.45-.21.91-.31,1.36a.61.61,0,0,1-.05.12Z" transform="translate(-12.57)"/><path class="cls-1" d="M48.47,34.2l-.72-1.08-.35-.51-1.15-1.72-1.34-2-.73-1.07c-.25-.37-.49-.75-.73-1.12l-.59-.85c-.17-.25-.34-.51-.5-.77l-1.08-1.62c-.4-.61-.8-1.22-1.21-1.83s-.78-1.13-1.16-1.7S38.33,19,38,18.57l-.56-.81c-.29-.44-.56-.89-.85-1.33L35.69,15l-1.32-2c-.22-.34-.46-.67-.69-1a.35.35,0,0,1,0-.08,1.78,1.78,0,0,0-1-.88c-.08.2-.16.4-.23.61a.3.3,0,0,0,0,.18c0,.1.09.2.14.3.13.28.26.55.38.83.23.51.45,1,.68,1.54s.46,1,.68,1.5l.5,1.17c.17.38.36.76.53,1.15s.47,1.09.72,1.63c.14.31.3.61.43.92s.33.8.51,1.19c.4.9.82,1.79,1.22,2.69.27.59.51,1.18.77,1.77.17.39.37.76.54,1.15.25.55.48,1.11.72,1.66.38.84.76,1.68,1.13,2.52.18.4.35.8.53,1.19.25.56.52,1.11.77,1.67.17.38.33.77.49,1.17a.69.69,0,0,0,.53.44c.46.1.91.26,1.36.39l1.49.45c.17.05.24,0,.33-.15l.53-1c.18-.35.38-.69.57-1S48.32,34.49,48.47,34.2Z" transform="translate(-12.57)"/><path class="cls-1" d="M46,22.56c0-.28-.06-.53-.1-.79s-.12-.82-.18-1.24a.42.42,0,0,0-.17-.31l-1.88-1.59-1.36-1.14-1.09-.88-1.26-1.08-.82-.67-1.16-1-.86-.7-.37-.3L35.34,11.7c-.37-.31-.73-.64-1.11-.94a1.52,1.52,0,0,0-.38-.2l-.34-.11.06.49a.2.2,0,0,0,.06.12l.63.71,1.18,1.32c.15.18.31.35.47.53l1,1.08.58.65c.36.39.71.8,1.07,1.2s.81.88,1.2,1.33.63.74.95,1.1.43.48.65.72.38.4.56.61l.87,1c.26.31.54.6.8.91a.38.38,0,0,0,.24.13l.72.09,1.32.16Z" transform="translate(-12.57)"/><path class="cls-1" d="M42.92,14.1l-.32-.57-.06-.1-.51-1a.44.44,0,0,0-.27-.23l-1.6-.56-1.76-.62-.83-.28-2-.7L34,9.55a.45.45,0,0,0-.23,0,2.38,2.38,0,0,0-.27.14,2.91,2.91,0,0,0,.59.62c.34.2.68.41,1,.6l1.19.65.5.32.39.21,1.4.82.91.49c.22.12.42.26.64.39l1,.56a.34.34,0,0,0,.22.05c.49-.08,1-.18,1.46-.27Z" transform="translate(-12.57)"/><path class="cls-1" d="M33.38,8.74a.87.87,0,0,0,.54.34c.53.11,1,.26,1.57.4L38,10.2l.69.18a.51.51,0,0,0,.38-.08l.78-.45.86-.51c-.21-.14-.39-.28-.58-.4s-.49-.3-.71-.47A.65.65,0,0,0,39,8.34l-1.84,0-2.51.06h-.38A1.3,1.3,0,0,0,33.38,8.74Z" transform="translate(-12.57)"/><path class="cls-1" d="M39.64,6.49a2,2,0,0,0-.26-.18l-1-.47a.31.31,0,0,0-.23,0c-.29.09-.59.21-.88.31s-.47.13-.7.21l-2.29.78-.6.22c-.19.07-.27.25-.38.42a2.37,2.37,0,0,0,.82.15l1.91-.11,1.3-.08.94,0a.45.45,0,0,0,.26-.09Z" transform="translate(-12.57)"/><path class="cls-1" d="M37.37,3.33l-1,.19-.18,0a.73.73,0,0,0-.48.23C35,4.53,34.2,5.27,33.46,6a1.14,1.14,0,0,1-.19.19,1.07,1.07,0,0,0-.35.85h.15a2.28,2.28,0,0,0,1-.4c.41-.3.86-.55,1.3-.82s1.08-.66,1.63-1a.39.39,0,0,0,.2-.3L37.24,4C37.27,3.81,37.32,3.6,37.37,3.33Z" transform="translate(-12.57)"/><path class="cls-1" d="M32.07,6.13h0c.34,0,.52-.17.69-.43.4-.63.83-1.26,1.25-1.88.22-.34.45-.68.68-1a.52.52,0,0,0,.1-.42,6.65,6.65,0,0,1-.08-.78l0-.15a1.69,1.69,0,0,0-.27.11l-.88.49a.55.55,0,0,0-.2.25c-.27.75-.53,1.51-.79,2.26-.16.45-.31.89-.46,1.34A1.55,1.55,0,0,0,32.07,6.13Z" transform="translate(-12.57)"/></g><path class="cls-1" d="M34,48.8a5.31,5.31,0,0,0,1.61-7.06V40.66l-1.41-1.4v.82a5,5,0,0,0-2.87-.94V49.6a6.2,6.2,0,0,0,2.24-.54V46h.27V44.27L33.62,44v-.78l.42.42Z" transform="translate(-12.57)"/><path class="cls-1" d="M30.94,39.14V49.6A4.74,4.74,0,0,1,27.52,48a3.2,3.2,0,0,1-.79-3.64,1.41,1.41,0,0,0-.56.46S25.92,41,28.78,40c0,0,.14,0-.08.33a1.19,1.19,0,0,0-.22.58V45s.05.87.39,1v-6.3A4.61,4.61,0,0,1,30.94,39.14Z" transform="translate(-12.57)"/><path class="cls-1" d="M26.08,40a6,6,0,0,1-2.41-.11,3.07,3.07,0,0,0-2.73.8,4.8,4.8,0,0,0-.62.85,4.39,4.39,0,0,0-.51,2.37,1.2,1.2,0,0,1,.5-.52.66.66,0,0,1,.4-.09l.15,0a.73.73,0,0,0,.55-.07s.06.44-.58.53S20,45.07,20,45.07a5.09,5.09,0,0,0,1,3.69,4.17,4.17,0,0,1,1.7-2.86c1.53-1,1.7-1.93,1.7-1.93s.26-1-.38-1.32a.52.52,0,0,0-.79.31s0,.19-.34.21c0,0-.17-.56.15-.77a1.78,1.78,0,0,1,1.28-.32l.62,0a7,7,0,0,0-.4,2.3,6.08,6.08,0,0,0,0,.61,6.11,6.11,0,0,1-1.81,1.65,3.06,3.06,0,0,0-1.36,2.5,4.33,4.33,0,0,0,.16,1,4.46,4.46,0,0,0,1.32,2,1.28,1.28,0,0,1,0-.73.72.72,0,0,1,.22-.35l.14-.07a.72.72,0,0,0,.34-.44s.34.27,0,.79.29,1.52.29,1.52a5.08,5.08,0,0,0,3.33,1.89,4.17,4.17,0,0,1-.83-3.22A3.57,3.57,0,0,0,26.12,49s-.55-.91-1.2-.66a.51.51,0,0,0-.34.77s.11.17-.09.39c0,0-.52-.28-.44-.65a1.79,1.79,0,0,1,.68-1.13l.41-.47h0a6.76,6.76,0,0,0,1.77,2.3A6.17,6.17,0,0,1,26.82,52a3.06,3.06,0,0,0,.81,2.73,4.36,4.36,0,0,0,.84.62,4.43,4.43,0,0,0,2.37.51,1.27,1.27,0,0,1-.52-.5.68.68,0,0,1-.09-.41.58.58,0,0,1,.05-.14.73.73,0,0,0-.07-.55s.43-.06.53.58,1.28.87,1.28.87a5.09,5.09,0,0,0,3.69-1A4.21,4.21,0,0,1,32.84,53c-1-1.53-1.93-1.7-1.93-1.7s-1-.26-1.31.38a.52.52,0,0,0,.3.79s.2,0,.22.34c0,0-.57.17-.78-.15A1.83,1.83,0,0,1,29,51.4l0-.63v0a6.68,6.68,0,0,0,2.33.41l.54,0A6.05,6.05,0,0,1,33.55,53,3.05,3.05,0,0,0,36,54.32a4.26,4.26,0,0,0,1-.16,4.35,4.35,0,0,0,2-1.32,1.25,1.25,0,0,1-.72,0,.68.68,0,0,1-.35-.22A.61.61,0,0,1,38,52.5a.75.75,0,0,0-.44-.34s.26-.35.78,0,1.53-.29,1.53-.29a5.08,5.08,0,0,0,1.89-3.33,4.21,4.21,0,0,1-3.23.83,3.59,3.59,0,0,0-2.57.16s-.91.55-.66,1.2a.52.52,0,0,0,.78.34s.16-.11.39.09c0,0-.28.52-.65.44A1.78,1.78,0,0,1,34.66,51l-.47-.41v0a7,7,0,0,0,2.33-1.77,6,6,0,0,1,2.45.11,3.08,3.08,0,0,0,2.74-.81,3.81,3.81,0,0,0,.61-.85,4.39,4.39,0,0,0,.51-2.37,1.22,1.22,0,0,1-.49.53.8.8,0,0,1-.41.09.53.53,0,0,1-.15-.05.73.73,0,0,0-.55.07s0-.43.58-.53.88-1.28.88-1.28a5.08,5.08,0,0,0-1-3.69A4.22,4.22,0,0,1,40,42.85c-1.53,1-1.7,1.93-1.7,1.93s-.26,1,.37,1.31a.53.53,0,0,0,.8-.3s0-.2.33-.22c0,0,.18.57-.15.77a1.75,1.75,0,0,1-1.28.33l-.63,0h0a6.68,6.68,0,0,0,.42-2.37c0-.19,0-.38,0-.57a6.27,6.27,0,0,1,1.79-1.63,3.09,3.09,0,0,0,1.37-2.5,4.3,4.3,0,0,0-1.48-3.07,1.19,1.19,0,0,1,0,.72.72.72,0,0,1-.22.35.56.56,0,0,1-.13.07.72.72,0,0,0-.34.44s-.35-.26,0-.78-.29-1.53-.29-1.53A5.07,5.07,0,0,0,35.53,34a4.21,4.21,0,0,1,.83,3.23,3.59,3.59,0,0,0,.16,2.57s.54.91,1.19.66a.53.53,0,0,0,.35-.78.33.33,0,0,1,.08-.39s.53.28.44.65A1.76,1.76,0,0,1,37.91,41l-.4.45a6.9,6.9,0,0,0-1.82-2.36,6.28,6.28,0,0,1,.12-2.4A3.07,3.07,0,0,0,35,34a4.34,4.34,0,0,0-.85-.61,4.46,4.46,0,0,0-2.37-.52,1.27,1.27,0,0,1,.52.5.71.71,0,0,1,.09.41,1.55,1.55,0,0,1,0,.15.68.68,0,0,0,.07.55s-.44.05-.53-.59S30.61,33,30.61,33a5,5,0,0,0-3.68,1,4.2,4.2,0,0,1,2.86,1.69c1,1.53,1.93,1.7,1.93,1.7s1,.26,1.31-.37a.52.52,0,0,0-.3-.8s-.19,0-.21-.33c0,0,.56-.18.77.15a1.81,1.81,0,0,1,.32,1.28l0,.59a6.92,6.92,0,0,0-2.33-.41q-.32,0-.63,0a6.29,6.29,0,0,1-1.6-1.77,3.06,3.06,0,0,0-2.5-1.37,3.93,3.93,0,0,0-1,.17,4.46,4.46,0,0,0-2,1.31,1.19,1.19,0,0,1,.72,0,.64.64,0,0,1,.36.22s0,.09.07.13a.69.69,0,0,0,.44.34s-.27.35-.79,0-1.52.29-1.52.29a5,5,0,0,0-1.89,3.32,4.17,4.17,0,0,1,3.22-.83,3.59,3.59,0,0,0,2.57-.16s.91-.54.66-1.19a.52.52,0,0,0-.77-.35.33.33,0,0,1-.39-.08s.27-.53.65-.45a1.84,1.84,0,0,1,1.13.68l.45.4A7,7,0,0,0,26.08,40Zm5.24-1.92a6.27,6.27,0,1,1-6.27,6.27A6.27,6.27,0,0,1,31.32,38.07Z" transform="translate(-12.57)"/><path class="cls-2" d="M17.12,44.86s0,0,0,.07S17.12,44.88,17.12,44.86Z" transform="translate(-12.57)"/><path class="cls-2" d="M17.13,45v0Z" transform="translate(-12.57)"/><path class="cls-2" d="M17.07,44.69l.05.15A.88.88,0,0,0,17.07,44.69Z" transform="translate(-12.57)"/><path class="cls-2" d="M17,45.72a1,1,0,0,1,.07-.3.93.93,0,0,0,.07-.38v-.11s0,0,0-.07v0l-.05-.15h0a.52.52,0,0,0-.5-.31,1.13,1.13,0,0,1,0,.26,2,2,0,0,1-.06.23c-.06.2-.15.31-.26.33l-1.91,0a.37.37,0,0,0-.28.16.56.56,0,0,0-.1.37.61.61,0,0,0,.11.35.33.33,0,0,0,.26.14.31.31,0,0,0,.26-.15.6.6,0,0,0,.1-.35c0-.06,0-.1,0-.12l1.55,0c.27,0,.45-.29.55-.86.08,0,.12.14.12.29a1,1,0,0,1-.07.38,1.18,1.18,0,0,0-.07.35q0,.27.33.39l.05-.3C17,45.81,17,45.77,17,45.72Zm-2.56.19a.15.15,0,0,1-.11.07.13.13,0,0,1-.12-.07.25.25,0,0,1,0-.15.27.27,0,0,1,0-.16s.07-.07.12-.07a.15.15,0,0,1,.12.07.25.25,0,0,1,.05.15A.3.3,0,0,1,14.43,45.91Z" transform="translate(-12.57)"/><path class="cls-2" d="M15.55,47.71c0-.23,0-.51,0-.85q.17,0,.21.3c0,.07,0,.18,0,.33a1.88,1.88,0,0,0,0,.34.42.42,0,0,0,.35.38l0-.32a.11.11,0,0,1-.12-.11,2.93,2.93,0,0,1,0-.34,2.35,2.35,0,0,0,0-.38.73.73,0,0,0-.23-.48.58.58,0,0,0-.45-.13c0,.23,0,.5,0,.79s0,.44-.09.45l-.41.06a.46.46,0,0,0,0-.1.63.63,0,0,0-.15-.34.33.33,0,0,0-.28-.11.36.36,0,0,0-.24.18.74.74,0,0,0-.06.37.57.57,0,0,0,.16.34.33.33,0,0,0,.27.11l.75-.11C15.44,48.07,15.52,48,15.55,47.71Zm-.93.13a.16.16,0,0,1-.1.08.17.17,0,0,1-.13-.05.25.25,0,0,1-.06-.15.29.29,0,0,1,0-.16.15.15,0,0,1,.11-.08.13.13,0,0,1,.12.05.26.26,0,0,1,.07.15A.22.22,0,0,1,14.62,47.84Z" transform="translate(-12.57)"/><path class="cls-2" d="M16.6,50.05a.61.61,0,0,0,0-.4.53.53,0,0,0-.19-.29.34.34,0,0,0-.3-.07.32.32,0,0,0-.2.21.52.52,0,0,0,0,.35.49.49,0,0,0,0,.12l-.8.23.51-1.15-.27-.18-.63,1.45.11.39,1.51-.44A.36.36,0,0,0,16.6,50.05ZM16.31,50a.16.16,0,0,1-.13,0,.34.34,0,0,1-.09-.14.22.22,0,0,1,0-.16.13.13,0,0,1,.1-.1.17.17,0,0,1,.13,0,.31.31,0,0,1,.08.3A.18.18,0,0,1,16.31,50Z" transform="translate(-12.57)"/><path class="cls-2" d="M16,51.77l1.14-.49L17,50.91l-1.44.62a.32.32,0,0,0-.2.25.57.57,0,0,0,0,.38.6.6,0,0,0,.24.28.31.31,0,0,0,.29,0,.32.32,0,0,0,.19-.24.66.66,0,0,0,0-.36A.64.64,0,0,0,16,51.77Zm-.11.35a.16.16,0,0,1-.08.1.17.17,0,0,1-.14,0,.27.27,0,0,1-.1-.13.23.23,0,0,1,0-.16.15.15,0,0,1,.08-.11.15.15,0,0,1,.13,0,.25.25,0,0,1,.11.12A.33.33,0,0,1,15.9,52.12Z" transform="translate(-12.57)"/><path class="cls-2" d="M17.61,53.37c-.07-.22-.16-.49-.28-.81.11,0,.21,0,.3.2a2.06,2.06,0,0,1,.13.31,2.06,2.06,0,0,0,.13.31.43.43,0,0,0,.47.23l-.11-.31a.11.11,0,0,1-.15,0,1.56,1.56,0,0,1-.13-.32,1.51,1.51,0,0,0-.15-.35.71.71,0,0,0-.39-.36.58.58,0,0,0-.46,0c.09.22.19.47.28.74s.13.43.09.46l-.36.2-.05-.09a.59.59,0,0,0-.27-.25.3.3,0,0,0-.29,0,.34.34,0,0,0-.16.25.65.65,0,0,0,.09.37.53.53,0,0,0,.26.25.32.32,0,0,0,.3,0l.65-.37C17.64,53.75,17.67,53.6,17.61,53.37Zm-.82.46a.16.16,0,0,1-.07.12.15.15,0,0,1-.13,0,.25.25,0,0,1-.12-.11.24.24,0,0,1,0-.16.14.14,0,0,1,.06-.12.17.17,0,0,1,.14,0,.25.25,0,0,1,.12.11A.24.24,0,0,1,16.79,53.83Z" transform="translate(-12.57)"/><path class="cls-2" d="M18.58,53.44l.05,0,.73-.5-.22-.32-.28.18A1.27,1.27,0,0,0,18.6,52c-.32-.48-.68-.62-1.06-.42.13.16.25.33.37.5A6.59,6.59,0,0,1,18.58,53.44Zm-.39-1.55a1,1,0,0,1,.28.3.75.75,0,0,1,.16.42.42.42,0,0,1-.05.32,4.92,4.92,0,0,0-.46-.84,1.14,1.14,0,0,0-.21-.27A.34.34,0,0,1,18.19,51.89Z" transform="translate(-12.57)"/><path class="cls-2" d="M19.73,55.37l-1.12.92c-.13.11-.32,0-.56-.27s-.28-.48-.15-.59l.17-.14a.19.19,0,0,1,.16,0,.18.18,0,0,1,.16.09l.3.35.18-.15-.29-.35a.23.23,0,0,1,0-.3.44.44,0,0,0,.1.15.46.46,0,0,0,.28.19.27.27,0,0,0,.35-.3.6.6,0,0,0-.15-.31.61.61,0,0,0-.38-.25.42.42,0,0,0-.37.1.47.47,0,0,0-.15.51.33.33,0,0,0-.42,0l-.18.14c-.27.22-.2.58.21,1.07s.74.63,1,.41L20,55.68Zm-.95-.7a.11.11,0,0,1,.12,0,.26.26,0,0,1,.13.08.24.24,0,0,1,.06.15A.09.09,0,0,1,19,55a.12.12,0,0,1-.12,0,.22.22,0,0,1-.13-.09.22.22,0,0,1-.06-.14A.17.17,0,0,1,18.78,54.67Z" transform="translate(-12.57)"/><path class="cls-2" d="M21.25,58.14a.29.29,0,0,1-.22.12,1.41,1.41,0,0,1-.47-.14,3.23,3.23,0,0,0-.47-.17l.79-.93a.32.32,0,0,0,.07-.31.51.51,0,0,0-.21-.32.58.58,0,0,0-.33-.15.34.34,0,0,0-.28.1.38.38,0,0,0-.06.3.59.59,0,0,0,.2.31l.09.06-.8,1,.31.26a1.18,1.18,0,0,1,.3,0l.3.1a.34.34,0,0,0,0,.28.56.56,0,0,0,.19.28.61.61,0,0,0,.33.14.28.28,0,0,0,.27-.1.34.34,0,0,0,0-.41.29.29,0,0,0,.28-.12l.65-.77-.31-.26Zm-.94-1.49a.15.15,0,0,1,0-.13.13.13,0,0,1,.12,0,.2.2,0,0,1,.15.06.24.24,0,0,1,.09.14.13.13,0,0,1-.15.18.34.34,0,0,1-.15-.07A.22.22,0,0,1,20.31,56.65ZM21,58.78a.17.17,0,0,1-.13,0,.34.34,0,0,1-.15-.07.38.38,0,0,1-.09-.13.17.17,0,0,1,0-.14.13.13,0,0,1,.12,0,.2.2,0,0,1,.15.06.24.24,0,0,1,.09.14A.14.14,0,0,1,21,58.78Z" transform="translate(-12.57)"/><path class="cls-2" d="M24.83,58.34l-1.11,2s-.1.07-.22,0a1.33,1.33,0,0,1-.35-.13,1.14,1.14,0,0,1-.3-.23c-.08-.09-.11-.16-.08-.22l.56-1a.34.34,0,0,0,0-.31.56.56,0,0,0-.27-.28.59.59,0,0,0-.36-.08.31.31,0,0,0-.25.46.62.62,0,0,0,.25.26l.11,0-.4.7c-.15.27,0,.57.6.87s.91.33,1.06,0l1.1-2Zm-2,.32a.23.23,0,0,1-.11-.11.17.17,0,0,1,0-.14.14.14,0,0,1,.11-.07.29.29,0,0,1,.16,0,.28.28,0,0,1,.12.12.15.15,0,0,1,0,.13.16.16,0,0,1-.12.07A.34.34,0,0,1,22.81,58.66Z" transform="translate(-12.57)"/><path class="cls-2" d="M26.19,59.69a1.06,1.06,0,0,0-.65,0,.55.55,0,0,0-.39.35l.37.13a.31.31,0,0,1,.22-.21.53.53,0,0,1,.37,0,.64.64,0,0,1,.29.19.28.28,0,0,1,.05.25L26,61.7l.38.13.46-1.33a.45.45,0,0,0-.1-.48A1.31,1.31,0,0,0,26.19,59.69Z" transform="translate(-12.57)"/><path class="cls-2" d="M28.65,60.33a.6.6,0,0,0-.35.05.33.33,0,0,0-.19.23.34.34,0,0,0,.09.28.65.65,0,0,0,.32.16h.13l-.16.82-.8-1-.28.16,1,1.22.39.07.29-1.55a.34.34,0,0,0-.09-.3A.68.68,0,0,0,28.65,60.33Zm.16.4a.15.15,0,0,1-.09.1.22.22,0,0,1-.16,0,.26.26,0,0,1-.15-.07.17.17,0,0,1,0-.13.15.15,0,0,1,.09-.1.21.21,0,0,1,.16,0,.22.22,0,0,1,.14.08A.15.15,0,0,1,28.81,60.73Z" transform="translate(-12.57)"/><path class="cls-2" d="M32,60.43h-.45a.25.25,0,0,1-.16.23,1.37,1.37,0,0,0-.49-.09,1.32,1.32,0,0,0-.76.18.6.6,0,0,0-.33.53,1.17,1.17,0,0,0,.09.42,1.39,1.39,0,0,1,.1.5v.31h.41a2.1,2.1,0,0,1,.21-.92.59.59,0,0,0,.29.1.54.54,0,0,0,.31-.09.25.25,0,0,0,.13-.22.23.23,0,0,0-.12-.22.47.47,0,0,0-.3-.1.57.57,0,0,0-.4.16.89.89,0,0,0-.21.34,1,1,0,0,1,0,.14.58.58,0,0,0,0,.1v-.12a.89.89,0,0,0,0-.22c0-.08,0-.14,0-.18a.41.41,0,0,1,.18-.33.71.71,0,0,1,.47-.14,1,1,0,0,1,.44.11.34.34,0,0,1,.19.3l0,1.31h.41l0-1.3a.52.52,0,0,0-.19-.43A.61.61,0,0,0,32,60.43Zm-1.23.83a.2.2,0,0,1,.14,0,.24.24,0,0,1,.14.05.1.1,0,0,1,.05.11.12.12,0,0,1-.06.1.21.21,0,0,1-.14,0,.22.22,0,0,1-.14-.05.11.11,0,0,1-.05-.1A.14.14,0,0,1,30.79,61.26Z" transform="translate(-12.57)"/><path class="cls-2" d="M31.68,59.78a1.29,1.29,0,0,0-.81-.17c-.58,0-.88.28-.9.71.2,0,.41-.06.61-.07a6.53,6.53,0,0,1,1.49.09A.93.93,0,0,0,31.68,59.78Zm-1,.27-.35.05a.38.38,0,0,1,.21-.2.93.93,0,0,1,.39-.1.83.83,0,0,1,.45.08.45.45,0,0,1,.25.2A5,5,0,0,0,30.68,60.05Z" transform="translate(-12.57)"/><path class="cls-2" d="M34.48,60.39a1.53,1.53,0,0,0-.71,0,1.55,1.55,0,0,0-.7.26.58.58,0,0,0-.27.51l.39-.07a.36.36,0,0,1,.19-.29,1,1,0,0,1,.42-.16,1.13,1.13,0,0,1,.41,0c.16,0,.25.09.27.19l0,.21a.9.9,0,0,0-.63-.06,1.26,1.26,0,0,0-.6.24.48.48,0,0,0-.21.48l.07.44a.33.33,0,0,0,.19.23.6.6,0,0,0,.38,0,.69.69,0,0,0,.34-.17.29.29,0,0,0,.11-.28.33.33,0,0,0-.19-.23.65.65,0,0,0-.37,0l-.12,0,0-.12a.26.26,0,0,1,.14-.25.7.7,0,0,1,.33-.13,1.23,1.23,0,0,1,.38,0c.15,0,.24.09.25.19l.14.82.4-.07-.23-1.36A.49.49,0,0,0,34.48,60.39ZM33.5,62a.22.22,0,0,1,.14-.08.27.27,0,0,1,.16,0,.16.16,0,0,1,.09.11.16.16,0,0,1,0,.12.28.28,0,0,1-.15.08.22.22,0,0,1-.16,0,.13.13,0,0,1-.08-.1A.12.12,0,0,1,33.5,62Z" transform="translate(-12.57)"/><path class="cls-2" d="M36.82,59.7a1.29,1.29,0,0,0-.63.07,1.06,1.06,0,0,0-.54.37.6.6,0,0,0-.09.52l.37-.13a.32.32,0,0,1,0-.3.62.62,0,0,1,.3-.22.73.73,0,0,1,.35,0,.27.27,0,0,1,.19.17l.45,1.33.38-.13L37.19,60A.45.45,0,0,0,36.82,59.7Z" transform="translate(-12.57)"/><path class="cls-2" d="M39.24,58.37a.49.49,0,0,0-.29.49l.1.93c0,.19,0,.35.07.5a2.77,2.77,0,0,0-.18-.48l-.35-.63a.34.34,0,0,0-.26-.18.6.6,0,0,0-.38.08.62.62,0,0,0-.25.26.35.35,0,0,0,0,.3.34.34,0,0,0,.26.16.53.53,0,0,0,.36-.08l.09-.06.6,1.09.4-.22-.11-1.81a.11.11,0,0,1,.06-.12c.06,0,.11,0,.16.09l.75,1.36.36-.19-.75-1.36C39.74,58.26,39.53,58.22,39.24,58.37Zm-.92,1.06a.25.25,0,0,1-.11.12.23.23,0,0,1-.16,0,.14.14,0,0,1-.11-.07s0-.08,0-.13a.25.25,0,0,1,.11-.12.23.23,0,0,1,.16,0,.12.12,0,0,1,.11.07A.1.1,0,0,1,38.32,59.43Z" transform="translate(-12.57)"/><path class="cls-2" d="M42.17,56.92a.49.49,0,0,0-.56-.14,1.73,1.73,0,0,0-.63.36c-.48.4-.64.74-.48,1l.3-.25c-.07-.14.05-.34.37-.61a1.38,1.38,0,0,1,.36-.21.28.28,0,0,1,.31.06l.59.71c.11.14,0,.31-.25.54s-.46.27-.57.14l-.09-.11.08-.06a.57.57,0,0,0,.2-.3.29.29,0,0,0,0-.29.29.29,0,0,0-.27-.11.67.67,0,0,0-.34.14.58.58,0,0,0-.21.33.38.38,0,0,0,.08.31l.31.37a.38.38,0,0,0,.46.1,1.42,1.42,0,0,0,.56-.32,1.51,1.51,0,0,0,.42-.48.4.4,0,0,0,0-.48Zm-.7,1.31a.2.2,0,0,1-.15.06.13.13,0,0,1-.12,0,.12.12,0,0,1,0-.13.2.2,0,0,1,.09-.13.26.26,0,0,1,.15-.07.17.17,0,0,1,.12.05.12.12,0,0,1,0,.13A.22.22,0,0,1,41.47,58.23Z" transform="translate(-12.57)"/><path class="cls-2" d="M43.27,55a.62.62,0,0,0-.33.22.55.55,0,0,0-.14.32.34.34,0,0,0,.1.28.32.32,0,0,0,.29.07.57.57,0,0,0,.3-.2.54.54,0,0,0,.07-.09l.62.55-1.24.19v.32l1.57-.24.26-.3-1.17-1A.36.36,0,0,0,43.27,55Zm.07.56a.24.24,0,0,1-.14.09.14.14,0,0,1-.13,0,.13.13,0,0,1,0-.12.26.26,0,0,1,.07-.15.24.24,0,0,1,.14-.09.14.14,0,0,1,.13,0,.13.13,0,0,1,0,.12A.2.2,0,0,1,43.34,55.58Z" transform="translate(-12.57)"/><path class="cls-2" d="M44.93,52.85a.63.63,0,0,0-.17-.46l-.24.39a.24.24,0,0,1,.11.25,1.65,1.65,0,0,0-.33.37,1.33,1.33,0,0,0-.23.75.6.6,0,0,0,.28.56,1.2,1.2,0,0,0,.41.14,1.3,1.3,0,0,1,.48.17l.26.16.21-.34a2.31,2.31,0,0,1-.67-.65.52.52,0,0,0,.23-.21.47.47,0,0,0,.08-.3.25.25,0,0,0-.11-.23.27.27,0,0,0-.26,0,.49.49,0,0,0-.24.21.57.57,0,0,0-.07.43.78.78,0,0,0,.19.34l.1.11.08.07-.11-.07-.2-.09-.16-.07a.43.43,0,0,1-.19-.33.66.66,0,0,1,.12-.47.89.89,0,0,1,.32-.32.34.34,0,0,1,.35,0l1.11.7.22-.34-1.11-.7A.56.56,0,0,0,44.93,52.85ZM45,54a.14.14,0,0,1-.11,0,.11.11,0,0,1-.06-.11.19.19,0,0,1,0-.14.22.22,0,0,1,.12-.09.13.13,0,0,1,.12,0,.17.17,0,0,1,.06.11.3.3,0,0,1-.05.14A.21.21,0,0,1,45,54Z" transform="translate(-12.57)"/><path class="cls-2" d="M43.62,54.1a5.79,5.79,0,0,1,.25-.57,6.12,6.12,0,0,1,.84-1.23.87.87,0,0,0-.48,0,.33.33,0,0,0,0-.22.21.21,0,0,0-.12-.14.24.24,0,0,0-.23,0,.45.45,0,0,0-.2.21.48.48,0,0,0-.05.26.29.29,0,0,0,.11.19,1.58,1.58,0,0,0-.26.38Q43.08,53.74,43.62,54.1Zm.19-1.9a.18.18,0,0,1,.09-.1.11.11,0,0,1,.11,0,.08.08,0,0,1,.06.09.2.2,0,0,1,0,.13.22.22,0,0,1-.09.1.14.14,0,0,1-.11,0,.13.13,0,0,1-.07-.1A.19.19,0,0,1,43.81,52.2Zm-.27,1.19a1.08,1.08,0,0,1,.12-.39,1,1,0,0,1,.3-.35.42.42,0,0,1,.31-.1,4.77,4.77,0,0,0-.52.8,3.16,3.16,0,0,0-.14.32A.47.47,0,0,1,43.54,53.39Z" transform="translate(-12.57)"/><path class="cls-2" d="M46,50.26a1.27,1.27,0,0,0-.45.62,1.31,1.31,0,0,0-.09.71.6.6,0,0,0,.35.47.7.7,0,0,1,.2-.35.36.36,0,0,0,.19.37l.86.33.14-.37-.83-.33c-.13-.05-.19-.19-.2-.44a.63.63,0,0,0-.36.33.71.71,0,0,1,0-.64.74.74,0,0,1,.27-.36.36.36,0,0,1,.35,0l1.19.46.15-.37-1.19-.47A.57.57,0,0,0,46,50.26Z" transform="translate(-12.57)"/><path class="cls-2" d="M48.13,47.15l-.42-.07a1.15,1.15,0,0,0-.2-.43l-.2.19a.58.58,0,0,1,.15.19l-.79-.15-.07.4.95.18a2,2,0,0,1,0,.34.23.23,0,0,0-.19-.18.28.28,0,0,0-.24.08A.47.47,0,0,0,47,48a.54.54,0,0,0,0,.34.31.31,0,0,0,.21.16c.26,0,.44-.19.53-.71a1.12,1.12,0,0,0,0-.27l.28,0c.07,0,.11.07.14.18a1.19,1.19,0,0,1,0,.45,1.08,1.08,0,0,1-.14.42c-.07.09-.13.13-.19.12l-1.11-.21a.32.32,0,0,0-.3.1.53.53,0,0,0-.17.34.49.49,0,0,0,0,.36.3.3,0,0,0,.22.19.3.3,0,0,0,.28-.09.59.59,0,0,0,.18-.33A.49.49,0,0,1,47,49l.79.15c.31.06.52-.24.65-.9S48.44,47.21,48.13,47.15Zm-.72.93a.27.27,0,0,1-.07.13.13.13,0,0,1-.12,0,.11.11,0,0,1-.09-.07.24.24,0,0,1,0-.15.33.33,0,0,1,.07-.13.13.13,0,0,1,.12,0,.13.13,0,0,1,.09.07A.24.24,0,0,1,47.41,48.08Zm-.64,1a.28.28,0,0,1-.08.15.12.12,0,0,1-.12,0,.15.15,0,0,1-.11-.08.32.32,0,0,1,0-.17.39.39,0,0,1,.08-.14.13.13,0,0,1,.13,0,.15.15,0,0,1,.1.08A.3.3,0,0,1,46.77,49Z" transform="translate(-12.57)"/><path class="cls-2" d="M46.82,44.76a1.28,1.28,0,0,0-.14.61,1,1,0,0,0,.16.63.6.6,0,0,0,.45.27v-.39a.37.37,0,0,1-.27-.15.56.56,0,0,1-.1-.35A.55.55,0,0,1,47,45a.26.26,0,0,1,.22-.12l1.4,0v-.4l-1.41,0A.45.45,0,0,0,46.82,44.76Z" transform="translate(-12.57)"/><path class="cls-1" d="M50.06,44.18h0a19.19,19.19,0,0,0-.4-3.19c-.16-.73-.39-.92-1.18-1a.3.3,0,0,1-.17-.08c-.35-.61-.83-.69-1.5-1.08l-.13-.07a.48.48,0,0,0-.11.08,5.1,5.1,0,0,0-.77.64,2.21,2.21,0,0,0-.34.43,1.75,1.75,0,0,0-.17.4l-.37.1a1.06,1.06,0,0,0-.76,1.36,16.16,16.16,0,0,1,.38,2.48h0c0,.32,0,.65,0,1a13.25,13.25,0,0,1-26.5,0c0-.15,0-.29,0-.43h0a15.67,15.67,0,0,1,.42-3,1.06,1.06,0,0,0-.77-1.36l-.37-.11a2.52,2.52,0,0,0-.16-.4,2.28,2.28,0,0,0-.35-.43,5.1,5.1,0,0,0-.77-.64L16,38.75l-.13.07c-.67.39-1.16.48-1.51,1.08,0,.05-.11.08-.17.09-.79.06-1,.26-1.18,1a19.31,19.31,0,0,0-.4,3.2h0c0,.35,0,.7,0,1.06a18.76,18.76,0,0,0,37.52,0C50.09,44.88,50.08,44.53,50.06,44.18ZM43.47,53a1.58,1.58,0,0,1,.26-.38.29.29,0,0,1-.11-.19.48.48,0,0,1,.05-.26.45.45,0,0,1,.2-.21.24.24,0,0,1,.23,0,.21.21,0,0,1,.12.14.33.33,0,0,1,0,.22.87.87,0,0,1,.48,0,6.12,6.12,0,0,0-.84,1.23,5.79,5.79,0,0,0-.25.57Q43.08,53.74,43.47,53ZM18.6,52a1.27,1.27,0,0,1,.26.72l.28-.18.22.32-.73.5-.05,0a6.59,6.59,0,0,0-.67-1.33c-.12-.17-.24-.34-.37-.5C17.92,51.41,18.28,51.55,18.6,52Zm-4.54-5.92a.61.61,0,0,1-.11-.35.56.56,0,0,1,.1-.37.37.37,0,0,1,.28-.16l1.91,0c.11,0,.2-.13.26-.33a2,2,0,0,0,.06-.23,1.13,1.13,0,0,0,0-.26.52.52,0,0,1,.5.31h0a.88.88,0,0,1,.05.15v0s0,0,0,.07V45a.93.93,0,0,1-.07.38,1,1,0,0,0-.07.3c0,.05.05.09.14.14l-.05.3q-.33-.12-.33-.39a1.18,1.18,0,0,1,.07-.35,1,1,0,0,0,.07-.38c0-.15,0-.25-.12-.29-.1.57-.28.85-.55.86l-1.55,0s0,.06,0,.12a.6.6,0,0,1-.1.35.31.31,0,0,1-.26.15A.33.33,0,0,1,14.06,46.11Zm.22,2a.57.57,0,0,1-.16-.34.74.74,0,0,1,.06-.37.36.36,0,0,1,.24-.18.33.33,0,0,1,.28.11.63.63,0,0,1,.15.34.46.46,0,0,1,0,.1l.41-.06q.08,0,.09-.45c0-.29,0-.56,0-.79a.58.58,0,0,1,.45.13.73.73,0,0,1,.23.48,2.35,2.35,0,0,1,0,.38,2.93,2.93,0,0,0,0,.34.11.11,0,0,0,.12.11l0,.32a.42.42,0,0,1-.35-.38,1.88,1.88,0,0,1,0-.34c0-.15,0-.26,0-.33s-.1-.29-.21-.3c0,.34,0,.62,0,.85s-.11.36-.25.38l-.75.11A.33.33,0,0,1,14.28,48.09Zm.47,2.23.63-1.45.27.18-.51,1.15.8-.23a.49.49,0,0,1,0-.12.52.52,0,0,1,0-.35.32.32,0,0,1,.2-.21.34.34,0,0,1,.3.07.53.53,0,0,1,.19.29.61.61,0,0,1,0,.4.36.36,0,0,1-.23.22l-1.51.44Zm1.36,1.91a.32.32,0,0,1-.19.24.31.31,0,0,1-.29,0,.6.6,0,0,1-.24-.28.57.57,0,0,1,0-.38.32.32,0,0,1,.2-.25L17,50.91l.16.37L16,51.77a.64.64,0,0,1,.06.1A.66.66,0,0,1,16.11,52.23Zm.45,2a.53.53,0,0,1-.26-.25.65.65,0,0,1-.09-.37.34.34,0,0,1,.16-.25.3.3,0,0,1,.29,0,.59.59,0,0,1,.27.25l.05.09.36-.2s0-.18-.09-.46-.19-.52-.28-.74a.58.58,0,0,1,.46,0,.71.71,0,0,1,.39.36,1.51,1.51,0,0,1,.15.35,1.56,1.56,0,0,0,.13.32.11.11,0,0,0,.15,0l.11.31a.43.43,0,0,1-.47-.23,2.06,2.06,0,0,1-.13-.31,2.06,2.06,0,0,0-.13-.31c-.09-.16-.19-.23-.3-.2.12.32.21.59.28.81s0,.38-.1.45l-.65.37A.32.32,0,0,1,16.56,54.19Zm1.3,2c-.41-.49-.48-.85-.21-1.07l.18-.14a.33.33,0,0,1,.42,0,.47.47,0,0,1,.15-.51.42.42,0,0,1,.37-.1.61.61,0,0,1,.38.25.6.6,0,0,1,.15.31.27.27,0,0,1-.35.3.46.46,0,0,1-.28-.19.44.44,0,0,1-.1-.15.23.23,0,0,0,0,.3l.29.35-.18.15-.3-.35a.18.18,0,0,0-.16-.09.19.19,0,0,0-.16,0l-.17.14c-.13.11-.08.3.15.59s.43.38.56.27l1.12-.92.25.31-1.11.91C18.6,56.81,18.26,56.68,17.86,56.18Zm3.68,2.25a.29.29,0,0,1-.28.12.34.34,0,0,1,0,.41.28.28,0,0,1-.27.1.61.61,0,0,1-.33-.14.56.56,0,0,1-.19-.28.34.34,0,0,1,0-.28l-.3-.1a1.18,1.18,0,0,0-.3,0L19.56,58l.8-1L20.27,57a.59.59,0,0,1-.2-.31.38.38,0,0,1,.06-.3.34.34,0,0,1,.28-.1.58.58,0,0,1,.33.15.51.51,0,0,1,.21.32.32.32,0,0,1-.07.31l-.79.93a3.23,3.23,0,0,1,.47.17,1.41,1.41,0,0,0,.47.14.29.29,0,0,0,.22-.12l.63-.74.31.26Zm1.48,2c-.55-.3-.75-.6-.6-.87l.4-.7-.11,0a.62.62,0,0,1-.25-.26.31.31,0,0,1,.25-.46.59.59,0,0,1,.36.08.56.56,0,0,1,.27.28.34.34,0,0,1,0,.31l-.56,1c0,.06,0,.13.08.22a1.14,1.14,0,0,0,.3.23,1.33,1.33,0,0,0,.35.13c.12,0,.19,0,.22,0l1.11-2,.35.2-1.1,2C23.93,60.79,23.57,60.77,23,60.46Zm3.81,0-.46,1.33L26,61.7l.46-1.33a.28.28,0,0,0-.05-.25.64.64,0,0,0-.29-.19.53.53,0,0,0-.37,0,.31.31,0,0,0-.22.21L25.15,60a.55.55,0,0,1,.39-.35,1.06,1.06,0,0,1,.65,0,1.31,1.31,0,0,1,.54.33A.45.45,0,0,1,26.83,60.5Zm2.27.31-.29,1.55-.39-.07-1-1.22.28-.16.8,1,.16-.82h-.13a.65.65,0,0,1-.32-.16.34.34,0,0,1-.09-.28.33.33,0,0,1,.19-.23.6.6,0,0,1,.35-.05.68.68,0,0,1,.36.18A.34.34,0,0,1,29.1,60.81Zm2.81.43,0,1.3h-.41l0-1.31a.34.34,0,0,0-.19-.3,1,1,0,0,0-.44-.11.71.71,0,0,0-.47.14.41.41,0,0,0-.18.33s0,.1,0,.18a.89.89,0,0,1,0,.22v.12a.58.58,0,0,1,0-.1,1,1,0,0,0,0-.14.89.89,0,0,1,.21-.34.57.57,0,0,1,.4-.16.47.47,0,0,1,.3.1.23.23,0,0,1,.12.22.25.25,0,0,1-.13.22.54.54,0,0,1-.31.09.59.59,0,0,1-.29-.1,2.1,2.1,0,0,0-.21.92H30v-.31a1.39,1.39,0,0,0-.1-.5,1.17,1.17,0,0,1-.09-.42.6.6,0,0,1,.33-.53,1.32,1.32,0,0,1,.76-.18,1.37,1.37,0,0,1,.49.09.25.25,0,0,0,.16-.23H32a.61.61,0,0,1-.3.38A.52.52,0,0,1,31.91,61.24Zm-1.33-1c-.2,0-.41,0-.61.07,0-.43.32-.67.9-.71a1.29,1.29,0,0,1,.81.17.93.93,0,0,1,.39.56A6.53,6.53,0,0,0,30.58,60.25Zm4.13,2-.14-.82c0-.1-.1-.16-.25-.19a1.23,1.23,0,0,0-.38,0,.7.7,0,0,0-.33.13.26.26,0,0,0-.14.25l0,.12.12,0a.65.65,0,0,1,.37,0,.33.33,0,0,1,.19.23.29.29,0,0,1-.11.28.69.69,0,0,1-.34.17.6.6,0,0,1-.38,0,.33.33,0,0,1-.19-.23l-.07-.44a.48.48,0,0,1,.21-.48,1.26,1.26,0,0,1,.6-.24.9.9,0,0,1,.63.06l0-.21c0-.1-.11-.17-.27-.19a1.13,1.13,0,0,0-.41,0,1,1,0,0,0-.42.16.36.36,0,0,0-.19.29l-.39.07a.58.58,0,0,1,.27-.51,1.55,1.55,0,0,1,.7-.26,1.53,1.53,0,0,1,.71,0,.49.49,0,0,1,.4.38l.23,1.36Zm2.55-.72-.45-1.33a.27.27,0,0,0-.19-.17.73.73,0,0,0-.35,0,.62.62,0,0,0-.3.22.32.32,0,0,0,0,.3l-.37.13a.6.6,0,0,1,.09-.52,1.06,1.06,0,0,1,.54-.37,1.29,1.29,0,0,1,.63-.07.45.45,0,0,1,.37.32l.45,1.33Zm3-1.43-.75-1.36c0-.09-.1-.12-.16-.09a.11.11,0,0,0-.06.12l.11,1.81-.4.22-.6-1.09-.09.06a.53.53,0,0,1-.36.08.34.34,0,0,1-.26-.16.35.35,0,0,1,0-.3.62.62,0,0,1,.25-.26.6.6,0,0,1,.38-.08.34.34,0,0,1,.26.18l.35.63a2.77,2.77,0,0,1,.18.48c0-.15,0-.31-.07-.5l-.1-.93a.49.49,0,0,1,.29-.49c.29-.15.5-.11.63.13l.75,1.36Zm2.5-1.92a1.51,1.51,0,0,1-.42.48,1.42,1.42,0,0,1-.56.32.38.38,0,0,1-.46-.1L41,58.46a.38.38,0,0,1-.08-.31.58.58,0,0,1,.21-.33.67.67,0,0,1,.34-.14.29.29,0,0,1,.27.11.29.29,0,0,1,0,.29.57.57,0,0,1-.2.3l-.08.06.09.11c.11.13.3.08.57-.14s.36-.4.25-.54l-.59-.71a.28.28,0,0,0-.31-.06,1.38,1.38,0,0,0-.36.21c-.32.27-.44.47-.37.61l-.3.25c-.16-.29,0-.63.48-1a1.73,1.73,0,0,1,.63-.36.49.49,0,0,1,.56.14l.6.73A.4.4,0,0,1,42.76,58.13Zm1.74-1.69-1.57.24v-.32l1.24-.19-.62-.55a.54.54,0,0,1-.07.09.57.57,0,0,1-.3.2.32.32,0,0,1-.29-.07.34.34,0,0,1-.1-.28.55.55,0,0,1,.14-.32.62.62,0,0,1,.33-.22.36.36,0,0,1,.32.08l1.17,1Zm1.78-2.5-1.11-.7a.34.34,0,0,0-.35,0,.89.89,0,0,0-.32.32.66.66,0,0,0-.12.47.43.43,0,0,0,.19.33l.16.07.2.09.11.07L45,54.53l-.1-.11a.78.78,0,0,1-.19-.34.57.57,0,0,1,.07-.43.49.49,0,0,1,.24-.21.27.27,0,0,1,.26,0,.25.25,0,0,1,.11.23.47.47,0,0,1-.08.3.52.52,0,0,1-.23.21,2.31,2.31,0,0,0,.67.65l-.21.34L45.24,55a1.3,1.3,0,0,0-.48-.17,1.2,1.2,0,0,1-.41-.14.6.6,0,0,1-.28-.56,1.33,1.33,0,0,1,.23-.75,1.65,1.65,0,0,1,.33-.37.24.24,0,0,0-.11-.25l.24-.39a.63.63,0,0,1,.17.46.56.56,0,0,1,.46,0l1.11.7ZM47.64,51l-1.19-.46a.36.36,0,0,0-.35,0,.74.74,0,0,0-.27.36.71.71,0,0,0,0,.64.63.63,0,0,1,.36-.33c0,.25.07.39.2.44l.83.33-.14.37-.86-.33a.36.36,0,0,1-.19-.37.7.7,0,0,0-.2.35.6.6,0,0,1-.35-.47,1.31,1.31,0,0,1,.09-.71,1.27,1.27,0,0,1,.45-.62.57.57,0,0,1,.56-.07l1.19.47Zm.78-2.81c-.13.66-.34,1-.65.9L47,49a.49.49,0,0,0,0,.11.59.59,0,0,1-.18.33.3.3,0,0,1-.28.09.3.3,0,0,1-.22-.19.49.49,0,0,1,0-.36.53.53,0,0,1,.17-.34.32.32,0,0,1,.3-.1l1.11.21c.06,0,.12,0,.19-.12a1.08,1.08,0,0,0,.14-.42,1.19,1.19,0,0,0,0-.45c0-.11-.07-.17-.14-.18l-.28,0a1.12,1.12,0,0,1,0,.27c-.09.52-.27.75-.53.71a.31.31,0,0,1-.21-.16A.54.54,0,0,1,47,48a.47.47,0,0,1,.14-.28.28.28,0,0,1,.24-.08.23.23,0,0,1,.19.18,2,2,0,0,0,0-.34l-.95-.18.07-.4.79.15a.58.58,0,0,0-.15-.19l.2-.19a1.15,1.15,0,0,1,.2.43l.42.07C48.44,47.21,48.54,47.57,48.42,48.22Zm.22-3.28-1.4,0A.26.26,0,0,0,47,45a.55.55,0,0,0-.09.34.56.56,0,0,0,.1.35.37.37,0,0,0,.27.15v.39a.6.6,0,0,1-.45-.27,1,1,0,0,1-.16-.63,1.28,1.28,0,0,1,.14-.61.45.45,0,0,1,.42-.24l1.41,0Z" transform="translate(-12.57)"/><path class="cls-1" d="M33.45,62.07a.13.13,0,0,0,.08.1.22.22,0,0,0,.16,0,.28.28,0,0,0,.15-.08.16.16,0,0,0,0-.12.16.16,0,0,0-.09-.11.27.27,0,0,0-.16,0,.22.22,0,0,0-.14.08A.12.12,0,0,0,33.45,62.07Z" transform="translate(-12.57)"/><path class="cls-1" d="M23,58.7a.16.16,0,0,0,.12-.07.15.15,0,0,0,0-.13.28.28,0,0,0-.12-.12.29.29,0,0,0-.16,0,.14.14,0,0,0-.11.07.17.17,0,0,0,0,.14.23.23,0,0,0,.11.11A.34.34,0,0,0,23,58.7Z" transform="translate(-12.57)"/><path class="cls-1" d="M20.4,56.79a.34.34,0,0,0,.15.07.13.13,0,0,0,.15-.18.24.24,0,0,0-.09-.14.2.2,0,0,0-.15-.06.13.13,0,0,0-.12,0,.15.15,0,0,0,0,.13A.22.22,0,0,0,20.4,56.79Z" transform="translate(-12.57)"/><path class="cls-1" d="M21,58.51a.2.2,0,0,0-.15-.06.13.13,0,0,0-.12,0,.17.17,0,0,0,0,.14.38.38,0,0,0,.09.13.34.34,0,0,0,.15.07.17.17,0,0,0,.13,0,.14.14,0,0,0,0-.13A.24.24,0,0,0,21,58.51Z" transform="translate(-12.57)"/><path class="cls-1" d="M31.38,59.88a.83.83,0,0,0-.45-.08.93.93,0,0,0-.39.1.38.38,0,0,0-.21.2l.35-.05a5,5,0,0,1,.95,0A.45.45,0,0,0,31.38,59.88Z" transform="translate(-12.57)"/><path class="cls-1" d="M30.78,61.47a.22.22,0,0,0,.14.05.21.21,0,0,0,.14,0,.12.12,0,0,0,.06-.1.1.1,0,0,0-.05-.11.24.24,0,0,0-.14-.05.2.2,0,0,0-.14,0,.14.14,0,0,0-.06.11A.11.11,0,0,0,30.78,61.47Z" transform="translate(-12.57)"/><path class="cls-1" d="M28.62,60.53a.21.21,0,0,0-.16,0,.15.15,0,0,0-.09.1.17.17,0,0,0,0,.13.26.26,0,0,0,.15.07.22.22,0,0,0,.16,0,.15.15,0,0,0,.09-.1.15.15,0,0,0,0-.12A.22.22,0,0,0,28.62,60.53Z" transform="translate(-12.57)"/><path class="cls-1" d="M18.92,55A.12.12,0,0,0,19,55a.09.09,0,0,0,.05-.11.24.24,0,0,0-.06-.15.26.26,0,0,0-.13-.08.11.11,0,0,0-.12,0,.17.17,0,0,0-.05.12.22.22,0,0,0,.06.14A.22.22,0,0,0,18.92,55Z" transform="translate(-12.57)"/><path class="cls-1" d="M43.75,53.35a4.77,4.77,0,0,1,.52-.8.42.42,0,0,0-.31.1,1,1,0,0,0-.3.35,1.08,1.08,0,0,0-.12.39.47.47,0,0,0,.07.28A3.16,3.16,0,0,1,43.75,53.35Z" transform="translate(-12.57)"/><path class="cls-1" d="M14.43,45.91a.3.3,0,0,0,.05-.16.25.25,0,0,0-.05-.15.15.15,0,0,0-.12-.07c-.05,0-.08,0-.12.07a.27.27,0,0,0,0,.16.25.25,0,0,0,0,.15.13.13,0,0,0,.12.07A.15.15,0,0,0,14.43,45.91Z" transform="translate(-12.57)"/><path class="cls-1" d="M18.58,52.93a.42.42,0,0,0,.05-.32.75.75,0,0,0-.16-.42,1,1,0,0,0-.28-.3.34.34,0,0,0-.28-.07,1.14,1.14,0,0,1,.21.27A4.92,4.92,0,0,1,18.58,52.93Z" transform="translate(-12.57)"/><path class="cls-1" d="M43.85,52.43a.14.14,0,0,0,.11,0,.22.22,0,0,0,.09-.1.2.2,0,0,0,0-.13A.08.08,0,0,0,44,52.1a.11.11,0,0,0-.11,0,.18.18,0,0,0-.09.1.19.19,0,0,0,0,.13A.13.13,0,0,0,43.85,52.43Z" transform="translate(-12.57)"/><path class="cls-1" d="M16.4,49.71a.22.22,0,0,0-.08-.14.17.17,0,0,0-.13,0,.13.13,0,0,0-.1.1.22.22,0,0,0,0,.16.34.34,0,0,0,.09.14.16.16,0,0,0,.13,0,.18.18,0,0,0,.09-.1A.22.22,0,0,0,16.4,49.71Z" transform="translate(-12.57)"/><path class="cls-1" d="M15.77,51.83a.15.15,0,0,0-.13,0,.15.15,0,0,0-.08.11.23.23,0,0,0,0,.16.27.27,0,0,0,.1.13.17.17,0,0,0,.14,0,.16.16,0,0,0,.08-.1.33.33,0,0,0,0-.17A.25.25,0,0,0,15.77,51.83Z" transform="translate(-12.57)"/><path class="cls-1" d="M16.64,53.56a.17.17,0,0,0-.14,0,.14.14,0,0,0-.06.12.24.24,0,0,0,0,.16.25.25,0,0,0,.12.11.15.15,0,0,0,.13,0,.16.16,0,0,0,.07-.12.24.24,0,0,0,0-.16A.25.25,0,0,0,16.64,53.56Z" transform="translate(-12.57)"/><path class="cls-1" d="M14.58,47.53a.13.13,0,0,0-.12-.05.15.15,0,0,0-.11.08.29.29,0,0,0,0,.16.25.25,0,0,0,.06.15.17.17,0,0,0,.13.05.16.16,0,0,0,.1-.08.22.22,0,0,0,0-.16A.26.26,0,0,0,14.58,47.53Z" transform="translate(-12.57)"/><path class="cls-1" d="M41.54,58a.17.17,0,0,0-.12-.05.26.26,0,0,0-.15.07.2.2,0,0,0-.09.13.12.12,0,0,0,0,.13.13.13,0,0,0,.12,0,.2.2,0,0,0,.15-.06.22.22,0,0,0,.09-.14A.12.12,0,0,0,41.54,58Z" transform="translate(-12.57)"/><path class="cls-1" d="M38.21,59.23a.23.23,0,0,0-.16,0,.25.25,0,0,0-.11.12s0,.09,0,.13a.14.14,0,0,0,.11.07.23.23,0,0,0,.16,0,.25.25,0,0,0,.11-.12.1.1,0,0,0,0-.13A.12.12,0,0,0,38.21,59.23Z" transform="translate(-12.57)"/><path class="cls-1" d="M47.3,47.86a.13.13,0,0,0-.12,0,.33.33,0,0,0-.07.13.24.24,0,0,0,0,.15.11.11,0,0,0,.09.07.13.13,0,0,0,.12,0,.27.27,0,0,0,.07-.13.24.24,0,0,0,0-.15A.13.13,0,0,0,47.3,47.86Z" transform="translate(-12.57)"/><path class="cls-1" d="M43.23,55.28a.24.24,0,0,0-.14.09.26.26,0,0,0-.07.15.13.13,0,0,0,0,.12.14.14,0,0,0,.13,0,.24.24,0,0,0,.14-.09.2.2,0,0,0,.06-.15.13.13,0,0,0,0-.12A.14.14,0,0,0,43.23,55.28Z" transform="translate(-12.57)"/><path class="cls-1" d="M46.65,48.8a.13.13,0,0,0-.13,0,.39.39,0,0,0-.08.14.32.32,0,0,0,0,.17.15.15,0,0,0,.11.08.12.12,0,0,0,.12,0,.28.28,0,0,0,.08-.15.3.3,0,0,0,0-.16A.15.15,0,0,0,46.65,48.8Z" transform="translate(-12.57)"/><path class="cls-1" d="M45.12,53.9a.3.3,0,0,0,.05-.14.17.17,0,0,0-.06-.11.13.13,0,0,0-.12,0,.22.22,0,0,0-.12.09.19.19,0,0,0,0,.14.11.11,0,0,0,.06.11A.14.14,0,0,0,45,54,.21.21,0,0,0,45.12,53.9Z" transform="translate(-12.57)"/><path class="cls-1" d="M56.07,18.28c-.12-1.3-3-1.67-4.08-1.89.94-2.25,2.53-3.71,4.92-3.54,2.18.1,3.83,1.84,5.38-.1l1.13,1.55c-1.41,1.35-2.9,1.33-4.67.76a12,12,0,0,0-2-.46,2.37,2.37,0,0,0-1.82.93c1.82.54,3.74,1.25,3.74,2.75V32.09a1.46,1.46,0,0,1,.36,0A2.91,2.91,0,1,1,56.07,35ZM59,33.56a1.41,1.41,0,0,0,0,2.82,1.41,1.41,0,1,0,0-2.82Z" transform="translate(-12.57)"/><path class="cls-1" d="M74.25,35a2.93,2.93,0,1,1-2.93-2.9,1.5,1.5,0,0,1,.37,0V29.83c0-2.65-4.76-2.58-8.38-2.58.55-3.08,2.39-4.92,5.33-4.92,1.43,0,2.51.72,3.57.73a2,2,0,0,0,1.62-.85L75,24a3.18,3.18,0,0,1-2.33,1c-1.48,0-2.91-.8-4.06-.8a3,3,0,0,0-2.28,1.3c3.17.15,7.89.74,7.89,4Zm-2.93,1.42a1.41,1.41,0,0,0,0-2.82,1.41,1.41,0,1,0,0,2.82Z" transform="translate(-12.57)"/><path class="cls-1" d="M87.26,35.62c0,2-1,2-3,2H83.6s-3.5-5.14-6.36-8.55l.88-1.75c2.63,2.94,6.59,8.45,6.59,8.45V28.4a1.58,1.58,0,0,1-.37,0,2.92,2.92,0,1,1,2.92-2.9Zm-2.92-8.69a1.42,1.42,0,0,0,0-2.83,1.42,1.42,0,1,0,0,2.83Z" transform="translate(-12.57)"/><path class="cls-1" d="M95.22,22.83v9.26a1.46,1.46,0,0,1,.36,0A2.91,2.91,0,1,1,92.66,35V22.83Zm.36,10.73a1.41,1.41,0,0,0,0,2.82,1.41,1.41,0,1,0,0-2.82Z" transform="translate(-12.57)"/><path class="cls-1" d="M111.15,35a2.92,2.92,0,1,1-2.92-2.9,1.54,1.54,0,0,1,.37,0V29.83c0-2.65-4.77-2.58-8.38-2.58.54-3.08,2.39-4.92,5.33-4.92,1.42,0,2.51.72,3.57.73a2,2,0,0,0,1.62-.85l1.2,1.82a3.18,3.18,0,0,1-2.33,1c-1.49,0-2.91-.8-4.06-.8a3,3,0,0,0-2.28,1.3c3.17.15,7.88.74,7.88,4Zm-2.92,1.42a1.41,1.41,0,0,0,0-2.82,1.41,1.41,0,1,0,0,2.82Z" transform="translate(-12.57)"/><path class="cls-1" d="M104,15.6a7.58,7.58,0,0,1,4.52,1.53v-2.7h2.33v6.09A2.6,2.6,0,0,1,111,21c-5.3-1.08-7.63-1.37-12.82-.41A5.63,5.63,0,0,1,104,15.6Zm4.6,3.89c-2-2.95-6.59-3.07-8-.33A29.92,29.92,0,0,1,108.58,19.49Z" transform="translate(-12.57)"/><path class="cls-1" d="M116,37.64V34.2a3.56,3.56,0,0,1,2.43-3.2c-.81-.17-2.55-.85-3-1.94a5.47,5.47,0,0,1-.35-2.13c0-2.07,1.11-4,3.25-4.3a3.09,3.09,0,0,1,.66-.05,2.93,2.93,0,0,1-.12,5.85,2.69,2.69,0,0,1-1.16-.25c-.1,1.77,2.58,1.69,4.94,1.72v1.57a15,15,0,0,0-2.33.2,2.6,2.6,0,0,0-1.77,2.26v1.79h6c.24,0,.39,0,.39-.61V22.85h2.55V35.6c0,2-1,2-3,2Zm4.32-12.14a1.41,1.41,0,1,0-2.82,0,1.41,1.41,0,0,0,2.82,0Z" transform="translate(-12.57)"/><path class="cls-1" d="M136.72,37.64h-2.44V28.4a1.46,1.46,0,0,1-.36,0,2.92,2.92,0,1,1,2.92-2.9V35a11.66,11.66,0,0,1,4.2-2.74A2,2,0,0,0,142.29,31V22.85h2.56V31c0,.23-.37.62-1,1.23a2.92,2.92,0,1,1-4,2.7v-.22A8.22,8.22,0,0,0,136.72,37.64Zm-2.8-10.71a1.42,1.42,0,0,0,0-2.83,1.42,1.42,0,1,0,0,2.83Zm10.21,8a1.41,1.41,0,1,0-1.42,1.41A1.4,1.4,0,0,0,144.13,34.93Z" transform="translate(-12.57)"/><path class="cls-1" d="M151.62,28.4a1.5,1.5,0,0,1-.37,0,2.92,2.92,0,1,1,2.93-2.9V35.75h6c.24,0,.36,0,.36-.62V17h2.56V35.62c0,2-.94,2-2.92,2h-8.53Zm-.37-1.47a1.42,1.42,0,0,0,0-2.83,1.42,1.42,0,1,0,0,2.83Z" transform="translate(-12.57)"/><path class="cls-1" d="M166,26.44c.47-1.6,1.35-4.11,5.45-4.11,4.84,0,5.7,3.52,5.7,4.92V37.64h-2.58V27.49c0-1.23-.39-3.29-3.12-3.29a3.52,3.52,0,0,0-3.68,2.92Z" transform="translate(-12.57)"/><path class="cls-1" d="M190.37,35.62c0,2-1,2-2.94,2h-.72s-3.5-5.14-6.36-8.55l.89-1.75c2.63,2.94,6.58,8.45,6.58,8.45V28.4a1.54,1.54,0,0,1-.37,0,2.92,2.92,0,1,1,2.92-2.9Zm-2.92-8.69a1.42,1.42,0,0,0,0-2.83,1.42,1.42,0,1,0,0,2.83Z" transform="translate(-12.57)"/><path class="cls-1" d="M195,37.64V27.25c0-1.38,1.64-4.92,6.46-4.92a8,8,0,0,1,2.82.47,3.71,3.71,0,0,0,2.46-2.21l2,1.08A5.23,5.23,0,0,1,206.19,24a5.06,5.06,0,0,1,1.67,3.24V37.64H205.3V27.49c0-1.3-.83-3.29-3.8-3.29s-3.91,2-3.91,3.29v2.85l-.07,1.45a15.48,15.48,0,0,1,1.42-4.08A2.92,2.92,0,1,1,201.5,32a2.87,2.87,0,0,1-2.26-1.1s-1.3,4.15-1.65,6.19v.54Zm5.06-8.55a1.41,1.41,0,0,0,2.82,0,1.41,1.41,0,1,0-2.82,0Z" transform="translate(-12.57)"/><path class="cls-1" d="M201.27,15.68a7,7,0,0,1,7,5.38c-5.31-1.08-7.64-1.38-12.82-.42A5.61,5.61,0,0,1,201.27,15.68Zm4.61,3.79a5.43,5.43,0,0,0-5.58-2.1,3.38,3.38,0,0,0-2.38,1.76A30.39,30.39,0,0,1,205.88,19.47Z" transform="translate(-12.57)"/><path class="cls-1" d="M212.57,31.32c0-1.2,1-4.59,5.23-4.52A4.81,4.81,0,0,1,222,29.7V27.52c0-1.33-.81-3.32-3.81-3.32-2.53,0-4,1.45-4.25,2.75L212,26.34c.45-1.65,2.34-4,6.14-4,4.94,0,6.36,3.51,6.36,4.86V37.64H222v-3.2c0-.59-.91-5.93-4.27-5.77a2.58,2.58,0,0,0-2.56,2.78v.64a1.31,1.31,0,0,1,.34,0,2.91,2.91,0,1,1-2.92,2.9Zm2.92,2.24a1.41,1.41,0,0,0,0,2.82,1.41,1.41,0,1,0,0-2.82Z" transform="translate(-12.57)"/><path class="cls-1" d="M227.48,26.44c.46-1.6,1.35-4.11,5.45-4.11,4.84,0,5.7,3.52,5.7,4.92V37.64h-2.58V27.49c0-1.23-.39-3.29-3.12-3.29a3.52,3.52,0,0,0-3.68,2.92Z" transform="translate(-12.57)"/><path class="cls-1" d="M245.36,28.4a1.58,1.58,0,0,1-.37,0,2.92,2.92,0,1,1,2.92-2.9v6.83s2-7.53,3.46-9.63h.79c3.93,0,4.59,2.77,4.59,4.2V37.64h-2.6V27.17a2,2,0,0,0-1.62-2.26c-.72.22-1.34,4.34-4.62,12.73h-2.55ZM245,26.93a1.42,1.42,0,0,0,0-2.83,1.42,1.42,0,1,0,0,2.83Z" transform="translate(-12.57)"/><path class="cls-1" d="M270.77,36c.22,0,.37,0,.37-.61V27.52c0-1.33-.83-3.32-3.81-3.32-2.5,0-4.05,1.47-4.29,2.78l-1.87-.64c.45-1.65,2.39-4,6.16-4,5,0,6.37,3.51,6.37,4.86v8.4c0,2-1,2-2.93,2h-8.72V30.69a2.93,2.93,0,1,1,5.85,0A2.9,2.9,0,0,1,265,33.58a2.23,2.23,0,0,1-.37,0V36ZM265,29.26a1.42,1.42,0,0,0,0,2.83,1.42,1.42,0,1,0,0-2.83Z" transform="translate(-12.57)"/><path class="cls-1" d="M286.91,35.62c0,2-1,2-3,2h-.71s-3.5-5.14-6.36-8.55l.88-1.75c2.63,2.94,6.58,8.45,6.58,8.45V28.4a1.5,1.5,0,0,1-.37,0,2.92,2.92,0,1,1,2.93-2.9ZM284,26.93a1.42,1.42,0,0,0,0-2.83,1.42,1.42,0,1,0,0,2.83Z" transform="translate(-12.57)"/><path class="cls-1" d="M291.57,37.64V27.25c0-1.38,1.65-4.92,6.46-4.92a8,8,0,0,1,2.83.47,3.72,3.72,0,0,0,2.45-2.21l2,1.08A5.19,5.19,0,0,1,302.72,24a5.06,5.06,0,0,1,1.67,3.24V37.64h-2.55V27.49c0-1.3-.84-3.29-3.81-3.29s-3.91,2-3.91,3.29v2.85l-.07,1.45a15.51,15.51,0,0,1,1.43-4.08,2.92,2.92,0,1,1,.29,3.2s-1.3,4.15-1.65,6.19v.54Zm5.06-8.55a1.41,1.41,0,0,0,2.82,0,1.41,1.41,0,1,0-2.82,0Z" transform="translate(-12.57)"/><path class="cls-1" d="M305.35,16.41a2.51,2.51,0,0,1-1.55,2.34,5.8,5.8,0,0,1,1,2.31c-5.3-1.08-7.64-1.38-12.82-.42a5.62,5.62,0,0,1,5.85-5,7.27,7.27,0,0,1,2.57.46,2.49,2.49,0,0,1,5,.27Zm-2.94,3.06a5.43,5.43,0,0,0-5.58-2.1,3.38,3.38,0,0,0-2.38,1.76A30.39,30.39,0,0,1,302.41,19.47Zm1.64-3.06a1.2,1.2,0,1,0-2.39,0,1.2,1.2,0,0,0,2.39,0Z" transform="translate(-12.57)"/><path class="cls-1" d="M308.34,27.27s.76-4.91,6.61-4.91c5.67,0,6.26,4.15,6.26,4.81V37.64h-2.55V27.44c0-.56-.25-3.19-3.66-3.19-2.53,0-3.73,1.48-3.83,2.14l2.62.44V28a3.07,3.07,0,0,0-1.89,2.78v6.88h-2.53V31.15c0-2.21,2.53-3.41,2.53-3.41Z" transform="translate(-12.57)"/><path class="cls-1" d="M341.82,27.57a5.51,5.51,0,0,1-2.43,3.66v4.15c0,2.26-.94,2.26-2.93,2.26h-8.52V28.4a1.54,1.54,0,0,1-.37,0,2.92,2.92,0,1,1,2.92-2.9V35.75h6c.25,0,.37,0,.37-.62v-2.9a5.59,5.59,0,0,1-1.35.2c-1.52,0-3.18-.28-3.9-1.4a2.58,2.58,0,0,1-.45-1.43,2.51,2.51,0,0,1,5,0,2.42,2.42,0,0,1-.49,1.48,2.45,2.45,0,0,0,1.18-.49V22.85h2.56v6.36a2.86,2.86,0,0,0,.83-1.89Zm-14.25-.64a1.42,1.42,0,0,0,0-2.83,1.42,1.42,0,1,0,0,2.83Zm7.35,2.67a1.28,1.28,0,1,0-1.28,1.26A1.28,1.28,0,0,0,334.92,29.6Z" transform="translate(-12.57)"/><path class="cls-1" d="M342.23,26.44c.47-1.6,1.35-4.11,5.45-4.11,4.84,0,5.7,3.52,5.7,4.92V37.64H350.8V27.49c0-1.23-.39-3.29-3.12-3.29A3.52,3.52,0,0,0,344,27.12Z" transform="translate(-12.57)"/><path class="cls-3" d="M58.13,52v5.32H56.71V45.84h4.21c2.11,0,4,.59,4,3.1S62.9,52,61,52ZM61,50.7c1.17,0,2.46,0,2.46-1.76s-1.19-1.81-2.53-1.81H58.13V50.7Z" transform="translate(-12.57)"/><path class="cls-3" d="M67.44,57.58l-1.29-.5,4.46-11.23h1.46L76.5,57.08l-1.31.5L73.77,54h-4.9Zm2-4.9h3.86L71.35,47.5Z" transform="translate(-12.57)"/><path class="cls-3" d="M87.08,57.31H85.79l-6-8.82v8.82H78.35V45.84h1.31l6,8.82V45.84h1.42Z" transform="translate(-12.57)"/><path class="cls-3" d="M99.62,57.31H98.49l-.29-1a3.59,3.59,0,0,1-3,1.28c-3.62,0-5.45-2.94-5.45-6s1.68-6,5.45-6a4.65,4.65,0,0,1,4.25,2.37l-1.1.86a3.42,3.42,0,0,0-3.15-1.94c-2.74,0-4,2.33-4,4.73s1.42,4.73,4,4.73a3.63,3.63,0,0,0,3-1.59V52.19H94.87V50.9h4.75Z" transform="translate(-12.57)"/><path class="cls-3" d="M102.05,53.65l1.42-.2a3,3,0,0,0,3.15,2.85c1.4,0,3.11-.6,3.11-2.16,0-1.33-1.71-1.75-3-2l0,0-.15,0c-1.78-.44-4.26-.94-4.26-3.19,0-2.4,2.25-3.34,4.4-3.34a3.92,3.92,0,0,1,4.14,3.67l-1.39.18a2.64,2.64,0,0,0-2.75-2.56c-1.83,0-3,.79-3,2.05s1.65,1.6,2.81,1.86l.16,0c1.86.48,4.37,1,4.37,3.36s-2.41,3.44-4.53,3.44A4.33,4.33,0,0,1,102.05,53.65Z" transform="translate(-12.57)"/><path class="cls-3" d="M115.43,57.31H114V45.84h1.42Z" transform="translate(-12.57)"/><path class="cls-3" d="M125.8,57.31h-7.22V45.84H120V56h5.79Z" transform="translate(-12.57)"/><path class="cls-3" d="M127.8,57.58l-1.29-.5L131,45.85h1.46l4.43,11.23-1.3.5L134.14,54h-4.9Zm2-4.9h3.85l-1.9-5.18Z" transform="translate(-12.57)"/><path class="cls-3" d="M146.36,47.13h-3.58V57.31h-1.42V47.13h-3.64V45.85h8.64Z" transform="translate(-12.57)"/><path class="cls-3" d="M157.12,57.31H155.7V52.19h-6.06v5.12h-1.42V45.84h1.42V50.9h6.06V45.84h1.42Z" transform="translate(-12.57)"/><path class="cls-3" d="M159.55,51.59c0-3,2-5.89,5.44-5.89s5.45,2.88,5.45,5.89-2,5.86-5.45,5.86S159.55,54.57,159.55,51.59Zm1.42,0c0,2.33,1.43,4.58,4,4.58s4-2.25,4-4.58-1.4-4.6-4-4.6S161,49.28,161,51.59Z" transform="translate(-12.57)"/><path class="cls-3" d="M181.6,57.31h-1.29l-6-8.82v8.82h-1.42V45.84h1.3l6,8.82V45.84h1.42Z" transform="translate(-12.57)"/><path class="cls-3" d="M194.13,57.31H193l-.29-1a3.59,3.59,0,0,1-3,1.28c-3.61,0-5.45-2.94-5.45-6s1.68-6,5.45-6A4.65,4.65,0,0,1,194,47.92l-1.11.86a3.41,3.41,0,0,0-3.15-1.94c-2.74,0-4,2.33-4,4.73s1.42,4.73,4,4.73a3.62,3.62,0,0,0,3-1.59V52.19h-3.32V50.9h4.74Z" transform="translate(-12.57)"/><path class="cls-3" d="M196.56,53.65l1.42-.2a3,3,0,0,0,3.16,2.85c1.4,0,3.11-.6,3.11-2.16,0-1.33-1.71-1.75-3-2l0,0-.16,0c-1.77-.44-4.25-.94-4.25-3.19,0-2.4,2.25-3.34,4.4-3.34a3.93,3.93,0,0,1,4.14,3.67l-1.39.18a2.64,2.64,0,0,0-2.75-2.56c-1.84,0-3,.79-3,2.05s1.65,1.6,2.82,1.86l.15,0c1.87.48,4.37,1,4.37,3.36s-2.4,3.44-4.52,3.44A4.34,4.34,0,0,1,196.56,53.65Z" transform="translate(-12.57)"/><path class="cls-3" d="M208.09,53.65V45.84h1.42v7.81c0,1.69,1.11,2.67,3,2.67s3.07-.86,3.07-2.77V45.84H217v7.71c0,2.7-1.69,4.06-4.49,4.06S208.09,56.06,208.09,53.65Z" transform="translate(-12.57)"/><path class="cls-3" d="M227.54,57.59l-5-5.7-1.39,1.35v4.07H219.7V45.84h1.42v5.55l6-5.79.92,1-4.56,4.38,5.05,5.74Z" transform="translate(-12.57)"/><path class="cls-3" d="M230.27,53.65l1.42-.2a3,3,0,0,0,3.15,2.85c1.41,0,3.11-.6,3.11-2.16,0-1.33-1.7-1.75-2.95-2l0,0-.16,0c-1.78-.44-4.26-.94-4.26-3.19,0-2.4,2.25-3.34,4.4-3.34a3.94,3.94,0,0,1,4.15,3.67l-1.39.18A2.64,2.64,0,0,0,235,46.83c-1.83,0-3,.79-3,2.05s1.65,1.6,2.81,1.86l.16,0c1.86.48,4.37,1,4.37,3.36s-2.41,3.44-4.53,3.44A4.33,4.33,0,0,1,230.27,53.65Z" transform="translate(-12.57)"/><path class="cls-3" d="M242.23,57.58l-1.29-.5,4.46-11.23h1.46l4.43,11.23-1.31.5L248.57,54h-4.91Zm2-4.9h3.86l-1.91-5.18Z" transform="translate(-12.57)"/><path class="cls-3" d="M258,53.65l1.42-.2a3,3,0,0,0,3.15,2.85c1.4,0,3.11-.6,3.11-2.16,0-1.33-1.71-1.75-2.95-2l0,0-.16,0c-1.78-.44-4.26-.94-4.26-3.19,0-2.4,2.25-3.34,4.4-3.34a3.92,3.92,0,0,1,4.14,3.67l-1.39.18a2.64,2.64,0,0,0-2.75-2.56c-1.83,0-3,.79-3,2.05s1.65,1.6,2.81,1.86l.16,0c1.86.48,4.37,1,4.37,3.36s-2.41,3.44-4.53,3.44A4.33,4.33,0,0,1,258,53.65Z" transform="translate(-12.57)"/><path class="cls-3" d="M269.55,51.7c0-3.14,1.82-6.15,5.44-6.15A4.61,4.61,0,0,1,279.24,48l-1.11.88A3.39,3.39,0,0,0,275,46.84c-2.75,0-4,2.38-4,4.86,0,2.32,1.29,4.59,4,4.59a3.57,3.57,0,0,0,3.22-1.84l1.07.85A4.79,4.79,0,0,1,275,57.56C271.38,57.56,269.55,54.7,269.55,51.7Z" transform="translate(-12.57)"/><path class="cls-3" d="M290.47,57.31h-1.42V52.19H283v5.12h-1.42V45.84H283V50.9h6.06V45.84h1.42Z" transform="translate(-12.57)"/><path class="cls-3" d="M292.9,51.59c0-3,2-5.89,5.45-5.89s5.44,2.88,5.44,5.89-2,5.86-5.44,5.86S292.9,54.57,292.9,51.59Zm1.42,0c0,2.33,1.43,4.58,4,4.58s4-2.25,4-4.58-1.4-4.6-4-4.6S294.32,49.28,294.32,51.59Z" transform="translate(-12.57)"/><path class="cls-3" d="M305.79,51.59c0-3,2-5.89,5.45-5.89s5.44,2.88,5.44,5.89-2,5.86-5.44,5.86S305.79,54.57,305.79,51.59Zm1.42,0c0,2.33,1.43,4.58,4,4.58s4-2.25,4-4.58-1.4-4.6-4-4.6S307.21,49.28,307.21,51.59Z" transform="translate(-12.57)"/><path class="cls-3" d="M326.34,57.31h-7.23V45.84h1.44V56h5.79Z" transform="translate(-12.57)"/></svg>